SplineFontDB: 3.0
FontName: StickNoBillsSinhala-Bold
FullName: Stick No Bills
FamilyName: Stick No Bills
OS2FamilyName: "Stick No Bills Regular"
OS2StyleName: "regular"
Weight: Bold
Copyright: Remove All VKern Pairs
UComments: "2015-2-15: Created with FontForge (http://fontforge.org) The  Free Font Editor"
Version: 1.0
ItalicAngle: 0
UnderlinePosition: 0
UnderlineWidth: 0
Ascent: 819
Descent: 250
InvalidEm: 0
UFOAscent: 819
UFODescent: -250
LayerCount: 2
Layer: 0 0 "Back" 1
Layer: 1 0 "Fore" 0
FSType: 0
OS2Version: 0
OS2_WeightWidthSlopeOnly: 0
OS2_UseTypoMetrics: 0
CreationTime: 1445260147
ModificationTime: 1445260147
PfmFamily: 16
TTFWeight: 400
TTFWidth: 5
LineGap: 0
VLineGap: 0
OS2TypoAscent: 819
OS2TypoAOffset: 0
OS2TypoDescent: -250
OS2TypoDOffset: 0
OS2TypoLinegap: 0
OS2WinAscent: 922
OS2WinAOffset: 0
OS2WinDescent: 234
OS2WinDOffset: 0
HheadAscent: 922
HheadAOffset: 0
HheadDescent: -234
HheadDOffset: 0
OS2CapHeight: 0
OS2XHeight: 0
OS2Vendor: 'PfEd'
OS2UnicodeRanges: 00000002.00000000.00000000.00000000
Lookup: 4 0 0 "si_akhands" { "si_akhands subtable"  } ['akhn' ('sinh' <'dflt' > ) ]
Lookup: 4 0 0 "si_reph" { "si_reph subtable"  } ['rphf' ('sinh' <'dflt' > ) ]
Lookup: 4 0 0 "si_halant_1" { "si_halant_1 subtable"  } ['haln' ('sinh' <'dflt' > ) ]
Lookup: 4 0 0 "si_abvs_1" { "si_abvs_1 subtable"  } ['abvs' ('sinh' <'dflt' > ) ]
Lookup: 4 0 0 "si_abvs_2" { "si_abvs_2 subtable"  } ['abvs' ('sinh' <'dflt' > ) ]
Lookup: 4 0 0 "si_abvs_3" { "si_abvs_3 subtable"  } ['abvs' ('sinh' <'dflt' > ) ]
Lookup: 4 0 0 "si_abvs_4" { "si_abvs_4 subtable"  } ['abvs' ('sinh' <'dflt' > ) ]
Lookup: 4 0 0 "si_abvs_5" { "si_abvs_5 subtable"  } ['abvs' ('sinh' <'dflt' > ) ]
Lookup: 4 0 0 "si_abvs_6" { "si_abvs_6 subtable"  } ['abvs' ('sinh' <'dflt' > ) ]
Lookup: 4 0 0 "si_abvs_7" { "si_abvs_7 subtable"  } ['abvs' ('sinh' <'dflt' > ) ]
Lookup: 4 0 0 "si_blws_1" { "si_blws_1 subtable"  } ['blws' ('sinh' <'dflt' > ) ]

StartChar: anusvara
Encoding: 1 3458 1
GlifName: anusvara
Width: 469
VWidth: 0
GlyphClass: 2
Flags: W
HStem: 45 130<115.632 209.334 189.556 209.334 189.556 209.334 189.556 259.334 259.334 279.111 189.556 280.405> 384 130<189.556 209.334 259.334 279.111>
VStem: 30 135<248 311 228.301 340.126> 304 135
LayerCount: 2
Back
Fore
SplineSet
259.334 45 m 257
 259.334 175 l 257
 298.889 175 303.668 208.602 303.668 248 c 258
 303.668 311 l 258
 303.668 350.398 298.889 384 259.334 384 c 257
 259.334 514 l 257
 280.405 514 l 258
 425.668 514 438.668 369.253 438.668 311 c 258
 438.668 248 l 258
 438.668 189.747 425.668 45 280.405 45 c 258
 259.334 45 l 257
188.263 45 m 258
 43 45 30 189.747 30 248 c 258
 30 311 l 258
 30 369.253 43 514 188.263 514 c 258
 209.334 514 l 257
 209.334 384 l 257
 169.779 384 165 350.398 165 311 c 258
 165 248 l 258
 165 208.602 169.779 175 209.334 175 c 257
 209.334 45 l 257
 188.263 45 l 258
EndSplineSet
PickledDataWithLists: "(dp1
S'com.fontlab.hintData'
p2
(dp3
S'vhints'
p4
(lp5
(dp6
S'position'
p7
I30
sS'width'
p8
I135
sa(dp9
g7
I304
sg8
I135
sasS'hhints'
p10
(lp11
(dp12
g7
I45
sg8
I130
sa(dp13
g7
I384
sg8
I130
sass."
EndChar

StartChar: dottedcircle
Encoding: 83 9676 2
GlifName: dottedcircle
Width: 636
VWidth: 0
GlyphClass: 2
Flags: W
LayerCount: 2
Back
Fore
SplineSet
167.958 483.58 m 256
 167.958 502.58 182.958 517.58 201.958 517.58 c 256
 220.958 517.58 235.958 502.58 235.958 483.58 c 256
 235.958 464.58 220.958 449.58 201.958 449.58 c 256
 182.958 449.58 167.958 464.58 167.958 483.58 c 256
82.4199 398.042 m 256
 82.4199 417.042 97.4199 432.042 116.42 432.042 c 256
 135.42 432.042 150.42 417.042 150.42 398.042 c 256
 150.42 379.042 135.42 364.042 116.42 364.042 c 256
 97.4199 364.042 82.4199 379.042 82.4199 398.042 c 256
167.958 72.4199 m 256
 167.958 91.4199 182.958 106.42 201.958 106.42 c 256
 220.958 106.42 235.958 91.4199 235.958 72.4199 c 256
 235.958 53.4199 220.958 38.4199 201.958 38.4199 c 256
 182.958 38.4199 167.958 53.4199 167.958 72.4199 c 256
82.4199 157.958 m 256
 82.4199 176.958 97.4199 191.958 116.42 191.958 c 256
 135.42 191.958 150.42 176.958 150.42 157.958 c 256
 150.42 138.958 135.42 123.958 116.42 123.958 c 256
 97.4199 123.958 82.4199 138.958 82.4199 157.958 c 256
408.042 72.4199 m 256
 408.042 91.4199 423.042 106.42 442.042 106.42 c 256
 461.042 106.42 476.042 91.4199 476.042 72.4199 c 256
 476.042 53.4199 461.042 38.4199 442.042 38.4199 c 256
 423.042 38.4199 408.042 53.4199 408.042 72.4199 c 256
493.58 157.958 m 256
 493.58 176.958 508.58 191.958 527.58 191.958 c 256
 546.58 191.958 561.58 176.958 561.58 157.958 c 256
 561.58 138.958 546.58 123.958 527.58 123.958 c 256
 508.58 123.958 493.58 138.958 493.58 157.958 c 256
493.58 398.042 m 256
 493.58 417.042 508.58 432.042 527.58 432.042 c 256
 546.58 432.042 561.58 417.042 561.58 398.042 c 256
 561.58 379.042 546.58 364.042 527.58 364.042 c 256
 508.58 364.042 493.58 379.042 493.58 398.042 c 256
408.042 483.58 m 256
 408.042 502.58 423.042 517.58 442.042 517.58 c 256
 461.042 517.58 476.042 502.58 476.042 483.58 c 256
 476.042 464.58 461.042 449.58 442.042 449.58 c 256
 423.042 449.58 408.042 464.58 408.042 483.58 c 256
526 278 m 256
 526 297 541 312 560 312 c 256
 579 312 594 297 594 278 c 256
 594 259 579 244 560 244 c 256
 541 244 526 259 526 278 c 256
288 40 m 256
 288 59 303 74 322 74 c 256
 341 74 356 59 356 40 c 256
 356 21 341 6 322 6 c 256
 303 6 288 21 288 40 c 256
50 278 m 256
 50 297 65 312 84 312 c 256
 103 312 118 297 118 278 c 256
 118 259 103 244 84 244 c 256
 65 244 50 259 50 278 c 256
288 516 m 256
 288 535 303 550 322 550 c 256
 341 550 356 535 356 516 c 256
 356 497 341 482 322 482 c 256
 303 482 288 497 288 516 c 256
EndSplineSet
EndChar

StartChar: si_A
Encoding: 3 3461 3
GlifName: si_A_
Width: 544
VWidth: 0
GlyphClass: 2
Flags: W
LayerCount: 2
Back
Fore
SplineSet
312 -169 m 257
 312 380 l 258
 312 466 338 529 484 579 c 257
 514 434 l 257
 445.9 416.331 441.931 394.763 441.931 361.703 c 256
 441.931 357.341 442 352.779 442 140 c 257
 494 140 l 257
 494 0 l 257
 442 0 l 257
 442 -169 l 257
 312 -169 l 257
30 198 m 256
 30 337.017 125.045 402 256 402 c 258
 313 402 l 257
 313 439.367 278.239 457.175 243.43 457.175 c 256
 213.982 457.175 184.5 444.43 176 420 c 257
 58 459 l 257
 79.418 539.204 157.76 577.97 238.147 577.97 c 256
 338.48 577.97 442 517.58 442 402 c 258
 442 263 l 257
 256 263 l 258
 217 263 173 257.19 173 198 c 257
 173 146 220 136 257 136 c 256
 257 136 257 136 257 136 c 256
 257 0 l 256
 257 0 257 0 257 0 c 256
 137 0 30 59.3916 30 198 c 256
EndSplineSet
EndChar

StartChar: si_B.halant
Encoding: 326 -1 9
GlifName: si_B_.halant
Width: 609
VWidth: 0
GlyphClass: 3
Flags: W
LayerCount: 2
Back
Fore
SplineSet
30 187 m 258
 30 283 l 258
 30 390.84 122.007 451.906 211.942 451.906 c 256
 297.918 451.906 382 396.099 382 272 c 258
 382 174 l 258
 382 149.773 396.243 137.668 410.49 137.668 c 256
 424.743 137.668 439 149.784 439 174 c 257
 439 214 l 257
 579 214 l 257
 579 174 l 257
 579 51.6348 487.997 -8.05762 401.28 -8.05762 c 256
 322.365 -8.05762 247 41.377 247 138 c 258
 247 267 l 258
 247 297.832 225.734 313.285 204.476 313.285 c 256
 183.251 313.285 162.035 297.881 162 267 c 258
 161.917 193 l 258
 162 151 180.457 140 211 140 c 257
 211 0 l 257
 91.1055 0 30 55 30 187 c 258
38 512 m 257
 38 652 l 257
 79 652 l 257
 62.708 652 52.543 678.371 52.543 710.154 c 256
 52.543 758.353 89.7178 819 220 819 c 258
 284.667 819 l 257
 284.667 703 l 257
 228.667 703 l 258
 199.729 703 193.409 688.847 193.409 676.362 c 256
 193.409 661.503 206.732 652 228.667 652 c 258
 347.667 652 l 257
 347.667 512 l 257
 38 512 l 257
439 214 m 257
 439 444 l 258
 439 504 397.403 512 347.667 512 c 257
 347.667 652 l 257
 507.305 652 579 590 579 473 c 258
 579 214 l 257
 439 214 l 257
430.667 673 m 257
 430.667 700 406 703 360.667 703 c 258
 340.167 703 l 257
 340.167 819 l 257
 392.667 819 l 258
 541.026 819 566 756 566 673 c 257
 430.667 673 l 257
EndSplineSet
Ligature2: "si_halant_1 subtable" si_Ba si_Halant
EndChar

StartChar: si_BI
Encoding: 327 -1 10
GlifName: si_B_I_
Width: 609
VWidth: 0
GlyphClass: 3
Flags: W
LayerCount: 2
Back
Fore
SplineSet
30 187 m 258
 30 283 l 258
 30 390.84 122.007 451.906 211.942 451.906 c 256
 297.918 451.906 382 396.099 382 272 c 258
 382 174 l 258
 382 149.773 396.243 137.668 410.49 137.668 c 256
 424.743 137.668 439 149.784 439 174 c 257
 439 214 l 257
 579 214 l 257
 579 174 l 257
 579 51.6348 487.997 -8.05762 401.28 -8.05762 c 256
 322.365 -8.05762 247 41.377 247 138 c 258
 247 267 l 258
 247 297.832 225.734 313.285 204.476 313.285 c 256
 183.251 313.285 162.035 297.881 162 267 c 258
 161.917 193 l 258
 162 151 180.457 140 211 140 c 257
 211 0 l 257
 91.1055 0 30 55 30 187 c 258
207.667 512 m 258
 89.542 512 30.292 570.065 30.292 670.735 c 256
 30.292 744.907 89.292 819 207.667 819 c 257
 285.667 819 l 257
 285.667 703 l 257
 186.667 703 l 257
 166.167 703 155.917 690.25 155.917 677.5 c 256
 155.917 664.75 166.167 652 186.667 652 c 258
 347.667 652 l 257
 347.667 512 l 257
 207.667 512 l 258
439 214 m 257
 439 446 l 258
 439 504 397.403 512 347.667 512 c 257
 347.667 652 l 257
 507.305 652 579 590 579 473 c 258
 579 214 l 257
 439 214 l 257
341.167 703 m 257
 341.167 819 l 257
 392.667 819 l 258
 521.026 819 566 756 566 673 c 257
 430.667 673 l 257
 430.667 700 406 703 360.667 703 c 258
 341.167 703 l 257
EndSplineSet
Ligature2: "si_abvs_1 subtable" si_Ba si_MatraI
EndChar

StartChar: si_BIi
Encoding: 328 -1 11
GlifName: si_B_I_i
Width: 609
VWidth: 0
GlyphClass: 3
Flags: W
LayerCount: 2
Back
Fore
SplineSet
30 187 m 258
 30 283 l 258
 30 390.84 122.007 451.906 211.942 451.906 c 256
 297.918 451.906 382 396.099 382 272 c 258
 382 174 l 258
 382 149.773 396.243 137.668 410.49 137.668 c 256
 424.743 137.668 439 149.784 439 174 c 257
 439 214 l 257
 579 214 l 257
 579 174 l 257
 579 51.6348 487.997 -8.05762 401.28 -8.05762 c 256
 322.365 -8.05762 247 41.377 247 138 c 258
 247 267 l 258
 247 297.832 225.734 313.285 204.476 313.285 c 256
 183.251 313.285 162.035 297.881 162 267 c 258
 161.917 193 l 258
 162 151 180.457 140 211 140 c 257
 211 0 l 257
 91.1055 0 30 55 30 187 c 258
207.667 512 m 258
 89.542 512 30.292 570.065 30.292 670.735 c 256
 30.292 744.907 89.292 819 207.667 819 c 257
 285.667 819 l 257
 285.667 703 l 257
 186.667 703 l 257
 166.167 703 155.917 690.25 155.917 677.5 c 256
 155.917 664.75 166.167 652 186.667 652 c 258
 347.667 652 l 257
 347.667 512 l 257
 207.667 512 l 258
480 603 m 256
 432.286 603 388.352 651.443 388.352 689.821 c 256
 388.352 694.39 388.975 698.815 390.287 703 c 257
 380 703 l 257
 340.667 703 l 257
 340.667 819 l 257
 480 819 l 258
 540 819 588 771 588 711 c 256
 588 651 540 603 480 603 c 256
439 214 m 257
 439 446 l 258
 439 504 397.403 512 347.667 512 c 257
 347.667 652 l 257
 507.305 652 579 590 579 473 c 258
 579 214 l 257
 439 214 l 257
EndSplineSet
Ligature2: "si_abvs_2 subtable" si_Ba si_MatraIi
EndChar

StartChar: si_BR.halant
Encoding: 332 -1 12
GlifName: si_B_R_.halant
Width: 609
VWidth: 0
GlyphClass: 2
Flags: W
LayerCount: 2
Back
Fore
SplineSet
338.115 -233.947 m 257
 338 -103 l 257
 426.74 -103 451.39 -67.9805 451.39 -38.7807 c 256
 451.39 -17.9028 438.788 -3.55271e-15 428 0 c 257
 561 89 l 257
 583.092 51.311 594.131 10.9717 594.131 -27.9808 c 256
 594.131 -136.329 508.723 -233.947 338.115 -233.947 c 257
283.115 -233.947 m 257
 149 -234 34.833 -167.027 34.833 -37.0908 c 257
 175.833 -37.0908 l 257
 175.833 -72.625 214.901 -103 283 -103 c 257
 283.115 -233.947 l 257
EndSplineSet
Refer: 9 -1 N 1 0 0 1 0 0 2
EndChar

StartChar: si_BRI
Encoding: 334 -1 13
GlifName: si_B_R_I_
Width: 609
VWidth: 0
GlyphClass: 3
Flags: W
LayerCount: 2
Back
Fore
SplineSet
338.115 -233.947 m 257
 338 -103 l 257
 426.74 -103 451.39 -67.9805 451.39 -38.7807 c 256
 451.39 -17.9028 438.788 -3.55271e-15 428 0 c 257
 561 89 l 257
 583.092 51.311 594.131 10.9717 594.131 -27.9808 c 256
 594.131 -136.329 508.723 -233.947 338.115 -233.947 c 257
283.115 -233.947 m 257
 149 -234 34.833 -167.027 34.833 -37.0908 c 257
 175.833 -37.0908 l 257
 175.833 -72.625 214.901 -103 283 -103 c 257
 283.115 -233.947 l 257
EndSplineSet
Refer: 10 -1 N 1 0 0 1 0 0 2
Ligature2: "si_abvs_3 subtable" si_BRa si_MatraI
EndChar

StartChar: si_BRIi
Encoding: 335 -1 14
GlifName: si_B_R_I_i
Width: 609
VWidth: 0
GlyphClass: 3
Flags: W
LayerCount: 2
Back
Fore
SplineSet
338.115 -233.947 m 257
 338 -103 l 257
 426.74 -103 451.39 -67.9805 451.39 -38.7807 c 256
 451.39 -17.9028 438.788 -3.55271e-15 428 0 c 257
 561 89 l 257
 583.092 51.311 594.131 10.9717 594.131 -27.9808 c 256
 594.131 -136.329 508.723 -233.947 338.115 -233.947 c 257
283.115 -233.947 m 257
 149 -234 34.833 -167.027 34.833 -37.0908 c 257
 175.833 -37.0908 l 257
 175.833 -72.625 214.901 -103 283 -103 c 257
 283.115 -233.947 l 257
EndSplineSet
Refer: 11 -1 N 1 0 0 1 0 0 2
Ligature2: "si_abvs_4 subtable" si_BRa si_MatraIi
EndChar

StartChar: si_BRa
Encoding: 333 -1 15
GlifName: si_B_R_a
Width: 609
VWidth: 0
GlyphClass: 2
Flags: W
LayerCount: 2
Back
Fore
SplineSet
333.115 -233.947 m 257
 333 -103 l 257
 424.318 -103 449.569 -65.9157 449.569 -36.2508 c 256
 449.569 -16.4771 438.35 0 428 0 c 257
 561 89 l 257
 582.585 52.1758 593.284 12.8215 593.284 -25.2973 c 256
 593.284 -134.712 505.131 -233.947 333.115 -233.947 c 257
278.115 -233.947 m 257
 144 -234 30.833 -167.027 30.833 -37.0908 c 257
 171.833 -37.0908 l 257
 171.833 -72.625 209.901 -103 278 -103 c 257
 278.115 -233.947 l 257
EndSplineSet
Refer: 18 3510 N 1 0 0 1 0 0 2
EndChar

StartChar: si_BU
Encoding: 329 -1 16
GlifName: si_B_U_
Width: 609
VWidth: 0
GlyphClass: 3
Flags: W
LayerCount: 2
Back
Fore
SplineSet
56 -65 m 257
 268 -65 l 257
 268 -205 l 257
 56 -205 l 257
 56 -65 l 257
324 -65 m 257
 439 -65 l 257
 439 -205 l 257
 324 -205 l 257
 324 -65 l 257
423 123 m 257
 563 123 l 257
 563 -205 l 257
 423 -205 l 257
 423 123 l 257
EndSplineSet
Refer: 18 3510 N 1 0 0 1 0 0 2
Ligature2: "si_blws_1 subtable" si_Ba si_MatraU
EndChar

StartChar: si_BUu
Encoding: 330 -1 17
GlifName: si_B_U_u
Width: 609
VWidth: 0
GlyphClass: 3
Flags: W
LayerCount: 2
Back
Fore
SplineSet
56 -39 m 257
 82.334 -58.333 129.444 -64.7773 150.741 -64.7773 c 256
 193.334 -64.7773 228.667 -42 268 -42 c 257
 268 -182 l 257
 228.667 -182 193.334 -204.777 150.741 -204.777 c 256
 129.444 -204.777 82.334 -198.333 56 -179 c 257
 56 -39 l 257
324 -42 m 257
 341 -42 400.148 -46.167 423 -61 c 257
 423 -205 l 257
 397.106 -186.639 345 -182 324 -182 c 257
 324 -42 l 257
423 123 m 257
 563 123 l 257
 563 -205 l 257
 423 -205 l 257
 423 123 l 257
EndSplineSet
Refer: 18 3510 N 1 0 0 1 0 0 2
Ligature2: "si_blws_3 subtable" si_Ba si_MatraUu
EndChar

StartChar: si_Ba
Encoding: 48 3510 18
GlifName: si_B_a
Width: 609
VWidth: 0
GlyphClass: 2
Flags: W
LayerCount: 2
Back
Fore
SplineSet
30 187 m 258
 30 283 l 258
 30 390.84 122.007 451.906 211.942 451.906 c 256
 297.918 451.906 382 396.099 382 272 c 258
 382 174 l 258
 382 149.773 396.243 137.668 410.49 137.668 c 256
 424.743 137.668 439 149.784 439 174 c 257
 439 214 l 257
 579 214 l 257
 579 174 l 257
 579 51.6343 487.997 -8.05795 401.28 -8.05795 c 256
 322.365 -8.05795 247 41.377 247 138 c 258
 247 267 l 258
 247 297.832 225.734 313.285 204.476 313.285 c 256
 183.251 313.285 162.035 297.881 162 267 c 258
 161.917 193 l 258
 162 151 180.457 140 211 140 c 257
 211 0 l 257
 91.1055 0 30 55 30 187 c 258
439 214 m 257
 439 478 l 258
 439 556.997 422.428 616 345 616 c 257
 324 616 l 257
 324 755 l 257
 345 755 l 257
 478.701 755 579 679.969 579 500 c 258
 579 214 l 257
 439 214 l 257
41 566 m 257
 41 677.93 154.967 755 268 755 c 257
 268 616.5 l 257
 219.963 616.5 178 601.568 178 530 c 257
 41 566 l 257
EndSplineSet
EndChar

StartChar: si_BhRI
Encoding: 344 -1 24
GlifName: si_B_hR_I_
Width: 754
VWidth: 0
GlyphClass: 3
Flags: W
LayerCount: 2
Back
Fore
SplineSet
426 -103 m 257
 435 -103 l 258
 583 -103 584.25 0 559 0 c 257
 692 89 l 257
 763.992 -37.9238 673 -234 463 -234 c 258
 426.115 -233.947 l 257
 426 -103 l 257
371.115 -233.947 m 257
 343 -234 l 258
 218 -234 93.833 -165.25 93.833 -37.0908 c 257
 234.833 -37.0908 l 257
 234.833 -72.5898 287 -103 351 -103 c 258
 371 -103 l 257
 371.115 -233.947 l 257
EndSplineSet
Refer: 22 -1 N 1 0 0 1 0 0 2
Ligature2: "si_abvs_3 subtable" si_BhRa si_MatraI
EndChar

StartChar: si_BhRIi
Encoding: 345 -1 25
GlifName: si_B_hR_I_i
Width: 754
VWidth: 0
GlyphClass: 3
Flags: W
LayerCount: 2
Back
Fore
SplineSet
426 -103 m 257
 435 -103 l 258
 583 -103 584.25 0 559 0 c 257
 692 89 l 257
 763.992 -37.9238 673 -234 463 -234 c 258
 426.115 -233.947 l 257
 426 -103 l 257
371.115 -233.947 m 257
 343 -234 l 258
 218 -234 93.833 -165.25 93.833 -37.0908 c 257
 234.833 -37.0908 l 257
 234.833 -72.5898 287 -103 351 -103 c 258
 371 -103 l 257
 371.115 -233.947 l 257
EndSplineSet
Refer: 23 -1 N 1 0 0 1 0 0 2
Ligature2: "si_abvs_4 subtable" si_BhRa si_MatraIi
EndChar

StartChar: si_BhRa
Encoding: 343 -1 26
GlifName: si_B_hR_a
Width: 754
VWidth: 0
GlyphClass: 3
Flags: W
LayerCount: 2
Back
Fore
SplineSet
426 -103 m 257
 435 -103 l 258
 583 -103 584.25 0 559 0 c 257
 692 89 l 257
 763.992 -37.9238 673 -234 463 -234 c 258
 426.115 -233.947 l 257
 426 -103 l 257
371.115 -233.947 m 257
 343 -234 l 258
 218 -234 93.833 -165.25 93.833 -37.0908 c 257
 234.833 -37.0908 l 257
 234.833 -72.5898 287 -103 351 -103 c 258
 371 -103 l 257
 371.115 -233.947 l 257
EndSplineSet
Refer: 30 3511 N 1 0 0 1 0 0 2
Ligature2: "si_rakaar subtable" si_Bha si_Halant si_Ra
EndChar

StartChar: si_BhRa.halant
Encoding: 342 -1 27
GlifName: si_B_hR_a.halant
Width: 754
VWidth: 0
GlyphClass: 2
Flags: W
LayerCount: 2
Back
Fore
SplineSet
426 -103 m 257
 435 -103 l 258
 583 -103 584.25 0 559 0 c 257
 692 89 l 257
 763.992 -37.9238 673 -234 463 -234 c 258
 426.115 -233.947 l 257
 426 -103 l 257
371.115 -233.947 m 257
 343 -234 l 258
 218 -234 93.833 -165.25 93.833 -37.0908 c 257
 234.833 -37.0908 l 257
 234.833 -72.5898 287 -103 351 -103 c 258
 371 -103 l 257
 371.115 -233.947 l 257
EndSplineSet
Refer: 21 -1 N 1 0 0 1 0 0 2
EndChar

StartChar: si_BhU
Encoding: 339 -1 28
GlifName: si_B_hU_
Width: 754
VWidth: 0
GlyphClass: 3
Flags: W
LayerCount: 2
Back
Fore
SplineSet
702.19 -205.003 m 256
 595.365 -205.003 506.854 -155.937 507 -29 c 258
 507 19 l 258
 506.854 147.379 595.365 197.003 702.19 197.003 c 256
 709.229 197.003 716.533 197.002 724 197 c 257
 724 54 l 257
 719.681 54 711.854 54 703 54 c 256
 679.141 54 648.857 44.0752 648.018 -2.98438 c 258
 648.022 -7.23535 l 258
 648.951 -54.1064 679.178 -64 703 -64 c 256
 711.854 -64 719.681 -64 724 -64 c 257
 724 -205 l 257
 716.533 -205.002 709.229 -205.003 702.19 -205.003 c 256
583 138 m 256
 583 348 l 258
 583 375.857 579.112 421 527 421 c 257
 527 564 l 257
 666.296 564 723.58 474.263 723.921 358 c 258
 723.921 138 l 256
 583 138 l 256
429.844 344.25 m 257
 462.504 338.728 497.972 304.767 497.85 216 c 258
 498 166 l 258
 498 45.3369 436.689 -8 320 -8 c 257
 320 135 l 257
 372.527 135 374 170.963 374 188 c 256
 374 204.457 372.626 238.572 325.191 240.877 c 258
 291 241 l 257
 291 350 l 258
 291 468.007 327.062 564 471 564 c 257
 471 421 l 257
 428.201 421 429.389 380.318 429.787 350.92 c 256
 429.818 348.62 429.844 346.388 429.844 344.25 c 257
265 -8 m 257
 125.704 -8 68.4199 81.7373 68.0791 198 c 258
 68.0791 254 l 258
 68.1367 268.984 70.3662 283.395 74.6035 297 c 257
 30 297 l 257
 30 415 l 257
 241 415 l 257
 241 445.826 229.426 461.951 198.15 461.951 c 256
 180.244 461.951 162.712 454.054 159 437.352 c 257
 60 463.352 l 257
 82.7783 532.349 142.161 563.617 200.772 563.617 c 256
 272.971 563.617 344 516.171 344 433.352 c 258
 344 297 l 257
 265 297 l 258
 212.888 297 209 263.607 209 243 c 258
 209 199 l 258
 209 174.577 212.888 135 265 135 c 257
 265 -8 l 257
EndSplineSet
Ligature2: "si_blws_1 subtable" si_Bha si_MatraU
EndChar

StartChar: si_BhUu
Encoding: 340 -1 29
GlifName: si_B_hU_u
Width: 754
VWidth: 0
GlyphClass: 3
Flags: W
LayerCount: 2
Back
Fore
SplineSet
682.19 -205.003 m 258
 626.065 -205.003 550 -162.81 550 -75 c 258
 549.945 -31 l 258
 549.908 -1.08691 551.839 5 563 20 c 257
 527 20 l 257
 527 90 l 257
 594 132 l 257
 527 132 l 257
 527 202 l 257
 764 202 l 257
 764 132 l 257
 697 90 l 257
 764 90 l 257
 764 20 l 257
 749 20 719 20 719 20 c 258
 699.47 20 690 11.3271 690 -18 c 258
 689.844 -47 l 258
 689.964 -66.833 700.775 -75 723 -75 c 258
 754 -75 l 257
 754 -205 l 257
 682.19 -205.003 l 258
527 202 m 257
 567.533 202 582.883 217.158 583 249.254 c 256
 583 282.169 583 315.085 583 348 c 256
 583 375.857 579.112 421 527 421 c 257
 527 564 l 257
 666.296 564 723.58 474.263 723.921 358 c 258
 723.921 249 l 257
 724.021 236.393 723.555 214 714 202 c 257
 527 202 l 257
429.844 344.25 m 257
 462.504 338.728 497.972 304.767 497.85 216 c 258
 498 166 l 258
 498 45.3369 436.689 -8 320 -8 c 257
 320 135 l 257
 372.527 135 374 170.963 374 188 c 256
 374 204.457 372.626 238.572 325.191 240.877 c 258
 291 241 l 257
 291 350 l 258
 291 468.007 327.062 564 471 564 c 257
 471 421 l 257
 428.201 421 429.389 380.318 429.787 350.92 c 256
 429.818 348.62 429.844 346.388 429.844 344.25 c 257
265 -8 m 257
 125.704 -8 68.4199 81.7373 68.0791 198 c 258
 68.0791 254 l 258
 68.1367 268.984 70.3662 283.395 74.6035 297 c 257
 30 297 l 257
 30 415 l 257
 241 415 l 257
 241 445.826 229.426 461.951 198.15 461.951 c 256
 180.244 461.951 162.712 454.054 159 437.352 c 257
 60 463.352 l 257
 82.7783 532.349 142.161 563.617 200.772 563.617 c 256
 272.971 563.617 344 516.171 344 433.352 c 258
 344 297 l 257
 265 297 l 258
 212.888 297 209 263.607 209 243 c 258
 209 199 l 258
 209 174.577 212.888 135 265 135 c 257
 265 -8 l 257
EndSplineSet
Ligature2: "si_blws_3 subtable" si_Bha si_MatraUu
EndChar

StartChar: si_Bha
Encoding: 49 3511 30
GlifName: si_B_ha
Width: 754
VWidth: 0
GlyphClass: 2
Flags: W
HStem: -8 143<238.944 265 238.944 265 320 346.264 238.944 378.345 527 553.056> 400 12 421 143<449.601 471 527 553.056> 462 102
VStem: 68 141 291 14 374 124<105.668 196.228> 583 141
LayerCount: 2
Back
Fore
SplineSet
429.844 344.25 m 257
 462.504 338.728 497.972 304.767 497.85 216 c 258
 498 166 l 258
 498 45.3369 436.689 -8 320 -8 c 257
 320 135 l 257
 372.527 135 374 170.963 374 188 c 256
 374 204.457 372.626 238.572 325.191 240.877 c 258
 291 241 l 257
 291 350 l 258
 291 468.007 327.062 564 471 564 c 257
 471 421 l 257
 428.201 421 429.389 380.318 429.787 350.92 c 256
 429.818 348.62 429.844 346.388 429.844 344.25 c 257
527 -8 m 257
 527 135 l 257
 579.112 135 583 173.959 583 198 c 258
 583 353 l 258
 583 380.857 579.112 421 527 421 c 257
 527 564 l 257
 666.296 564 723.921 475.263 723.921 353 c 258
 723.921 198 l 258
 723.58 81.7373 666.296 -8 527 -8 c 257
265 -8 m 257
 125.704 -8 68.4199 81.7373 68.0791 198 c 258
 68.0791 254 l 258
 68.1364 268.984 70.3663 283.395 74.6032 297 c 257
 30 297 l 257
 30 415 l 257
 241 415 l 257
 241 445.826 229.426 461.951 198.15 461.951 c 256
 180.244 461.951 162.712 454.054 159 437.352 c 257
 60 463.352 l 257
 82.7783 532.349 142.161 563.617 200.772 563.617 c 256
 272.971 563.617 344 516.171 344 433.352 c 258
 344 297 l 257
 265 297 l 258
 212.888 297 209 263.607 209 243 c 258
 209 199 l 258
 209 174.577 212.888 135 265 135 c 257
 265 -8 l 257
EndSplineSet
PickledDataWithLists: "(dp1
S'com.fontlab.hintData'
p2
(dp3
S'vhints'
p4
(lp5
(dp6
S'position'
p7
I68
sS'width'
p8
I141
sa(dp9
g7
I291
sg8
I14
sa(dp10
g7
I374
sg8
I124
sa(dp11
g7
I583
sg8
I141
sasS'hhints'
p12
(lp13
(dp14
g7
I-8
sg8
I143
sa(dp15
g7
I400
sg8
I12
sa(dp16
g7
I421
sg8
I143
sa(dp17
g7
I462
sg8
I102
sass."
EndChar

StartChar: si_C.halant
Encoding: 136 -1 33
GlifName: si_C_.halant
Width: 601
VWidth: 0
GlyphClass: 3
Flags: W
LayerCount: 2
Back
Fore
SplineSet
30 252 m 257
 30 354 l 257
 247 354 l 257
 247 360 l 257
 247.053 389.333 225.721 400 205 400 c 256
 195.147 400 169.971 397 165 376 c 257
 66 402 l 257
 92.4043 489.737 168.592 503 205 503 c 256
 248.907 503 293.606 486.114 317 459 c 256
 340.371 431.912 350 406 350 350 c 258
 350 252 l 257
 266 252 l 258
 228.72 252 207.981 224.45 207.981 196.088 c 256
 207.981 166.001 231.318 135 283 135 c 257
 283 -5 l 257
 155.558 -5 69 87.2324 69 192 c 256
 69 212.029 69.5166 232.24 80.3096 252 c 257
 30 252 l 257
89.333 522 m 257
 89.333 652 l 257
 123.139 652 l 258
 109.304 655.164 95.0303 679.233 95.0303 707.438 c 256
 95.0303 776.564 163.127 814.373 263.675 818.602 c 256
 269.991 818.867 276.436 819 283 819 c 257
 283 703 l 257
 260 703 l 258
 231.062 703 224.742 688.847 224.742 676.362 c 256
 224.742 661.503 238.065 652 260 652 c 258
 339 652 l 257
 339 522 l 257
 89.333 522 l 257
339.333 -5 m 257
 339.333 135 l 257
 420.333 135 430.333 183.181 430.333 255 c 258
 430.333 455 l 258
 430.333 513.936 388.736 522 339 522 c 257
 339 652 l 257
 498.638 652 570.333 589.89 570.333 474 c 258
 570.333 238 l 258
 570.333 138.591 535.333 -5 339.333 -5 c 257
338.5 703 m 257
 338.5 819 l 257
 384 819 l 258
 532.359 819 557.333 756 557.333 673 c 257
 422 673 l 257
 422 700 397.333 703 352 703 c 258
 338.5 703 l 257
EndSplineSet
Ligature2: "si_halant_1 subtable" si_Ca si_Halant
EndChar

StartChar: si_CI
Encoding: 137 -1 34
GlifName: si_C_I_
Width: 601
VWidth: 0
GlyphClass: 3
Flags: W
LayerCount: 2
Back
Fore
SplineSet
30 252 m 257
 30 354 l 257
 247 354 l 257
 247 360 l 257
 247.053 389.333 225.721 400 205 400 c 256
 195.147 400 169.971 397 165 376 c 257
 66 402 l 257
 92.4043 489.737 168.592 503 205 503 c 256
 248.907 503 293.606 486.114 317 459 c 256
 340.371 431.912 350 406 350 350 c 258
 350 252 l 257
 266 252 l 258
 228.72 252 207.981 224.45 207.981 196.088 c 256
 207.981 166.001 231.318 135 283 135 c 257
 283 -5 l 257
 155.558 -5 69 87.2324 69 192 c 256
 69 212.029 70.5166 233.24 80.3096 252 c 257
 30 252 l 257
246 522 m 257
 127.875 522 68.625 576.407 68.625 670.735 c 256
 68.625 744.907 127.625 819 246 819 c 257
 283 819 l 257
 283 703 l 257
 225 703 l 257
 204.5 703 194.25 690.25 194.25 677.5 c 256
 194.25 664.75 204.5 652 225 652 c 257
 225 652 339 652 339 652 c 257
 339 522 l 257
 246 522 l 257
339.333 -5 m 257
 339.333 135 l 257
 422.333 135 430.333 185.885 430.333 258 c 258
 430.333 455 l 258
 430.333 513.935 388.736 522 339 522 c 257
 339 652 l 257
 498.638 652 570.333 589.889 570.333 474 c 258
 570.333 238 l 258
 570.333 138.591 535.333 -5 339.333 -5 c 257
338.5 703 m 257
 338.5 819 l 257
 384 819 l 258
 512.359 819 557.333 756 557.333 673 c 257
 422 673 l 257
 422 700 397.333 703 352 703 c 258
 338.5 703 l 257
EndSplineSet
Ligature2: "si_abvs_1 subtable" si_Ca si_MatraI
EndChar

StartChar: si_CIi
Encoding: 138 -1 35
GlifName: si_C_I_i
Width: 601
VWidth: 0
GlyphClass: 3
Flags: W
LayerCount: 2
Back
Fore
SplineSet
283 -5 m 257
 155.558 -5 69 87.2324 69 192 c 256
 69 212.028 70.5166 233.24 80.3096 252 c 257
 30 252 l 257
 30 354 l 257
 247 354 l 257
 247 389.333 225.721 400 205 400 c 256
 195.146 400 169.972 397 165 376 c 257
 66 402 l 257
 92.4043 489.737 168.592 503 205 503 c 256
 248.907 503 293.606 486.113 317 459 c 256
 340.371 431.912 350 406 350 350 c 258
 350 252 l 257
 266 252 l 258
 228.72 252 207.981 224.45 207.981 196.088 c 256
 207.981 166.001 231.317 135 283 135 c 257
 283 -5 l 257
246 522 m 258
 127.849 522 68.6249 596.374 68.6249 670.686 c 256
 68.6249 744.874 127.651 819 246 819 c 258
 283 819 l 257
 283 703 l 257
 235 703 l 258
 210.558 703 198.36 688.518 198.36 674.028 c 256
 198.36 659.518 210.589 645 235 645 c 258
 235 645 339 645 339 645 c 257
 339 522 l 257
 246 522 l 258
339.5 -5 m 257
 339.5 135 l 257
 416.753 135 430.333 180.362 430.333 244 c 258
 430.333 455 l 258
 430.333 513.936 388.736 522 339 522 c 257
 339 645 l 257
 351.033 645 372.331 644.92 383.602 644.92 c 256
 516.463 644.931 570.333 596.457 570.333 474 c 258
 570.333 238 l 258
 570.333 138.591 535.782 -5 339.5 -5 c 257
466 603 m 256
 418.286 603 374.352 651.444 374.352 689.821 c 256
 374.352 694.39 374.974 698.815 376.287 703 c 257
 366 703 l 257
 339 703 l 257
 339 819 l 257
 466 819 l 258
 526 819 574 771 574 711 c 256
 574 651 526 603 466 603 c 256
EndSplineSet
Ligature2: "si_abvs_2 subtable" si_Ca si_MatraIi
EndChar

StartChar: si_Ca
Encoding: 27 3488 42
GlifName: si_C_a
Width: 604
VWidth: 0
GlyphClass: 2
Flags: W
HStem: -5 145 252 102<30 80.3096 30 247 30 266 30 350> 400 103<200.073 215.361> 616 138
VStem: 69 138 247 103<252 360 252 360> 434 140<250 498 498 520>
LayerCount: 2
Back
Fore
SplineSet
283 -5 m 257
 155.558 -5 69 87.2324 69 192 c 256
 69 212.029 70.5162 233.24 80.3096 252 c 257
 30 252 l 257
 30 354 l 257
 247 354 l 257
 247 360 l 257
 247.053 389.333 225.721 400 205 400 c 256
 195.147 400 169.971 397 165 376 c 257
 66 402 l 257
 92.4043 489.737 168.592 503 205 503 c 256
 248.907 503 293.606 486.114 317 459 c 256
 340.371 431.912 350 406 350 350 c 258
 350 252 l 257
 266 252 l 258
 228.72 252 207.981 224.45 207.981 196.088 c 256
 207.981 166.001 231.318 135 283 135 c 257
 283 -5 l 257
339 -5 m 257
 339 135 l 257
 381.411 135 434 149.137 434 250 c 258
 434 498 l 258
 434 577 417.252 616 339 616 c 257
 339 755 l 257
 473.273 755 574 699.969 574 520 c 258
 574 250 l 258
 574 78.4932 493.968 -4.83398 339 -5 c 257
203.333 530 m 257
 66.333 566 l 257
 66.333 672.126 176.46 755 283 755 c 257
 283 616.5 l 257
 242.591 616.5 203.333 595.735 203.333 530 c 257
EndSplineSet
PickledDataWithLists: "(dp1
S'com.fontlab.hintData'
p2
(dp3
S'vhints'
p4
(lp5
(dp6
S'position'
p7
I69
sS'width'
p8
I138
sa(dp9
g7
I247
sg8
I103
sa(dp10
g7
I434
sg8
I140
sasS'hhints'
p11
(lp12
(dp13
g7
I-5
sg8
I145
sa(dp14
g7
I252
sg8
I102
sa(dp15
g7
I400
sg8
I103
sa(dp16
g7
I616
sg8
I138
sass."
EndChar

StartChar: si_Ch.halant
Encoding: 146 -1 45
GlifName: si_C_h.halant
Width: 655
VWidth: 0
GlyphClass: 3
Flags: W
LayerCount: 2
Back
Fore
SplineSet
315.001 529 m 257
 315.001 819 l 257
 446.001 819 l 257
 446.001 696 l 257
 322.685 529 l 257
 315.001 529 l 257
EndSplineSet
Refer: 50 3489 N 1 0 0 1 0 0 2
Ligature2: "si_halant_1 subtable" si_Cha si_Halant
EndChar

StartChar: si_ChI
Encoding: 147 -1 46
GlifName: si_C_hI_
Width: 655
VWidth: 0
GlyphClass: 3
Flags: W
LayerCount: 2
Back
Fore
SplineSet
298.107 580.1 m 257
 281.463 592.903 l 257
 225.765 635.396 222.041 711.235 267.435 770.239 c 257
 289 799 l 257
 334.394 858.003 408.65 873.851 464.005 830.908 c 257
 480.648 818.104 l 257
 421.197 740.826 l 257
 390.22 764.657 371.838 745.545 358.961 730.037 c 257
 352.029 720.301 l 257
 340.342 703.877 326.581 681.208 357.559 657.377 c 257
 298.107 580.1 l 257
EndSplineSet
Refer: 50 3489 N 1 0 0 1 0 0 2
Ligature2: "si_abvs_1 subtable" si_Cha si_MatraI
EndChar

StartChar: si_ChIi
Encoding: 148 -1 47
GlifName: si_C_hI_i
Width: 655
VWidth: 0
GlyphClass: 3
Flags: W
LayerCount: 2
Back
Fore
SplineSet
310.498 590.985 m 257
 299.247 599.581 l 258
 243.578 642.112 227.363 703.3 272 762 c 258
 344.44 856.128 l 258
 373.678 894.119 429.193 902.885 468.447 873.064 c 256
 504.731 846.447 512.465 796.127 485.849 759.843 c 256
 464.682 730.988 415.897 725.909 392.688 742.935 c 256
 390.074 744.852 387.786 747.05 385.897 749.524 c 257
 369.036 727.402 l 258
 357.43 712.175 338.355 692.265 369.478 668.623 c 257
 310.498 590.985 l 257
EndSplineSet
Refer: 50 3489 N 1 0 0 1 0 0 2
Ligature2: "si_abvs_2 subtable" si_Cha si_MatraIi
EndChar

StartChar: si_ChU
Encoding: 149 -1 48
GlifName: si_C_hU_
Width: 655
VWidth: 0
GlyphClass: 3
Flags: W
LayerCount: 2
Back
Fore
SplineSet
50 -65 m 257
 286 -65 l 257
 286 -205 l 257
 50 -205 l 257
 50 -65 l 257
342 -65 m 257
 448 -65 l 257
 448 -205 l 257
 342 -205 l 257
 342 -65 l 257
438 131 m 257
 578 131 l 257
 578 -205 l 257
 438 -205 l 257
 438 131 l 257
EndSplineSet
Refer: 50 3489 N 1 0 0 1 0 0 2
Ligature2: "si_blws_1 subtable" si_Cha si_MatraU
EndChar

StartChar: si_ChUu
Encoding: 150 -1 49
GlifName: si_C_hU_u
Width: 655
VWidth: 0
GlyphClass: 3
Flags: W
LayerCount: 2
Back
Fore
SplineSet
50 -34 m 257
 90.4791 -59.333 126.005 -67.7773 158.741 -67.7773 c 256
 204.603 -67.7773 242.648 -34 285 -34 c 257
 285 -174 l 257
 242.648 -174 204.603 -204.777 158.741 -204.777 c 256
 126.005 -204.777 90.4791 -197.083 50 -174 c 257
 50 -34 l 257
343 -34 m 257
 366.071 -34 406.987 -39.9221 438 -61 c 257
 438 -205 l 257
 402.858 -180.252 371.5 -174 343 -174 c 257
 343 -34 l 257
438 131 m 257
 578 131 l 257
 578 -205 l 257
 438 -205 l 257
 438 131 l 257
EndSplineSet
Refer: 50 3489 N 1 0 0 1 0 0 2
Ligature2: "si_blws_3 subtable" si_Cha si_MatraUu
EndChar

StartChar: si_Cha
Encoding: 28 3489 50
GlifName: si_C_ha
Width: 655
VWidth: 0
GlyphClass: 2
Flags: W
HStem: -12 135<278 289 289 342> 451 124
VStem: 34 140<175.4 202 175.4 202> 250 136<283 448 283 421.946>
LayerCount: 2
Back
Fore
SplineSet
289 -12 m 258
 112 -12 34 59.2461 34 202 c 257
 174 202 l 257
 174 148.801 215 123 278 123 c 258
 350 123 l 258
 415 123 454 151 454 202 c 257
 454 236 l 257
 417 235 l 258
 315 235 250 310 250 402 c 256
 250 494 325 569 418 569 c 256
 510 569 585 494 585 402 c 256
 461 402 l 256
 461 425.143 442.143 444 419 444 c 256
 395.857 444 377 425.143 377 402 c 256
 377 378.857 395.857 360 419 360 c 256
 434.094 360 447.706 360 496 360 c 257
 574.321 360 594 316.097 594 262 c 257
 594 202 l 257
 594 64 511 -12 342 -12 c 258
 289 -12 l 258
35 251 m 257
 35 373 101 402 198 402 c 258
 250 402 l 257
 250 441.891 210.331 451 195 451 c 256
 167.217 451 152.416 436 148 421 c 257
 30 460 l 257
 54.046 536.591 121.808 574.548 193.252 574.548 c 256
 250.006 574.548 298.193 557.298 332.192 512.23 c 256
 366.19 467.161 386 394.274 386 283 c 257
 209 283 l 258
 176.097 283 174.001 262.104 174 251 c 257
 35 251 l 257
438 470 m 257
 304 522 l 257
 509.721 793 l 257
 655 755 l 257
 438 470 l 257
EndSplineSet
PickledDataWithLists: "(dp1
S'com.fontlab.hintData'
p2
(dp3
S'vhints'
p4
(lp5
(dp6
S'position'
p7
I34
sS'width'
p8
I140
sa(dp9
g7
I250
sg8
I136
sasS'hhints'
p10
(lp11
(dp12
g7
I-12
sg8
I135
sa(dp13
g7
I451
sg8
I124
sass."
EndChar

StartChar: si_DDdh.halant
Encoding: 510 -1 53
GlifName: si_D_D_dh.halant
Width: 785
VWidth: 0
GlyphClass: 2
Flags: W
LayerCount: 2
Back
Fore
SplineSet
30 200 m 258
 30 240 l 258
 30 335 60.9932 474.245 265.051 474.245 c 258
 441 474 l 257
 441 336 l 257
 224 336 l 258
 174.46 336 166 283 166 244 c 258
 166 170 l 258
 166 114.504 170.649 74.2246 223 12 c 257
 93.0391 -28 l 257
 33.3975 49.1836 30 109.444 30 200 c 258
EndSplineSet
Refer: 95 -1 N 1 0 0 1 192 0 2
EndChar

StartChar: si_DDhI
Encoding: 511 -1 54
GlifName: si_D_D_hI_
Width: 785
VWidth: 0
GlyphClass: 3
Flags: W
LayerCount: 2
Back
Fore
SplineSet
30 200 m 258
 30 240 l 258
 30 335 60.9932 474.245 265.051 474.245 c 258
 441 474 l 257
 441 336 l 257
 224 336 l 258
 174.46 336 166 283 166 244 c 258
 166 170 l 258
 166 114.504 170.649 74.2246 223 12 c 257
 93.0391 -28 l 257
 33.3975 49.1836 30 109.444 30 200 c 258
EndSplineSet
Refer: 96 -1 N 1 0 0 1 192 0 2
Ligature2: "si_abvs_5 subtable" si_DDha si_MatraI
EndChar

StartChar: si_DDhIi
Encoding: 512 -1 55
GlifName: si_D_D_hI_i
Width: 789
VWidth: 0
GlyphClass: 3
Flags: W
LayerCount: 2
Back
Fore
SplineSet
30 200 m 258
 30 240 l 258
 30 335 60.9932 474.245 265.051 474.245 c 258
 441 474 l 257
 441 336 l 257
 224 336 l 258
 174.46 336 166 283 166 244 c 258
 166 170 l 258
 166 114.504 170.649 74.2246 223 12 c 257
 93.0391 -28 l 257
 33.3975 49.1836 30 109.444 30 200 c 258
EndSplineSet
Refer: 97 -1 N 1 0 0 1 192 0 2
Ligature2: "si_abvs_6 subtable" si_DDha si_MatraIi
EndChar

StartChar: si_DDhU
Encoding: 513 -1 56
GlifName: si_D_D_hU_
Width: 785
VWidth: 0
GlyphClass: 3
Flags: W
LayerCount: 2
Back
Fore
SplineSet
30 200 m 258
 30 240 l 258
 30 335 60.9932 474.245 265.051 474.245 c 258
 441 474 l 257
 441 336 l 257
 224 336 l 258
 174.46 336 166 283 166 244 c 258
 166 170 l 258
 166 114.504 170.649 74.2246 223 12 c 257
 93.0391 -28 l 257
 33.3975 49.1836 30 109.444 30 200 c 258
EndSplineSet
Refer: 102 -1 N 1 0 0 1 192 0 2
Ligature2: "si_blws_2 subtable" si_DDha si_MatraU
EndChar

StartChar: si_DDhUu
Encoding: 514 -1 57
GlifName: si_D_D_hU_u
Width: 785
VWidth: 0
GlyphClass: 3
Flags: W
LayerCount: 2
Back
Fore
SplineSet
30 200 m 258
 30 240 l 258
 30 335 60.9932 474.245 265.051 474.245 c 258
 441 474 l 257
 441 336 l 257
 224 336 l 258
 174.46 336 166 283 166 244 c 258
 166 170 l 258
 166 114.504 170.649 74.2246 223 12 c 257
 93.0391 -28 l 257
 33.3975 49.1836 30 109.444 30 200 c 258
EndSplineSet
Refer: 103 -1 N 1 0 0 1 192 0 2
Ligature2: "si_blws_4 subtable" si_DDha si_MatraUu
EndChar

StartChar: si_DDha
Encoding: 460 -1 58
GlifName: si_D_D_ha
Width: 785
VWidth: 0
GlyphClass: 3
Flags: W
LayerCount: 2
Back
Fore
SplineSet
30 200 m 258
 30 240 l 258
 30 335 60.9932 474.245 265.051 474.245 c 258
 441 474 l 257
 441 336 l 257
 224 336 l 258
 174.46 336 166 283 166 244 c 258
 166 170 l 258
 166 114.504 170.649 74.2246 223 12 c 257
 93.0391 -28 l 257
 33.3975 49.1836 30 109.444 30 200 c 258
EndSplineSet
Refer: 104 3504 N 1 0 0 1 192 0 2
Ligature2: "si_akhands subtable" si_Da si_Halant si_Dha
EndChar

StartChar: si_DI
Encoding: 267 -1 59
GlifName: si_D_I_
Width: 552
VWidth: 0
GlyphClass: 3
Flags: W
LayerCount: 2
Back
Fore
SplineSet
30 602 m 257
 30 630 l 257
 30 724 106.741 789 206 789 c 257
 297 789 l 257
 396.259 789 473 724 473 630 c 257
 473 602 l 257
 343 602 l 257
 343 654.112 307.857 658 281 659 c 257
 222 659 l 257
 195.143 658 160 654.112 160 602 c 257
 30 602 l 257
EndSplineSet
Refer: 73 3503 N 1 0 0 1 0 0 2
Ligature2: "si_abvs_1 subtable" si_Da si_MatraI
EndChar

StartChar: si_DIi
Encoding: 268 -1 60
GlifName: si_D_I_i
Width: 552
VWidth: 0
GlyphClass: 3
Flags: W
HStem: 462 119 659 130<208.572 222 222 275>
VStem: 472 118
LayerCount: 2
Back
Fore
SplineSet
353 553 m 256
 288 553 235 606 235 671 c 256
 235 736 288 789 353 789 c 256
 418 789 471 736 471 671 c 256
 471 606 418 553 353 553 c 256
30 602 m 257
 30 630 l 258
 30 723.409 106.747 789 206 789 c 258
 353 789 l 258
 416.976 789 471 736.729 471 671 c 257
 317 622 l 257
 317 657.112 301.857 659 275 659 c 258
 222 659 l 258
 195.143 659 160 654.112 160 602 c 257
 30 602 l 257
EndSplineSet
Refer: 73 3503 N 1 0 0 1 0 0 2
PickledDataWithLists: "(dp1
S'com.fontlab.hintData'
p2
(dp3
S'vhints'
p4
(lp5
(dp6
S'position'
p7
I472
sS'width'
p8
I118
sasS'hhints'
p9
(lp10
(dp11
g7
I462
sg8
I119
sa(dp12
g7
I659
sg8
I130
sass."
Ligature2: "si_abvs_2 subtable" si_Da si_MatraIi
EndChar

StartChar: si_DRI
Encoding: 277 -1 62
GlifName: si_D_R_I_
Width: 517
VWidth: 0
GlyphClass: 3
Flags: W
LayerCount: 2
Back
Fore
SplineSet
30 602 m 257
 30 630 l 257
 30 724 106.741 789 206 789 c 257
 297 789 l 257
 396.259 789 473 724 473 630 c 257
 473 602 l 257
 343 602 l 257
 343 654.112 307.857 658 281 659 c 257
 222 659 l 257
 195.143 658 160 654.112 160 602 c 257
 30 602 l 257
EndSplineSet
Refer: 64 -1 N 1 0 0 1 0 0 2
Ligature2: "si_abvs_3 subtable" si_DRa si_MatraI
EndChar

StartChar: si_DRIi
Encoding: 278 -1 63
GlifName: si_D_R_I_i
Width: 517
VWidth: 0
GlyphClass: 3
Flags: W
LayerCount: 2
Back
Fore
SplineSet
353 553 m 256
 288 553 235 606 235 671 c 256
 235 736 288 789 353 789 c 256
 418 789 471 736 471 671 c 256
 471 606 418 553 353 553 c 256
30 602 m 257
 30 630 l 258
 30 723.409 106.747 789 206 789 c 258
 353 789 l 258
 416.976 789 471 736.729 471 671 c 257
 317 622 l 257
 317 657.112 301.857 659 275 659 c 258
 222 659 l 258
 195.143 659 160 654.112 160 602 c 257
 30 602 l 257
EndSplineSet
Refer: 64 -1 N 1 0 0 1 0 0 2
Ligature2: "si_abvs_4 subtable" si_DRa si_MatraIi
EndChar

StartChar: si_DRa
Encoding: 276 -1 64
GlifName: si_D_R_a
Width: 517
VWidth: 0
GlyphClass: 3
Flags: W
LayerCount: 2
Back
Fore
SplineSet
32 198 m 256
 32 334.29 125.044 402 258 402 c 258
 315 402 l 257
 315 440.006 280.758 457.103 246.296 457.103 c 256
 215.977 457.103 185.488 443.869 178 420 c 257
 60 459 l 257
 80.9297 538.607 160.18 578.155 241.294 578.155 c 256
 341.233 578.155 444 518.119 444 399 c 258
 444 263 l 257
 258 263 l 258
 219 263 175 257.19 175 198 c 256
 175 146 222 136 259 136 c 258
 276 136 l 258
 308.728 136 338 140 351 172 c 257
 487 172 l 257
 459 62 378.826 0 286 0 c 258
 259 0 l 258
 139 0 32 59.3916 32 198 c 256
288 -101 m 257
 332.222 -101 349 -67.0566 349 -19 c 258
 349 55 l 257
 487 172 l 257
 487 2 l 258
 487 -139.824 433.29 -234 288 -234 c 257
 288 -101 l 257
232.333 -234.038 m 257
 129.333 -234.091 30.333 -170.326 30.333 -75.0908 c 258
 30.333 -47.0908 l 257
 160.333 -47.0908 l 257
 160.333 -78.3965 191.333 -101.091 232.333 -101 c 257
 232.333 -234.038 l 257
EndSplineSet
Ligature2: "si_rakaar subtable" si_Da si_Halant si_Ra
EndChar

StartChar: si_DU
Encoding: 269 -1 65
GlifName: si_D_U_
Width: 488
VWidth: 0
GlyphClass: 3
Flags: W
HStem: -197 140
VStem: 30 172
LayerCount: 2
Back
Fore
SplineSet
318 -205 m 257
 318 136 l 257
 458 136 l 257
 458 -205 l 257
 318 -205 l 257
40 -205 m 257
 40 -65 l 257
 262 -65 l 257
 262 -205 l 257
 40 -205 l 257
257 0 m 258
 137 0 30 59.3916 30 198 c 256
 30 337.017 125.045 402 256 402 c 258
 313 402 l 257
 313 439.367 278.239 457.175 243.43 457.175 c 256
 213.982 457.175 184.5 444.43 176 420 c 257
 58 459 l 257
 79.418 539.204 157.76 577.97 238.147 577.97 c 256
 338.48 577.97 442 517.58 442 402 c 258
 442 263 l 257
 256 263 l 258
 217 263 173 257.19 173 198 c 257
 173 146 220 136 257 136 c 258
 262 136 l 257
 262 0 l 257
 257 0 l 258
EndSplineSet
PickledDataWithLists: "(dp1
S'com.fontlab.hintData'
p2
(dp3
S'vhints'
p4
(lp5
(dp6
S'position'
p7
I30
sS'width'
p8
I172
sasS'hhints'
p9
(lp10
(dp11
g7
I-197
sg8
I140
sass."
Ligature2: "si_blws_1 subtable" si_Da si_MatraU
EndChar

StartChar: si_DUu
Encoding: 270 -1 66
GlifName: si_D_U_u
Width: 488
VWidth: 0
GlyphClass: 3
Flags: W
HStem: -205 23 -65 23 0 136<197 262 257 262> 263 139<236.5 313 256 313 256 442> 457 121
VStem: 30 143<172 227.595 172 267.509> 45 142 313 140
LayerCount: 2
Back
Fore
SplineSet
257 0 m 257
 137 0 30 59.3916 30 198 c 256
 30 337.017 125.045 402 256 402 c 258
 313 402 l 257
 313 439.367 278.239 457.175 243.43 457.175 c 256
 213.982 457.175 184.5 444.43 176 420 c 257
 58 459 l 257
 79.418 539.204 157.76 577.97 238.147 577.97 c 256
 338.48 577.97 442 517.58 442 402 c 258
 442 263 l 257
 256 263 l 258
 217 263 173 257.19 173 198 c 256
 173 146 220 136 257 136 c 257
 262 136 l 257
 262 0 l 257
 257 0 l 257
318 -205 m 257
 318 136 l 257
 458 136 l 257
 458 -205 l 257
 318 -205 l 257
262 -205 m 257
 236.106 -186.639 222 -182 201 -182 c 256
 161.667 -182 153.334 -204.777 110.741 -204.777 c 256
 89.4443 -204.777 66.334 -198.333 40 -179 c 257
 40 -39 l 257
 66.334 -58.333 89.4443 -64.7773 110.741 -64.7773 c 256
 153.334 -64.7773 161.667 -42 201 -42 c 256
 218 -42 239.148 -46.167 262 -61 c 257
 262 -205 l 257
EndSplineSet
PickledDataWithLists: "(dp1
S'com.fontlab.hintData'
p2
(dp3
S'vhints'
p4
(lp5
(dp6
S'position'
p7
I30
sS'width'
p8
I143
sa(dp9
g7
I45
sg8
I142
sa(dp10
g7
I313
sg8
I140
sasS'hhints'
p11
(lp12
(dp13
g7
I-205
sg8
I23
sa(dp14
g7
I-65
sg8
I23
sa(dp15
g7
I0
sg8
I136
sa(dp16
g7
I263
sg8
I139
sa(dp17
g7
I457
sg8
I121
sass."
Ligature2: "si_blws_3 subtable" si_Da si_MatraUu
EndChar

StartChar: si_DV.halant
Encoding: 515 -1 67
GlifName: si_D_V_.halant
Width: 755
VWidth: 0
GlyphClass: 2
Flags: W
LayerCount: 2
Back
Fore
SplineSet
93.0391 -28 m 257
 44.3975 41.1836 30 78.4443 30 169 c 258
 30 289 l 258
 30 422.903 108.927 495.749 214.144 495.749 c 256
 247.06 495.749 282.549 488.62 319 474 c 257
 319 375 l 257
 267.888 388.814 254.696 390.472 242.748 390.472 c 256
 194.831 390.472 166 360.238 166 289 c 258
 166 169 l 258
 166 88.4355 179.558 66.5967 223 12 c 257
 93.0391 -28 l 257
EndSplineSet
Refer: 506 -1 N 1 0 0 1 190 0 2
EndChar

StartChar: si_DVI
Encoding: 516 -1 68
GlifName: si_D_V_I_
Width: 755
VWidth: 0
GlyphClass: 3
Flags: W
LayerCount: 2
Back
Fore
SplineSet
93.0391 -28 m 257
 44.3975 41.1836 30 78.4443 30 169 c 258
 30 289 l 258
 30 422.903 108.927 495.749 214.144 495.749 c 256
 247.06 495.749 282.549 488.62 319 474 c 257
 319 375 l 257
 267.888 388.814 254.696 390.472 242.748 390.472 c 256
 194.831 390.472 166 360.238 166 289 c 258
 166 169 l 258
 166 88.4355 179.558 66.5967 223 12 c 257
 93.0391 -28 l 257
EndSplineSet
Refer: 507 -1 N 1 0 0 1 190 0 2
Ligature2: "si_abvs_5 subtable" si_DVa si_MatraI
EndChar

StartChar: si_DVIi
Encoding: 517 -1 69
GlifName: si_D_V_I_i
Width: 758
VWidth: 0
GlyphClass: 3
Flags: W
LayerCount: 2
Back
Fore
SplineSet
93.0391 -28 m 257
 44.3975 41.1836 30 78.4443 30 169 c 258
 30 289 l 258
 30 422.903 108.927 495.749 214.144 495.749 c 256
 247.06 495.749 282.549 488.62 319 474 c 257
 319 375 l 257
 267.888 388.814 254.696 390.472 242.748 390.472 c 256
 194.831 390.472 166 360.238 166 289 c 258
 166 169 l 258
 166 88.4355 179.558 66.5967 223 12 c 257
 93.0391 -28 l 257
EndSplineSet
Refer: 508 -1 N 1 0 0 1 190 0 2
Ligature2: "si_abvs_6 subtable" si_DVa si_MatraIi
EndChar

StartChar: si_DVU
Encoding: 518 -1 70
GlifName: si_D_V_U_
Width: 758
VWidth: 0
GlyphClass: 3
Flags: W
LayerCount: 2
Back
Fore
SplineSet
93.0391 -28 m 257
 44.3975 41.1836 30 78.4443 30 169 c 258
 30 289 l 258
 30 422.903 108.927 495.749 214.144 495.749 c 256
 247.06 495.749 282.549 488.62 319 474 c 257
 319 375 l 257
 267.888 388.814 254.696 390.472 242.748 390.472 c 256
 194.831 390.472 166 360.238 166 289 c 258
 166 169 l 258
 166 88.4355 179.558 66.5967 223 12 c 257
 93.0391 -28 l 257
EndSplineSet
Refer: 513 -1 N 1 0 0 1 190 0 2
Ligature2: "si_blws_2 subtable" si_DVa si_MatraU
EndChar

StartChar: si_DVUu
Encoding: 519 -1 71
GlifName: si_D_V_U_u
Width: 758
VWidth: 0
GlyphClass: 3
Flags: W
LayerCount: 2
Back
Fore
SplineSet
93.0391 -28 m 257
 44.3975 41.1836 30 78.4443 30 169 c 258
 30 289 l 258
 30 422.903 108.927 495.749 214.144 495.749 c 256
 247.06 495.749 282.549 488.62 319 474 c 257
 319 375 l 257
 267.888 388.814 254.696 390.472 242.748 390.472 c 256
 194.831 390.472 166 360.238 166 289 c 258
 166 169 l 258
 166 88.4355 179.558 66.5967 223 12 c 257
 93.0391 -28 l 257
EndSplineSet
Refer: 514 -1 N 1 0 0 1 190 0 2
Ligature2: "si_blws_4 subtable" si_DVa si_MatraUu
EndChar

StartChar: si_DVa
Encoding: 461 -1 72
GlifName: si_D_V_a
Width: 758
VWidth: 0
GlyphClass: 3
Flags: W
HStem: -5 140 399 102 616 138
VStem: 33 138 398 140
LayerCount: 2
Back
Fore
SplineSet
93.0391 -28 m 257
 44.3975 41.1836 30 78.4443 30 169 c 258
 30 289 l 258
 30 422.903 108.927 495.749 214.144 495.749 c 256
 247.06 495.749 282.549 488.62 319 474 c 257
 319 375 l 257
 267.888 388.814 254.696 390.472 242.748 390.472 c 256
 194.831 390.472 166 360.238 166 289 c 258
 166 169 l 258
 166 88.4355 179.558 66.5967 223 12 c 257
 93.0391 -28 l 257
EndSplineSet
Refer: 515 3520 N 1 0 0 1 190 0 2
PickledDataWithLists: "(dp1
S'com.fontlab.hintData'
p2
(dp3
S'vhints'
p4
(lp5
(dp6
S'position'
p7
I33
sS'width'
p8
I138
sa(dp9
g7
I398
sg8
I140
sasS'hhints'
p10
(lp11
(dp12
g7
I-5
sg8
I140
sa(dp13
g7
I399
sg8
I102
sa(dp14
g7
I616
sg8
I138
sass."
Ligature2: "si_akhands subtable" si_Da si_Halant si_Va
EndChar

StartChar: si_Da
Encoding: 42 3503 73
GlifName: si_D_a
Width: 552
VWidth: 0
GlyphClass: 2
Flags: W
HStem: -204 126<354.644 379.345 354.644 421.751> 0 136<197 294 257 294> 263 135 454 121
VStem: 32 143
LayerCount: 2
Back
Fore
SplineSet
369 -204 m 256
 249.999 -204 183 -136.261 183 -45 c 257
 320 -45 l 257
 320 -61.149 340.289 -78 369 -78 c 256
 389.69 -78 413.828 -67.3714 419 -47 c 257
 552 -81 l 257
 530.12 -148.452 474.502 -204 369 -204 c 256
30 198 m 256
 30 334.29 123.044 402 256 402 c 258
 313 402 l 257
 313 440.006 278.758 457.103 244.296 457.103 c 256
 213.977 457.103 183.488 443.869 176 420 c 257
 58 459 l 257
 78.9301 538.607 158.18 578.155 239.294 578.155 c 256
 339.233 578.155 442 518.119 442 399 c 258
 442 263 l 257
 256 263 l 258
 217 263 173 257.19 173 198 c 256
 173 146 220 136 257 136 c 258
 294 136 l 258
 326.728 136 356 140 369 172 c 257
 497 138 l 257
 472 52 386.826 0.131836 294 0 c 258
 257 0 l 258
 137 0 30 59.3916 30 198 c 256
EndSplineSet
PickledDataWithLists: "(dp1
S'com.fontlab.hintData'
p2
(dp3
S'vhints'
p4
(lp5
(dp6
S'position'
p7
I32
sS'width'
p8
I143
sasS'hhints'
p9
(lp10
(dp11
g7
I-204
sg8
I126
sa(dp12
g7
I0
sg8
I136
sa(dp13
g7
I263
sg8
I135
sa(dp14
g7
I454
sg8
I121
sass."
EndChar

StartChar: si_Dd.halant
Encoding: 221 -1 76
GlifName: si_D_d.halant
Width: 632
VWidth: 0
GlyphClass: 3
Flags: W
LayerCount: 2
Back
Fore
SplineSet
251 -8 m 256
 145.768 -8 72 58 72 160 c 258
 72 219 l 257
 72 226 72 246 80 251 c 257
 30 251 l 257
 30 353 l 257
 281 353 l 257
 281 388.333 259.721 399 239 399 c 256
 229.146 399 203.972 396 199 375 c 257
 100 401 l 257
 126.404 488.737 202.592 502 239 502 c 256
 282.907 502 327.606 485.113 351 458 c 256
 374.371 430.912 384 404.667 384 349 c 258
 384 251 l 257
 242 251 l 257
 211.475 251 207 231 207 219 c 257
 207 166 l 258
 207 154 216 132 246 132 c 256
 276 132 284 152.875 284 166 c 258
 284 202 l 257
 384 202 l 257
 384 166 l 258
 384 152.875 392 132 422 132 c 256
 452 132 461 154 461 166 c 258
 461 202 l 257
 602 202 l 257
 602 160 l 258
 602 58 535.381 -8 443 -8 c 256
 409.151 -8 367.925 3.4668 339 35 c 257
 315.108 3.4668 278.959 -8 251 -8 c 256
81 522 m 257
 81 652 l 257
 128 652 l 257
 111.708 652 95.543 678.371 95.543 710.154 c 256
 95.543 758.353 132.718 819 263 819 c 258
 310.667 819 l 257
 310.667 703 l 257
 271.667 703 l 258
 242.729 703 236.409 688.847 236.409 676.362 c 256
 236.409 661.503 249.732 652 271.667 652 c 258
 370.667 652 l 257
 370.667 522 l 257
 81 522 l 257
461 202 m 257
 461 455 l 258
 461 513.936 420.403 522 370.667 522 c 257
 370.667 652 l 257
 530.305 652 602 590 602 474 c 258
 602 202 l 257
 461 202 l 257
453.667 673 m 257
 453.667 700 429 703 383.667 703 c 258
 366.167 703 l 257
 366.167 819 l 257
 415.667 819 l 258
 564.026 819 589 756 589 673 c 257
 453.667 673 l 257
EndSplineSet
Ligature2: "si_halant_1 subtable" si_Dda si_Halant
EndChar

StartChar: si_DdI
Encoding: 222 -1 77
GlifName: si_D_dI_
Width: 632
VWidth: 0
GlyphClass: 3
Flags: W
LayerCount: 2
Back
Fore
SplineSet
251 -8 m 256
 145.768 -8 72 58 72 160 c 258
 72 219 l 257
 72 226 72 246 80 251 c 257
 30 251 l 257
 30 353 l 257
 281 353 l 257
 281 386.103 263.519 399 239 399 c 256
 229.146 399 203.972 396 199 375 c 257
 100 401 l 257
 126.404 488.737 202.592 502 239 502 c 256
 332.835 502 384 449.128 384 349 c 258
 384 251 l 257
 242 251 l 257
 211.475 251 207 231 207 219 c 257
 207 166 l 258
 207 154 216 132 246 132 c 256
 276 132 284 152.875 284 166 c 258
 284 202 l 257
 384 202 l 257
 384 166 l 258
 384 152.875 392 132 422 132 c 256
 452 132 461 154 461 166 c 258
 461 202 l 257
 602 202 l 257
 602 160 l 258
 602 58 535.381 -8 443 -8 c 256
 409.151 -8 367.925 3.4668 339 35 c 257
 315.108 3.4668 278.959 -8 251 -8 c 256
257.667 512 m 257
 139.542 512 80.292 570.065 80.292 670.735 c 256
 80.292 744.907 139.292 819 257.667 819 c 257
 310.5 819 l 257
 310.5 703 l 257
 236.667 703 l 257
 216.167 703 205.917 690.25 205.917 677.5 c 256
 205.917 664.75 216.167 652 236.667 652 c 257
 370.667 652 l 257
 370.667 512 l 257
 257.667 512 l 257
461 202 m 257
 461 445 l 258
 461 504 420.403 512 370.667 512 c 257
 370.667 652 l 257
 530.305 652 602 590 602 474 c 258
 602 202 l 257
 461 202 l 257
456.667 673 m 257
 456.667 700 432 703 386.667 703 c 258
 366 703 l 257
 366 819 l 257
 418.667 819 l 258
 547.026 819 592 756 592 673 c 257
 456.667 673 l 257
EndSplineSet
Ligature2: "si_abvs_1 subtable" si_Dda si_MatraI
EndChar

StartChar: si_DdIi
Encoding: 223 -1 78
GlifName: si_D_dI_i
Width: 632
VWidth: 0
GlyphClass: 3
Flags: W
LayerCount: 2
Back
Fore
SplineSet
251 -8 m 256
 145.768 -8 72 58 72 160 c 258
 72 219 l 257
 72 226 72 246 80 251 c 257
 30 251 l 257
 30 353 l 257
 281 353 l 257
 281 386.103 263.519 399 239 399 c 256
 229.146 399 203.972 396 199 375 c 257
 100 401 l 257
 126.404 488.737 202.592 502 239 502 c 256
 331.688 502 384 451.489 384 349 c 258
 384 251 l 257
 242 251 l 257
 211.475 251 207 231 207 219 c 257
 207 166 l 258
 207 154 216 132 246 132 c 256
 276 132 284 152.875 284 166 c 258
 284 202 l 257
 384 202 l 257
 384 166 l 258
 384 152.875 392 132 422 132 c 256
 452 132 461 154 461 166 c 258
 461 202 l 257
 602 202 l 257
 602 160 l 258
 602 58 535.381 -8 443 -8 c 256
 409.151 -8 367.925 3.4668 339 35 c 257
 315.108 3.4668 278.959 -8 251 -8 c 256
247.667 512 m 257
 129.542 512 70.292 570.065 70.292 670.735 c 256
 70.292 744.907 129.292 819 247.667 819 c 257
 307.667 819 l 257
 307.667 703 l 257
 226.667 703 l 257
 206.167 703 195.917 690.25 195.917 677.5 c 256
 195.917 664.75 206.167 652 226.667 652 c 257
 370.667 652 l 257
 370.667 512 l 257
 247.667 512 l 257
497.667 603 m 256
 449.953 603 406.019 651.443 406.019 689.821 c 256
 406.019 694.39 406.642 698.815 407.954 703 c 257
 397.667 703 l 257
 368.667 703 l 257
 368.667 819 l 257
 497.667 819 l 258
 557.667 819 605.667 771 605.667 711 c 256
 605.667 651 557.667 603 497.667 603 c 256
461 202 m 257
 461 445 l 258
 461 504 420.403 512 370.667 512 c 257
 370.667 652 l 257
 530.305 652 602 590 602 474 c 258
 602 202 l 257
 461 202 l 257
EndSplineSet
Ligature2: "si_abvs_2 subtable" si_Dda si_MatraIi
EndChar

StartChar: si_DdR.halant
Encoding: 227 -1 79
GlifName: si_D_dR_.halant
Width: 632
VWidth: 0
GlyphClass: 2
Flags: W
LayerCount: 2
Back
Fore
SplineSet
366.115 -233.947 m 257
 366 -103 l 257
 454.74 -103 479.39 -67.9805 479.39 -38.7807 c 256
 479.39 -17.9028 466.788 -3.55271e-15 456 0 c 257
 589 89 l 257
 611.092 51.311 622.131 10.9717 622.131 -27.9808 c 256
 622.131 -136.329 536.723 -233.947 366.115 -233.947 c 257
311.115 -233.947 m 257
 177 -234 62.833 -167.027 62.833 -37.0908 c 257
 203.833 -37.0908 l 257
 203.833 -72.625 242.901 -103 311 -103 c 257
 311.115 -233.947 l 257
EndSplineSet
Refer: 76 -1 N 1 0 0 1 0 0 2
EndChar

StartChar: si_DdRI
Encoding: 229 -1 80
GlifName: si_D_dR_I_
Width: 632
VWidth: 0
GlyphClass: 3
Flags: W
LayerCount: 2
Back
Fore
SplineSet
366.115 -233.947 m 257
 366 -103 l 257
 454.74 -103 479.39 -67.9805 479.39 -38.7807 c 256
 479.39 -17.9028 466.788 -3.55271e-15 456 0 c 257
 589 89 l 257
 611.092 51.311 622.131 10.9717 622.131 -27.9808 c 256
 622.131 -136.329 536.723 -233.947 366.115 -233.947 c 257
311.115 -233.947 m 257
 177 -234 62.833 -167.027 62.833 -37.0908 c 257
 203.833 -37.0908 l 257
 203.833 -72.625 242.901 -103 311 -103 c 257
 311.115 -233.947 l 257
EndSplineSet
Refer: 77 -1 N 1 0 0 1 0 0 2
Ligature2: "si_abvs_3 subtable" si_DdRa si_MatraI
EndChar

StartChar: si_DdRIi
Encoding: 230 -1 81
GlifName: si_D_dR_I_i
Width: 632
VWidth: 0
GlyphClass: 3
Flags: W
LayerCount: 2
Back
Fore
SplineSet
366.115 -233.947 m 257
 366 -103 l 257
 454.74 -103 479.39 -67.9805 479.39 -38.7807 c 256
 479.39 -17.9028 466.788 -3.55271e-15 456 0 c 257
 589 89 l 257
 611.092 51.311 622.131 10.9717 622.131 -27.9808 c 256
 622.131 -136.329 536.723 -233.947 366.115 -233.947 c 257
311.115 -233.947 m 257
 177 -234 62.833 -167.027 62.833 -37.0908 c 257
 203.833 -37.0908 l 257
 203.833 -72.625 242.901 -103 311 -103 c 257
 311.115 -233.947 l 257
EndSplineSet
Refer: 78 -1 N 1 0 0 1 0 0 2
Ligature2: "si_abvs_4 subtable" si_DdRa si_MatraIi
EndChar

StartChar: si_DdRa
Encoding: 228 -1 82
GlifName: si_D_dR_a
Width: 632
VWidth: 0
GlyphClass: 3
Flags: W
LayerCount: 2
Back
Fore
SplineSet
366.115 -233.947 m 257
 366 -103 l 257
 454.74 -103 479.39 -67.9805 479.39 -38.7807 c 256
 479.39 -17.9028 466.788 -3.55271e-15 456 0 c 257
 589 89 l 257
 611.092 51.311 622.131 10.9717 622.131 -27.9808 c 256
 622.131 -136.329 536.723 -233.947 366.115 -233.947 c 257
311.115 -233.947 m 257
 177 -234 62.833 -167.027 62.833 -37.0908 c 257
 203.833 -37.0908 l 257
 203.833 -72.625 242.901 -103 311 -103 c 257
 311.115 -233.947 l 257
EndSplineSet
Refer: 85 3497 N 1 0 0 1 0 0 2
Ligature2: "si_rakaar subtable" si_Dda si_Halant si_Ra
EndChar

StartChar: si_DdU
Encoding: 224 -1 83
GlifName: si_D_dU_
Width: 632
VWidth: 0
GlyphClass: 3
Flags: W
LayerCount: 2
Back
Fore
SplineSet
449 123 m 257
 589 123 l 257
 589 -205 l 257
 449 -205 l 257
 449 123 l 257
367 -65 m 257
 459 -65 l 257
 459 -205 l 257
 367 -205 l 257
 367 -65 l 257
99 -65 m 257
 311 -65 l 257
 311 -205 l 257
 99 -205 l 257
 99 -65 l 257
EndSplineSet
Refer: 85 3497 N 1 0 0 1 0 0 2
Ligature2: "si_blws_1 subtable" si_Dda si_MatraU
EndChar

StartChar: si_DdUu
Encoding: 225 -1 84
GlifName: si_D_dU_u
Width: 632
VWidth: 0
GlyphClass: 3
Flags: W
LayerCount: 2
Back
Fore
SplineSet
95 -39 m 257
 121.334 -58.333 164.444 -64.7773 185.741 -64.7773 c 256
 228.334 -64.7773 273.667 -42 313 -42 c 257
 313 -182 l 257
 273.667 -182 228.334 -204.777 185.741 -204.777 c 256
 164.444 -204.777 121.334 -198.333 95 -179 c 257
 95 -39 l 257
369 -42 m 257
 386 -42 426.148 -46.167 449 -61 c 257
 449 -205 l 257
 423.106 -186.639 390 -182 369 -182 c 257
 369 -42 l 257
449 123 m 257
 589 123 l 257
 589 -205 l 257
 449 -205 l 257
 449 123 l 257
EndSplineSet
Refer: 85 3497 N 1 0 0 1 0 0 2
Ligature2: "si_blws_3 subtable" si_Dda si_MatraUu
EndChar

StartChar: si_Dda
Encoding: 36 3497 85
GlifName: si_D_da
Width: 632
VWidth: 0
GlyphClass: 2
Flags: W
HStem: -8 140<231 261 231 264.98 426.076 437> 200 2 251 102<30 80 30 281 226.738 242 242 281 30 384> 399 103<234.073 249.361> 616 138
VStem: 72 135<160 166 166 219 160 222.5> 284 100<166 202 159.438 202> 461 141<166 202 202 498 109 202 498 520>
LayerCount: 2
Back
Fore
SplineSet
251 -8 m 256
 145.768 -8 72 58 72 160 c 258
 72 219 l 257
 72 226 72 246 80 251 c 257
 30 251 l 257
 30 353 l 257
 281 353 l 257
 281 388.333 259.721 399 239 399 c 256
 229.146 399 203.972 396 199 375 c 257
 100 401 l 257
 126.404 488.737 202.592 502 239 502 c 256
 282.907 502 327.607 485.114 351 458 c 256
 374.371 430.912 384 404.667 384 349 c 258
 384 251 l 257
 242 251 l 257
 211.475 251 207 231 207 219 c 257
 207 166 l 258
 207 154 216 132 246 132 c 256
 276 132 284 152.875 284 166 c 258
 284 202 l 257
 384 202 l 257
 384 166 l 258
 384 152.875 392 132 422 132 c 256
 452 132 461 154 461 166 c 258
 461 202 l 257
 602 202 l 257
 602 160 l 258
 602 58 535.381 -8 443 -8 c 256
 409.152 -8 367.925 3.4668 339 35 c 257
 315.108 3.4668 278.959 -8 251 -8 c 256
461 202 m 257
 461 498 l 258
 461 583.359 449.933 616 366 616 c 257
 366 755 l 257
 506.563 755 602 705.515 602 520 c 258
 602 202 l 257
 461 202 l 257
75 566 m 257
 75 677.93 196.967 755 310 755 c 257
 310 616.5 l 257
 261.963 616.5 212 601.568 212 530 c 257
 75 566 l 257
EndSplineSet
PickledDataWithLists: "(dp1
S'com.fontlab.hintData'
p2
(dp3
S'vhints'
p4
(lp5
(dp6
S'position'
p7
I72
sS'width'
p8
I135
sa(dp9
g7
I284
sg8
I100
sa(dp10
g7
I461
sg8
I141
sasS'hhints'
p11
(lp12
(dp13
g7
I-8
sg8
I140
sa(dp14
g7
I200
sg8
I2
sa(dp15
g7
I251
sg8
I102
sa(dp16
g7
I399
sg8
I103
sa(dp17
g7
I616
sg8
I138
sass."
EndChar

StartChar: si_Ddh.halant
Encoding: 231 -1 88
GlifName: si_D_dh.halant
Width: 632
VWidth: 0
GlyphClass: 3
Flags: W
LayerCount: 2
Back
Fore
SplineSet
466.001 518 m 257
 466.001 819 l 257
 602.001 819 l 257
 602.001 518 l 257
 466.001 518 l 257
EndSplineSet
Refer: 93 3498 N 1 0 0 1 0 0 2
Ligature2: "si_halant_1 subtable" si_Ddha si_Halant
EndChar

StartChar: si_DdhI
Encoding: 232 -1 89
GlifName: si_D_dhI_
Width: 632
VWidth: 0
GlyphClass: 3
Flags: W
LayerCount: 2
Back
Fore
SplineSet
247 922 m 258
 433 922 l 258
 539 922 582.333 853.602 582.333 776 c 257
 447 776 l 257
 447 804.182 427 806 388.849 806 c 258
 247 806 l 258
 227 806 216.348 793.325 216.348 780.613 c 256
 216.348 767.825 226.626 755 247 755 c 257
 247 639 l 257
 144.586 639 93.6025 709.544 93.6025 780.19 c 256
 93.6025 851.043 145 922 247 922 c 258
EndSplineSet
Refer: 93 3498 N 1 0 0 1 0 0 2
Ligature2: "si_abvs_1 subtable" si_Ddha si_MatraI
EndChar

StartChar: si_DdhIi
Encoding: 233 -1 90
GlifName: si_D_dhI_i
Width: 632
VWidth: 0
GlyphClass: 3
Flags: W
HStem: -5 140 522 123 603 42 703 116
VStem: 30 138 297 4 316 108 388 140
LayerCount: 2
Back
Fore
SplineSet
247 639 m 257
 144.586 639 93.6025 709.544 93.6025 780.19 c 256
 93.6025 851.043 144.885 922 247 922 c 258
 494 922 l 258
 554 922 602 874 602 814 c 256
 602 754 554 706 494 706 c 256
 446.286 706 402.352 754.444 402.352 792.821 c 256
 402.352 797.39 402.974 801.815 405.286 806 c 257
 405.286 806 l 257
 247 806 l 258
 227 806 216.348 793.325 216.348 780.613 c 256
 216.348 767.825 226.626 755 247 755 c 257
 247 639 l 257
EndSplineSet
Refer: 93 3498 N 1 0 0 1 0 0 2
PickledDataWithLists: "(dp1
S'com.fontlab.hintData'
p2
(dp3
S'vhints'
p4
(lp5
(dp6
S'position'
p7
I30
sS'width'
p8
I138
sa(dp9
g7
I297
sg8
I4
sa(dp10
g7
I316
sg8
I108
sa(dp11
g7
I388
sg8
I140
sasS'hhints'
p12
(lp13
(dp14
g7
I-5
sg8
I140
sa(dp15
g7
I522
sg8
I123
sa(dp16
g7
I603
sg8
I42
sa(dp17
g7
I703
sg8
I116
sass."
Ligature2: "si_abvs_2 subtable" si_Ddha si_MatraIi
EndChar

StartChar: si_DdhU
Encoding: 234 -1 91
GlifName: si_D_dhU_
Width: 632
VWidth: 0
GlyphClass: 3
Flags: W
LayerCount: 2
Back
Fore
SplineSet
449 123 m 257
 589 123 l 257
 589 -205 l 257
 449 -205 l 257
 449 123 l 257
367 -65 m 257
 459 -65 l 257
 459 -205 l 257
 367 -205 l 257
 367 -65 l 257
99 -65 m 257
 311 -65 l 257
 311 -205 l 257
 99 -205 l 257
 99 -65 l 257
EndSplineSet
Refer: 93 3498 N 1 0 0 1 0 0 2
Ligature2: "si_blws_1 subtable" si_Ddha si_MatraU
EndChar

StartChar: si_DdhUu
Encoding: 235 -1 92
GlifName: si_D_dhU_u
Width: 632
VWidth: 0
GlyphClass: 3
Flags: W
LayerCount: 2
Back
Fore
SplineSet
95 -39 m 257
 121.334 -58.333 164.444 -64.7773 185.741 -64.7773 c 256
 228.334 -64.7773 273.667 -42 313 -42 c 257
 313 -182 l 257
 273.667 -182 228.334 -204.777 185.741 -204.777 c 256
 164.444 -204.777 121.334 -198.333 95 -179 c 257
 95 -39 l 257
369 -42 m 257
 386 -42 426.148 -46.167 449 -61 c 257
 449 -205 l 257
 423.106 -186.639 390 -182 369 -182 c 257
 369 -42 l 257
449 123 m 257
 589 123 l 257
 589 -205 l 257
 449 -205 l 257
 449 123 l 257
EndSplineSet
Refer: 93 3498 N 1 0 0 1 0 0 2
Ligature2: "si_blws_3 subtable" si_Ddha si_MatraUu
EndChar

StartChar: si_Ddha
Encoding: 37 3498 93
GlifName: si_D_dha
Width: 632
VWidth: 0
GlyphClass: 2
Flags: W
LayerCount: 2
Back
Fore
SplineSet
251 -8 m 256
 145.768 -8 72 58 72 160 c 258
 72 219 l 257
 72 226 72 246 80 251 c 257
 30 251 l 257
 30 353 l 257
 281 353 l 257
 281 388.333 259.721 399 239 399 c 256
 229.146 399 203.972 396 199 375 c 257
 100 401 l 257
 126.404 488.737 202.592 502 239 502 c 256
 282.907 502 327.607 485.114 351 458 c 256
 374.371 430.912 384 404.667 384 349 c 258
 384 251 l 257
 242 251 l 257
 211.475 251 207 231 207 219 c 257
 207 166 l 258
 207 154 216 132 246 132 c 256
 276 132 284 152.875 284 166 c 258
 284 202 l 257
 384 202 l 257
 384 166 l 258
 384 152.875 392 132 422 132 c 256
 452.769 132 462 154 462 166 c 258
 462 202 l 257
 602 202 l 257
 602 160 l 258
 602 58 535.381 -8 443 -8 c 256
 409.152 -8 367.925 3.4668 339 35 c 257
 315.108 3.4668 278.959 -8 251 -8 c 256
287 617 m 258
 287 755 l 257
 367 755 l 257
 501.273 755 602 700 602 517 c 258
 602 202 l 257
 462 202 l 257
 462 498 l 258
 462 577 445.252 616 367 616 c 257
 367 616 l 257
 367 563.071 392.652 547.238 426 540 c 257
 426 454 l 257
 322.619 473.607 287 544.038 287 617 c 258
EndSplineSet
EndChar

StartChar: si_Dh.halant
Encoding: 284 -1 95
GlifName: si_D_h.halant
Width: 593
VWidth: 0
GlyphClass: 3
Flags: W
LayerCount: 2
Back
Fore
SplineSet
212 -8 m 256
 105.004 -8 30 58 30 160 c 258
 29.999 261.926 l 258
 29.999 343.692 44.667 474 240.667 474 c 257
 263 474 l 257
 263 336 l 257
 240.667 336 l 257
 200.667 336 168 322 168 262 c 258
 168 166 l 258
 168 154 177 132 207 132 c 256
 237 132 245 152.875 245 166 c 258
 245 202 l 257
 345 202 l 257
 345 166 l 258
 345 152.875 353 132 383 132 c 256
 413 132 422 154 422 166 c 258
 422 202 l 257
 563 202 l 257
 563 160 l 258
 563 58 496.381 -8 404 -8 c 256
 370.151 -8 328.925 3.4668 300 35 c 257
 276.108 3.4668 239.959 -8 212 -8 c 256
42 522 m 257
 42 652 l 257
 89 652 l 258
 72.7076 652 56.543 678.371 56.543 710.154 c 256
 56.543 758.353 93.7184 819 224 819 c 258
 271.667 819 l 257
 271.667 703 l 257
 232.667 703 l 258
 203.729 703 197.409 688.847 197.409 676.362 c 256
 197.409 661.503 210.732 652 232.667 652 c 258
 331.667 652 l 257
 331.667 522 l 257
 42 522 l 257
422 202 m 257
 422 454 l 258
 422 513.999 381.403 522 331.667 522 c 257
 331.667 652 l 257
 491.305 652 563 588.998 563 474 c 258
 563 202 l 257
 422 202 l 257
327.167 703 m 257
 327.167 819 l 257
 376.667 819 l 258
 525.026 819 550 756 550 673 c 257
 414.667 673 l 257
 414.667 700 390 703 344.667 703 c 258
 327.167 703 l 257
EndSplineSet
Ligature2: "si_halant_1 subtable" si_Dha si_Halant
EndChar

StartChar: si_DhI
Encoding: 285 -1 96
GlifName: si_D_hI_
Width: 593
VWidth: 0
GlyphClass: 3
Flags: W
LayerCount: 2
Back
Fore
SplineSet
212 -8 m 256
 105.004 -8 30 58 30 160 c 258
 29.999 261.926 l 258
 29.999 343.692 44.667 474 240.667 474 c 257
 263 474 l 257
 263 336 l 257
 240.667 336 l 257
 200.667 336 168 322 168 262 c 258
 168 166 l 258
 168 154 177 132 207 132 c 256
 237 132 245 152.875 245 166 c 258
 245 202 l 257
 345 202 l 257
 345 166 l 258
 345 152.875 353 132 383 132 c 256
 413 132 422 154 422 166 c 258
 422 200 l 257
 563 200 l 257
 563 160 l 258
 563 58 496.381 -8 404 -8 c 256
 370.151 -8 328.925 3.4668 300 35 c 257
 276.108 3.4668 239.959 -8 212 -8 c 256
218.667 512 m 257
 100.542 512 41.292 570.065 41.292 670.735 c 256
 41.292 744.907 100.292 819 218.667 819 c 257
 271.5 819 l 257
 271.5 703 l 257
 197.667 703 l 257
 177.167 703 166.917 690.25 166.917 677.5 c 256
 166.917 664.75 177.167 652 197.667 652 c 257
 331.667 652 l 257
 331.667 512 l 257
 218.667 512 l 257
422 200 m 257
 422 446 l 258
 422 504 381.403 512 331.667 512 c 257
 331.667 652 l 257
 491.305 652 563 590 563 473 c 258
 563 200 l 257
 422 200 l 257
417.667 673 m 257
 417.667 700 393 703 347.667 703 c 258
 327 703 l 257
 327 819 l 257
 379.667 819 l 258
 508.026 819 553 756 553 673 c 257
 417.667 673 l 257
EndSplineSet
Ligature2: "si_abvs_1 subtable" si_Dha si_MatraI
EndChar

StartChar: si_DhIi
Encoding: 286 -1 97
GlifName: si_D_hI_i
Width: 593
VWidth: 0
GlyphClass: 3
Flags: W
LayerCount: 2
Back
Fore
SplineSet
212 -8 m 256
 105.004 -8 30 58 30 160 c 258
 29.999 261.926 l 258
 29.999 343.692 44.667 474 240.667 474 c 257
 263 474 l 257
 263 336 l 257
 240.667 336 l 257
 200.667 336 168 322 168 262 c 258
 168 166 l 258
 168 154 177 132 207 132 c 256
 237 132 245 152.875 245 166 c 258
 245 202 l 257
 345 202 l 257
 345 166 l 258
 345 152.875 353 132 383 132 c 256
 413 132 422 154 422 166 c 258
 422 202 l 257
 563 202 l 257
 563 160 l 258
 563 58 496.381 -8 404 -8 c 256
 370.151 -8 328.925 3.4668 300 35 c 257
 276.108 3.4668 239.959 -8 212 -8 c 256
218.667 522 m 258
 100.516 522 41.292 596.374 41.292 670.686 c 256
 41.292 744.874 100.349 819 218.667 819 c 258
 271 819 l 257
 271 703 l 257
 207.667 703 l 258
 183.229 703 171.027 688.518 171.027 674.028 c 256
 171.027 659.518 183.256 645 207.667 645 c 258
 331.667 645 l 257
 331.667 522 l 257
 218.667 522 l 258
458.667 603 m 256
 410.953 603 367.019 651.443 367.019 689.821 c 256
 367.019 694.39 367.642 698.815 368.954 703 c 257
 358.667 703 l 257
 327 703 l 257
 327 819 l 257
 458.667 819 l 258
 518.664 819 566.667 771 566.667 711 c 256
 566.667 651 518.667 603 458.667 603 c 256
422 202 m 257
 422 456 l 258
 422 514 381.403 522 331.667 522 c 257
 331.667 645 l 257
 343.7 645 364.998 644.92 376.269 644.92 c 256
 509.128 644.931 563 596.229 563 475 c 258
 563 202 l 257
 422 202 l 257
EndSplineSet
Ligature2: "si_abvs_2 subtable" si_Dha si_MatraIi
EndChar

StartChar: si_DhR.halant
Encoding: 290 -1 98
GlifName: si_D_hR_.halant
Width: 593
VWidth: 0
GlyphClass: 2
Flags: W
LayerCount: 2
Back
Fore
SplineSet
327.115 -233.947 m 257
 327 -103 l 257
 415.74 -103 440.39 -67.9805 440.39 -38.7807 c 256
 440.39 -17.9028 427.788 -3.55271e-15 417 0 c 257
 550 89 l 257
 572.092 51.311 583.131 10.9717 583.131 -27.9808 c 256
 583.131 -136.329 497.723 -233.947 327.115 -233.947 c 257
272.115 -233.947 m 257
 138 -234 23.833 -167.027 23.833 -37.0908 c 257
 164.833 -37.0908 l 257
 164.833 -72.625 203.901 -103 272 -103 c 257
 272.115 -233.947 l 257
EndSplineSet
Refer: 95 -1 N 1 0 0 1 0 0 2
EndChar

StartChar: si_DhRI
Encoding: 292 -1 99
GlifName: si_D_hR_I_
Width: 593
VWidth: 0
GlyphClass: 3
Flags: W
LayerCount: 2
Back
Fore
SplineSet
327.115 -233.947 m 257
 327 -103 l 257
 415.74 -103 440.39 -67.9805 440.39 -38.7807 c 256
 440.39 -17.9028 427.788 -3.55271e-15 417 0 c 257
 550 89 l 257
 572.092 51.311 583.131 10.9717 583.131 -27.9808 c 256
 583.131 -136.329 497.723 -233.947 327.115 -233.947 c 257
272.115 -233.947 m 257
 138 -234 23.833 -167.027 23.833 -37.0908 c 257
 164.833 -37.0908 l 257
 164.833 -72.625 203.901 -103 272 -103 c 257
 272.115 -233.947 l 257
EndSplineSet
Refer: 96 -1 N 1 0 0 1 0 0 2
Ligature2: "si_abvs_3 subtable" si_DhRa si_MatraI
EndChar

StartChar: si_DhRIi
Encoding: 293 -1 100
GlifName: si_D_hR_I_i
Width: 593
VWidth: 0
GlyphClass: 3
Flags: W
LayerCount: 2
Back
Fore
SplineSet
327.115 -233.947 m 257
 327 -103 l 257
 415.74 -103 440.39 -67.9805 440.39 -38.7807 c 256
 440.39 -17.9028 427.788 -3.55271e-15 417 0 c 257
 550 89 l 257
 572.092 51.311 583.131 10.9717 583.131 -27.9808 c 256
 583.131 -136.329 497.723 -233.947 327.115 -233.947 c 257
272.115 -233.947 m 257
 138 -234 23.833 -167.027 23.833 -37.0908 c 257
 164.833 -37.0908 l 257
 164.833 -72.625 203.901 -103 272 -103 c 257
 272.115 -233.947 l 257
EndSplineSet
Refer: 97 -1 N 1 0 0 1 0 0 2
Ligature2: "si_abvs_4 subtable" si_DhRa si_MatraIi
EndChar

StartChar: si_DhRa
Encoding: 291 -1 101
GlifName: si_D_hR_a
Width: 593
VWidth: 0
GlyphClass: 3
Flags: W
LayerCount: 2
Back
Fore
SplineSet
327.115 -233.947 m 257
 327 -103 l 257
 415.74 -103 440.39 -67.9805 440.39 -38.7807 c 256
 440.39 -17.9028 427.788 -3.55271e-15 417 0 c 257
 550 89 l 257
 572.092 51.311 583.131 10.9717 583.131 -27.9808 c 256
 583.131 -136.329 497.723 -233.947 327.115 -233.947 c 257
272.115 -233.947 m 257
 138 -234 23.833 -167.027 23.833 -37.0908 c 257
 164.833 -37.0908 l 257
 164.833 -72.625 203.901 -103 272 -103 c 257
 272.115 -233.947 l 257
EndSplineSet
Refer: 104 3504 N 1 0 0 1 0 0 2
Ligature2: "si_rakaar subtable" si_Dha si_Halant si_Ra
EndChar

StartChar: si_DhU
Encoding: 287 -1 102
GlifName: si_D_hU_
Width: 593
VWidth: 0
GlyphClass: 3
Flags: W
LayerCount: 2
Back
Fore
SplineSet
409 123 m 257
 549 123 l 257
 549 -205 l 257
 409 -205 l 257
 409 123 l 257
328 -65 m 257
 419 -65 l 257
 419 -205 l 257
 328 -205 l 257
 328 -65 l 257
59 -65 m 257
 272 -65 l 257
 272 -205 l 257
 59 -205 l 257
 59 -65 l 257
EndSplineSet
Refer: 104 3504 N 1 0 0 1 0 0 2
Ligature2: "si_blws_1 subtable" si_Dha si_MatraU
EndChar

StartChar: si_DhUu
Encoding: 288 -1 103
GlifName: si_D_hU_u
Width: 593
VWidth: 0
GlyphClass: 3
Flags: W
LayerCount: 2
Back
Fore
SplineSet
54 -39 m 257
 80.334 -58.333 123.444 -64.7773 144.741 -64.7773 c 256
 187.334 -64.7773 232.667 -42 272 -42 c 257
 272 -182 l 257
 232.667 -182 187.334 -204.777 144.741 -204.777 c 256
 123.444 -204.777 80.334 -198.333 54 -179 c 257
 54 -39 l 257
328 -42 m 257
 345 -42 385.148 -46.167 408 -61 c 257
 408 -205 l 257
 382.106 -186.639 349 -182 328 -182 c 257
 328 -42 l 257
408 123 m 257
 548 123 l 257
 548 -205 l 257
 408 -205 l 257
 408 123 l 257
EndSplineSet
Refer: 104 3504 N 1 0 0 1 0 0 2
Ligature2: "si_blws_3 subtable" si_Dha si_MatraUu
EndChar

StartChar: si_Dha
Encoding: 43 3504 104
GlifName: si_D_ha
Width: 593
VWidth: 0
GlyphClass: 2
Flags: W
HStem: -8 140<192 222 192 225.98 387.076 398> 200 2 336 138<220.667 263 240.667 263> 616 138
VStem: 30 138<109 166> 245 100<166 202 159.438 202> 422 141<166 202 202 498 109 202 498 520>
LayerCount: 2
Back
Fore
SplineSet
212 -8 m 256
 105.004 -8 30 58 30 160 c 258
 29.999 261.926 l 258
 29.999 343.692 44.667 474 240.667 474 c 257
 263 474 l 257
 263 336 l 257
 240.667 336 l 257
 200.667 336 168 322 168 262 c 258
 168 166 l 258
 168 154 177 132 207 132 c 256
 237 132 245 152.875 245 166 c 258
 245 202 l 257
 345 202 l 257
 345 166 l 258
 345 152.875 353 132 383 132 c 256
 413 132 422 154 422 166 c 258
 422 202 l 257
 563 202 l 257
 563 160 l 258
 563 58 496.381 -8 404 -8 c 256
 370.151 -8 328.925 3.4668 300 35 c 257
 276.108 3.4668 239.959 -8 212 -8 c 256
422 202 m 257
 422 498 l 258
 422 583.359 410.933 616 327 616 c 257
 327 755 l 257
 467.563 755 563 705.515 563 520 c 258
 563 202 l 257
 422 202 l 257
36 566 m 257
 36 677.93 157.967 755 271 755 c 257
 271 616.5 l 257
 222.963 616.5 173 601.568 173 530 c 257
 36 566 l 257
EndSplineSet
PickledDataWithLists: "(dp1
S'com.fontlab.hintData'
p2
(dp3
S'vhints'
p4
(lp5
(dp6
S'position'
p7
I30
sS'width'
p8
I138
sa(dp9
g7
I245
sg8
I100
sa(dp10
g7
I422
sg8
I141
sasS'hhints'
p11
(lp12
(dp13
g7
I-8
sg8
I140
sa(dp14
g7
I200
sg8
I2
sa(dp15
g7
I336
sg8
I138
sa(dp16
g7
I616
sg8
I138
sass."
EndChar

StartChar: si_E
Encoding: 15 3473 109
GlifName: si_E_
Width: 604
VWidth: 0
GlyphClass: 2
Flags: W
HStem: -5 145<256.251 283 256.251 283 256.251 339> 249 1 252 102<30 80.3096 30 247 30 266 30 350> 400 103<200.073 215.361> 454 86<398 398> 616 139<259 339 259 339>
VStem: 69 138<181.608 202.014> 247 103<252 360 252 360> 259 80<617 617 755 755> 434 140<201.761 250 250 498 498 517>
LayerCount: 2
Back
Fore
SplineSet
66 402 m 257
 92.4043 489.737 168.592 503 205 503 c 256
 248.907 503 293.606 486.114 317 459 c 256
 340.371 431.912 350 406 350 350 c 258
 350 252 l 257
 266 252 l 258
 236 252 207 242 207 195 c 256
 207 168.216 229.503 140 283 140 c 257
 283 -5 l 257
 155.558 -5 69 87.2324 69 192 c 256
 69 212.029 69.5162 232.24 80.3096 252 c 257
 30 252 l 257
 30 354 l 257
 247 354 l 257
 247 360 l 257
 247.053 389.333 225.721 400 205 400 c 256
 195.147 400 169.971 397 165 376 c 257
 66 402 l 257
398 454 m 257
 294.619 473.607 259 544.038 259 617 c 258
 259 755 l 257
 339 755 l 257
 473.273 755 574 700 574 517 c 258
 574 250 l 257
 434 250 l 257
 434 498 l 258
 434 577 417.252 616 339 616 c 257
 339 616 339 616 339 616 c 256
 339 563.071 364.652 547.238 398 540 c 257
 398 454 l 257
339 -5 m 257
 339 140 l 257
 381.411 140 434 153.522 434 250 c 256
 574 250 l 256
 574 78.4932 493.968 -4.83398 339 -5 c 257
EndSplineSet
PickledDataWithLists: "(dp1
S'com.fontlab.hintData'
p2
(dp3
S'vhints'
p4
(lp5
(dp6
S'position'
p7
I69
sS'width'
p8
I138
sa(dp9
g7
I247
sg8
I103
sa(dp10
g7
I259
sg8
I80
sa(dp11
g7
I434
sg8
I140
sasS'hhints'
p12
(lp13
(dp14
g7
I-5
sg8
I145
sa(dp15
g7
I249
sg8
I1
sa(dp16
g7
I252
sg8
I102
sa(dp17
g7
I400
sg8
I103
sa(dp18
g7
I454
sg8
I86
sa(dp19
g7
I616
sg8
I139
sass."
EndChar

StartChar: si_Ee
Encoding: 16 3474 110
GlifName: si_E_e
Width: 604
VWidth: 0
GlyphClass: 2
Flags: W
HStem: -5 145<256.251 283 256.251 283 256.251 339> 249 1 252 102<30 247 30 80.3096 30 266 30 350> 400 103<200.073 215.361> 454 86<398 398> 616 139<259 339 259 339>
VStem: 69 138<181.608 202.014> 247 103<252 360 252 360> 259 80<617 617 755 755> 434 140<201.761 250 250 498 498 517>
LayerCount: 2
Back
Fore
SplineSet
30 252 m 257
 30 354 l 257
 247 354 l 257
 247 360 l 257
 247.053 389.333 225.721 400 205 400 c 256
 195.147 400 169.971 397 165 376 c 257
 66 402 l 257
 92.4043 489.737 168.592 503 205 503 c 256
 248.907 503 293.606 486.114 317 459 c 256
 340.371 431.912 350 406 350 350 c 258
 350 252 l 257
 266 252 l 258
 236 252 207 242 207 195 c 256
 207 168.216 229.503 140 283 140 c 257
 283 -5 l 257
 155.558 -5 69 87.2324 69 192 c 256
 69 212.029 69.5162 232.24 80.3096 252 c 257
 30 252 l 257
259 617 m 258
 259 755 l 257
 339 755 l 257
 473.273 755 574 700 574 517 c 258
 574 250 l 257
 434 250 l 257
 434 498 l 258
 434 577 417.252 616 339 616 c 257
 339 616 339 616 339 616 c 256
 339 563.071 364.652 547.238 398 540 c 257
 398 454 l 257
 294.619 473.607 259 544.038 259 617 c 258
339 -5 m 257
 339 140 l 257
 381.411 140 434 153.522 434 250 c 256
 574 250 l 256
 574 78.4932 493.968 -4.83398 339 -5 c 257
437.001 518 m 257
 437.001 819 l 257
 573.001 819 l 257
 573.001 518 l 257
 437.001 518 l 257
EndSplineSet
PickledDataWithLists: "(dp1
S'com.fontlab.hintData'
p2
(dp3
S'vhints'
p4
(lp5
(dp6
S'position'
p7
I69
sS'width'
p8
I138
sa(dp9
g7
I247
sg8
I103
sa(dp10
g7
I259
sg8
I80
sa(dp11
g7
I434
sg8
I140
sasS'hhints'
p12
(lp13
(dp14
g7
I-5
sg8
I145
sa(dp15
g7
I249
sg8
I1
sa(dp16
g7
I252
sg8
I102
sa(dp17
g7
I400
sg8
I103
sa(dp18
g7
I454
sg8
I86
sa(dp19
g7
I616
sg8
I139
sass."
EndChar

StartChar: si_FR.halant
Encoding: 447 -1 114
GlifName: si_F_R_.halant
Width: 650
VWidth: 0
GlyphClass: 2
Flags: W
LayerCount: 2
Back
Fore
SplineSet
356 -103 m 257
 508.188 -103 475.877 1 450 1 c 257
 583 89 l 257
 665.554 -56.5439 588 -234 356.115 -233.947 c 257
 356 -103 l 257
301.115 -233.947 m 257
 167 -234 52.833 -167.027 52.833 -37.0908 c 257
 193.833 -37.0908 l 257
 193.833 -72.625 232.901 -103 301 -103 c 257
 301.115 -233.947 l 257
EndSplineSet
Refer: 111 -1 N 1 0 0 1 0 0 2
EndChar

StartChar: si_FRI
Encoding: 449 -1 115
GlifName: si_F_R_I_
Width: 650
VWidth: 0
GlyphClass: 2
Flags: W
LayerCount: 2
Back
Fore
SplineSet
356 -103 m 257
 508.188 -103 475.877 1 450 1 c 257
 583 89 l 257
 665.554 -56.5439 588 -234 356.115 -233.947 c 257
 356 -103 l 257
301.115 -233.947 m 257
 167 -234 52.833 -167.027 52.833 -37.0908 c 257
 193.833 -37.0908 l 257
 193.833 -72.625 232.901 -103 301 -103 c 257
 301.115 -233.947 l 257
EndSplineSet
Refer: 112 -1 N 1 0 0 1 0 0 2
EndChar

StartChar: si_FRIi
Encoding: 450 -1 116
GlifName: si_F_R_I_i
Width: 650
VWidth: 0
GlyphClass: 2
Flags: W
LayerCount: 2
Back
Fore
SplineSet
356 -103 m 257
 508.188 -103 475.877 1 450 1 c 257
 583 89 l 257
 665.554 -56.5439 588 -234 356.115 -233.947 c 257
 356 -103 l 257
301.115 -233.947 m 257
 167 -234 52.833 -167.027 52.833 -37.0908 c 257
 193.833 -37.0908 l 257
 193.833 -72.625 232.901 -103 301 -103 c 257
 301.115 -233.947 l 257
EndSplineSet
Refer: 113 -1 N 1 0 0 1 0 0 2
EndChar

StartChar: si_FRa
Encoding: 448 -1 117
GlifName: si_F_R_a
Width: 650
VWidth: 0
GlyphClass: 3
Flags: W
LayerCount: 2
Back
Fore
SplineSet
356 -103 m 257
 508.188 -103 475.877 1 450 1 c 257
 583 89 l 257
 665.554 -56.5439 588 -234 356.115 -233.947 c 257
 356 -103 l 257
301.115 -233.947 m 257
 167 -234 52.833 -167.027 52.833 -37.0908 c 257
 193.833 -37.0908 l 257
 193.833 -72.625 232.901 -103 301 -103 c 257
 301.115 -233.947 l 257
EndSplineSet
Refer: 120 3526 N 1 0 0 1 0 0 2
Ligature2: "si_rakaar subtable" si_Fa si_Halant si_Ra
EndChar

StartChar: si_FU
Encoding: 444 -1 118
GlifName: si_F_U_
Width: 650
VWidth: 0
GlyphClass: 3
Flags: W
LayerCount: 2
Back
Fore
SplineSet
58 -65 m 257
 300 -65 l 257
 300 -205 l 257
 58 -205 l 257
 58 -65 l 257
356 -205 m 257
 356 -65 l 257
 472 -65 l 257
 472 -205 l 257
 356 -205 l 257
462 -205 m 257
 462 131 l 257
 602 131 l 257
 602 -205 l 257
 462 -205 l 257
EndSplineSet
Refer: 120 3526 N 1 0 0 1 0 0 2
Ligature2: "si_blws_1 subtable" si_Fa si_MatraU
EndChar

StartChar: si_FUu
Encoding: 445 -1 119
GlifName: si_F_U_u
Width: 650
VWidth: 0
GlyphClass: 3
Flags: W
LayerCount: 2
Back
Fore
SplineSet
162.741 -204.777 m 256
 130.005 -204.777 98.4785 -197.083 58 -174 c 257
 58 -34 l 257
 98.4785 -59.333 130.005 -67.7773 162.741 -67.7773 c 256
 214.051 -67.7773 252.616 -34 300 -34 c 257
 300 -174 l 257
 252.616 -174 214.051 -204.777 162.741 -204.777 c 256
462 -205 m 257
 417.611 -180.252 392 -174 356 -174 c 257
 356 -34 l 257
 385.143 -34 422.826 -39.9219 462 -61 c 257
 462 -205 l 257
462 -205 m 257
 462 131 l 257
 602 131 l 257
 602 -205 l 257
 462 -205 l 257
EndSplineSet
Refer: 120 3526 N 1 0 0 1 0 0 2
Ligature2: "si_blws_3 subtable" si_Fa si_MatraUu
EndChar

StartChar: si_Fa
Encoding: 61 3526 120
GlifName: si_F_a
Width: 650
VWidth: 0
GlyphClass: 2
Flags: W
HStem: 0 143<198.944 225 198.944 225 425 451.056> 425 139
VStem: 30 139<251 385> 261 128<251 383 251 396.957> 481 139<189.98 396 251 385 385 396 251 398.033>
LayerCount: 2
Back
Fore
SplineSet
30 251 m 257
 30 396 l 258
 30 506 101.976 564 212 564 c 256
 254.945 564 298.038 552.267 328 520 c 257
 356.929 552.267 395.536 564 437 564 c 256
 545.873 564 620 498 620 396 c 258
 620 396 620 251 620 251 c 257
 481 251 l 257
 481 385 l 258
 481 411.065 457.994 424.604 434.991 424.604 c 256
 411.994 424.604 389 411.072 389 383 c 258
 389 383 389 251 389 251 c 257
 261 251 l 257
 261 383 l 258
 261 410.914 237.715 424.617 214.573 424.617 c 256
 191.717 424.617 169 411.249 169 385 c 258
 169 385 169 251 169 251 c 257
 30 251 l 257
30.0791 202 m 256
 169 202 l 256
 169 177.959 172.888 143 225 143 c 257
 225 0 l 257
 85.7041 0 30.4199 85.7373 30.0791 202 c 256
425 0 m 257
 425 143 l 257
 477.112 143 481 177.959 481 202 c 256
 619.921 202 l 256
 619.58 85.7373 564.296 0 425 0 c 257
EndSplineSet
PickledDataWithLists: "(dp1
S'com.fontlab.hintData'
p2
(dp3
S'vhints'
p4
(lp5
(dp6
S'position'
p7
I30
sS'width'
p8
I139
sa(dp9
g7
I261
sg8
I128
sa(dp10
g7
I481
sg8
I139
sasS'hhints'
p11
(lp12
(dp13
g7
I0
sg8
I143
sa(dp14
g7
I425
sg8
I139
sass."
EndChar

StartChar: si_GDha
Encoding: 459 -1 124
GlifName: si_G_D_ha
Width: 1069
VWidth: 0
GlyphClass: 2
Flags: W
HStem: -8 140<668 698 668 701.979 863.075 874> 200 2 241 106<254 371 271 283 271 371> 616 138
VStem: 30 141 337 124<105.669 196.519> 506 138<109 166> 721 100<166 202 159.438 202> 898 141<166 202 202 498 109 202 498 520>
LayerCount: 2
Back
Fore
SplineSet
688 -8 m 256
 581.004 -8 506 58 506 160 c 258
 505.999 261.926 l 258
 505.999 323.069 514.201 411.354 600.291 452 c 256
 633 464 l 257
 739 336 l 257
 716.667 336 l 257
 676.667 336 644 322 644 262 c 258
 644 166 l 258
 644 154 653 132 683 132 c 256
 713 132 721 152.875 721 166 c 258
 721 202 l 257
 821 202 l 257
 821 166 l 258
 821 152.875 829 132 859 132 c 256
 889 132 898 154 898 166 c 258
 898 202 l 257
 1039 202 l 257
 1039 160 l 258
 1039 58 972.381 -8 880 -8 c 256
 846.151 -8 804.925 3.4668 776 35 c 257
 752.108 3.4668 715.959 -8 688 -8 c 256
283 -8 m 257
 283 135 l 256
 335.527 135 337 170.963 337 188 c 256
 337 205.037 335.527 241 283 241 c 258
 271 241 l 257
 271 347 l 257
 371 347 l 257
 407.086 347 461 325.407 460.85 216 c 258
 461 166 l 258
 461 45.3371 399.69 -8 283 -8 c 257
227 -8 m 257
 87.704 -8 30.4201 81.7376 30.0791 198 c 258
 30.0791 358 l 258
 30.4201 474.262 87.704 564 227 564 c 257
 227 421 l 257
 174.887 421 171 375.857 171 348 c 258
 171 198 l 258
 171 173.959 174.887 135 227 135 c 257
 227 -8 l 257
254 241 m 256
 254 350 l 258
 254 513.629 383.018 575.647 509.029 575.647 c 256
 610.915 575.647 740 500 739 336 c 257
 591 360 l 257
 591 418.552 538.677 450.504 487.803 450.504 c 256
 439.671 450.504 392.835 421.903 392.835 360 c 258
 393 240.5 l 257
 254 241 l 256
898 202 m 257
 898 498 l 258
 898 583.358 878.933 616 795 616 c 257
 795 755 l 257
 935.563 755 1039 705.513 1039 520 c 258
 1039 202 l 257
 898 202 l 257
664.934 588.211 m 257
 528.939 636.534 l 257
 566.15 711.315 649.861 755 739 755 c 257
 739 616.5 l 257
 707.4 616.5 682.676 612.385 664.934 588.211 c 257
EndSplineSet
PickledDataWithLists: "(dp1
S'com.fontlab.hintData'
p2
(dp3
S'vhints'
p4
(lp5
(dp6
S'position'
p7
I30
sS'width'
p8
I141
sa(dp9
g7
I337
sg8
I124
sa(dp10
g7
I506
sg8
I138
sa(dp11
g7
I721
sg8
I100
sa(dp12
g7
I898
sg8
I141
sasS'hhints'
p13
(lp14
(dp15
g7
I-8
sg8
I140
sa(dp16
g7
I200
sg8
I2
sa(dp17
g7
I241
sg8
I106
sa(dp18
g7
I616
sg8
I138
sass."
EndChar

StartChar: si_GR.halant
Encoding: 115 -1 127
GlifName: si_G_R_.halant
Width: 717
VWidth: 0
GlyphClass: 2
Flags: W
LayerCount: 2
Back
Fore
SplineSet
389 -103 m 257
 398 -103 l 258
 546 -103 547.25 0 522 0 c 257
 655 89 l 257
 726.992 -37.9238 636 -234 426 -234 c 258
 389.115 -233.947 l 257
 389 -103 l 257
334.115 -233.947 m 257
 306 -234 l 258
 181 -234 56.833 -165.25 56.833 -37.0908 c 257
 197.833 -37.0908 l 257
 197.833 -72.5898 250 -103 314 -103 c 258
 334 -103 l 257
 334.115 -233.947 l 257
EndSplineSet
Refer: 123 -1 N 1 0 0 1 0 0 2
EndChar

StartChar: si_GRI
Encoding: 116 -1 128
GlifName: si_G_R_I_
Width: 717
VWidth: 0
GlyphClass: 3
Flags: W
LayerCount: 2
Back
Fore
SplineSet
389 -103 m 257
 398 -103 l 258
 546 -103 547.25 0 522 0 c 257
 655 89 l 257
 726.992 -37.9238 636 -234 426 -234 c 258
 389.115 -233.947 l 257
 389 -103 l 257
334.115 -233.947 m 257
 306 -234 l 258
 181 -234 56.833 -165.25 56.833 -37.0908 c 257
 197.833 -37.0908 l 257
 197.833 -72.5898 250 -103 314 -103 c 258
 334 -103 l 257
 334.115 -233.947 l 257
EndSplineSet
Refer: 125 -1 N 1 0 0 1 0 0 2
Ligature2: "si_abvs_3 subtable" si_GRa si_MatraI
EndChar

StartChar: si_GRIi
Encoding: 117 -1 129
GlifName: si_G_R_I_i
Width: 717
VWidth: 0
GlyphClass: 3
Flags: W
LayerCount: 2
Back
Fore
SplineSet
389 -103 m 257
 398 -103 l 258
 546 -103 547.25 0 522 0 c 257
 655 89 l 257
 726.992 -37.9238 636 -234 426 -234 c 258
 389.115 -233.947 l 257
 389 -103 l 257
334.115 -233.947 m 257
 306 -234 l 258
 181 -234 56.833 -165.25 56.833 -37.0908 c 257
 197.833 -37.0908 l 257
 197.833 -72.5898 250 -103 314 -103 c 258
 334 -103 l 257
 334.115 -233.947 l 257
EndSplineSet
Refer: 126 -1 N 1 0 0 1 0 0 2
Ligature2: "si_abvs_4 subtable" si_GRa si_MatraIi
EndChar

StartChar: si_GRa
Encoding: 114 -1 130
GlifName: si_G_R_a
Width: 717
VWidth: 0
GlyphClass: 3
Flags: W
LayerCount: 2
Back
Fore
SplineSet
389 -103 m 257
 398 -103 l 258
 546 -103 547.25 0 522 0 c 257
 655 89 l 257
 726.992 -37.9238 636 -234 426 -234 c 258
 389.115 -233.947 l 257
 389 -103 l 257
334.115 -233.947 m 257
 306 -234 l 258
 181 -234 56.833 -165.25 56.833 -37.0908 c 257
 197.833 -37.0908 l 257
 197.833 -72.5898 250 -103 314 -103 c 258
 334 -103 l 257
 334.115 -233.947 l 257
EndSplineSet
Refer: 133 3484 N 1 0 0 1 0 0 2
Ligature2: "si_rakaar subtable" si_Ga si_Halant si_Ra
EndChar

StartChar: si_GU
Encoding: 111 -1 131
GlifName: si_G_U_
Width: 717
VWidth: 0
GlyphClass: 3
Flags: W
LayerCount: 2
Back
Fore
SplineSet
665.19 -205.003 m 256
 558.365 -205.003 469.854 -155.937 470 -29 c 258
 470 19 l 258
 469.854 147.379 558.365 197.003 665.19 197.003 c 256
 672.229 197.003 679.533 197.002 687 197 c 257
 687 54 l 257
 682.681 54 674.854 54 666 54 c 256
 642.141 54 611.857 44.0752 611.018 -2.98438 c 258
 611.022 -7.23535 l 258
 611.951 -54.1064 642.178 -64 666 -64 c 256
 674.854 -64 682.681 -64 687 -64 c 257
 687 -205 l 257
 679.533 -205.002 672.229 -205.003 665.19 -205.003 c 256
271 241 m 257
 271 347 l 257
 371 347 l 257
 407.086 347 461 325.407 460.85 216 c 258
 461 166 l 258
 461 45.3369 399.689 -8 283 -8 c 257
 283 135 l 256
 335.527 135 337 170.963 337 188 c 256
 337 205.037 335.527 241 283 241 c 258
 271 241 l 257
227 -8 m 257
 87.7041 -8 30.4199 81.7373 30.0791 198 c 258
 30.0791 358 l 258
 30.4199 474.263 87.7041 564 227 564 c 257
 227 421 l 257
 174.888 421 171 375.857 171 348 c 258
 171 198 l 258
 171 173.959 174.888 135 227 135 c 257
 227 -8 l 257
254 241 m 256
 254 350 l 258
 254 468.007 290.062 564 434 564 c 257
 434 421 l 257
 388.192 421 393.466 376.492 392.835 350 c 258
 393 240.5 l 257
 254 241 l 256
546 138 m 256
 546 348 l 258
 546 375.857 542.112 421 490 421 c 257
 490 564 l 257
 629.296 564 686.58 474.263 686.921 358 c 258
 686.921 138 l 256
 546 138 l 256
EndSplineSet
Ligature2: "si_blws_1 subtable" si_Ga si_MatraU
EndChar

StartChar: si_GUu
Encoding: 112 -1 132
GlifName: si_G_U_u
Width: 727
VWidth: 0
GlyphClass: 3
Flags: W
LayerCount: 2
Back
Fore
SplineSet
645.19 -205.003 m 258
 589.065 -205.003 513 -162.81 513 -75 c 258
 512.945 -31 l 258
 512.908 -1.08691 514.839 5 526 20 c 257
 490 20 l 257
 490 90 l 257
 557 132 l 257
 490 132 l 257
 490 202 l 257
 727 202 l 257
 727 132 l 257
 660 90 l 257
 727 90 l 257
 727 20 l 257
 712 20 682 20 682 20 c 258
 662.47 20 653 11.3271 653 -18 c 258
 652.844 -47 l 258
 652.964 -66.833 663.775 -75 686 -75 c 258
 717 -75 l 257
 717 -205 l 257
 645.19 -205.003 l 258
283 -8 m 257
 283 135 l 256
 335.527 135 337 170.963 337 188 c 256
 337 205.037 335.527 241 283 241 c 258
 271 241 l 257
 271 347 l 257
 371 347 l 257
 407.086 347 461 325.407 460.85 216 c 258
 461 166 l 258
 461 45.3369 399.689 -8 283 -8 c 257
227 -8 m 257
 87.7041 -8 30.4199 81.7373 30.0791 198 c 258
 30.0791 358 l 258
 30.4199 474.263 87.7041 564 227 564 c 257
 227 421 l 257
 174.888 421 171 375.857 171 348 c 258
 171 198 l 258
 171 173.959 174.888 135 227 135 c 257
 227 -8 l 257
490 202 m 257
 530.533 202 545.883 217.158 546 249.254 c 256
 546 282.169 546 315.085 546 348 c 256
 546 375.857 542.112 421 490 421 c 257
 490 564 l 257
 629.296 564 686.58 474.263 686.921 358 c 258
 686.921 249 l 257
 687.021 236.393 686.555 214 677 202 c 257
 490 202 l 257
254 241 m 256
 254 350 l 258
 254 468.007 290.062 564 434 564 c 257
 434 421 l 257
 388.192 421 393.466 376.492 392.835 350 c 258
 393 240.5 l 257
 254 241 l 256
EndSplineSet
Ligature2: "si_blws_3 subtable" si_Ga si_MatraUu
EndChar

StartChar: si_Ga
Encoding: 23 3484 133
GlifName: si_G_a
Width: 717
VWidth: 0
GlyphClass: 2
Flags: W
HStem: -8 143<200.944 227 200.944 227 283 309.264 200.944 341.345 490 516.057> 421 143<200.944 227 411.096 434 490 516.057>
VStem: 30 141 254 139<240.5 350 240.5 409.004> 337 124<105.669 196.519> 546 141
LayerCount: 2
Back
Fore
SplineSet
271 241 m 257
 271 347 l 257
 371 347 l 257
 407.086 347 461 325.407 460.85 216 c 258
 461 166 l 258
 461 45.3371 399.69 -8 283 -8 c 257
 283 135 l 256
 335.527 135 337 170.963 337 188 c 256
 337 205.037 335.527 241 283 241 c 258
 271 241 l 257
227 -8 m 257
 87.704 -8 30.4201 81.7376 30.0791 198 c 258
 30.0791 358 l 258
 30.4201 474.262 87.704 564 227 564 c 257
 227 421 l 257
 174.887 421 171 375.857 171 348 c 258
 171 198 l 258
 171 173.959 174.887 135 227 135 c 257
 227 -8 l 257
490 -8 m 257
 490 135 l 257
 542.113 135 546 173.959 546 198 c 258
 546 348 l 258
 546 375.857 542.113 421 490 421 c 257
 490 564 l 257
 629.296 564 686.58 474.262 686.921 358 c 258
 686.921 198 l 258
 686.58 81.7376 629.296 -8 490 -8 c 257
254 241 m 256
 254 350 l 258
 254 468.007 290.062 564 434 564 c 257
 434 421 l 257
 388.193 421 393.466 376.492 392.835 350 c 258
 393 240.5 l 257
 254 241 l 256
EndSplineSet
PickledDataWithLists: "(dp1
S'com.fontlab.hintData'
p2
(dp3
S'vhints'
p4
(lp5
(dp6
S'position'
p7
I30
sS'width'
p8
I141
sa(dp9
g7
I254
sg8
I139
sa(dp10
g7
I337
sg8
I124
sa(dp11
g7
I546
sg8
I141
sasS'hhints'
p12
(lp13
(dp14
g7
I-8
sg8
I143
sa(dp15
g7
I421
sg8
I143
sass."
EndChar

StartChar: si_GhR.halant
Encoding: 65537 -1 139
GlifName: si_G_hR_.halant
Width: 687
VWidth: 0
GlyphClass: 2
Flags: W
LayerCount: 2
Back
Fore
SplineSet
385 -103 m 257
 386 -103 l 258
 534 -103 535.25 0 510 0 c 257
 643 89 l 257
 714.992 -37.9238 624 -234 414 -234 c 258
 385.115 -233.947 l 257
 385 -103 l 257
330.115 -233.947 m 257
 312 -234 l 258
 187 -234 62.833 -165.25 62.833 -37.0908 c 257
 203.833 -37.0908 l 257
 203.833 -72.5898 256 -103 320 -103 c 258
 330 -103 l 257
 330.115 -233.947 l 257
EndSplineSet
Refer: 160 3530 N 1 0 0 1 401 0 2
Refer: 145 3485 N 1 0 0 1 0 0 2
EndChar

StartChar: si_GhRI
Encoding: 125 -1 140
GlifName: si_G_hR_I_
Width: 687
VWidth: 0
GlyphClass: 3
Flags: W
LayerCount: 2
Back
Fore
SplineSet
385 -103 m 257
 386 -103 l 258
 534 -103 535.25 0 510 0 c 257
 643 89 l 257
 714.992 -37.9238 624 -234 414 -234 c 258
 385.115 -233.947 l 257
 385 -103 l 257
330.115 -233.947 m 257
 312 -234 l 258
 187 -234 62.833 -165.25 62.833 -37.0908 c 257
 203.833 -37.0908 l 257
 203.833 -72.5898 256 -103 320 -103 c 258
 330 -103 l 257
 330.115 -233.947 l 257
EndSplineSet
Refer: 137 -1 N 1 0 0 1 0 0 2
Ligature2: "si_abvs_3 subtable" si_GhRa si_MatraI
EndChar

StartChar: si_GhRIi
Encoding: 126 -1 141
GlifName: si_G_hR_I_i
Width: 687
VWidth: 0
GlyphClass: 3
Flags: W
LayerCount: 2
Back
Fore
SplineSet
385 -103 m 257
 386 -103 l 258
 534 -103 535.25 0 510 0 c 257
 643 89 l 257
 714.992 -37.9238 624 -234 414 -234 c 258
 385.115 -233.947 l 257
 385 -103 l 257
330.115 -233.947 m 257
 312 -234 l 258
 187 -234 62.833 -165.25 62.833 -37.0908 c 257
 203.833 -37.0908 l 257
 203.833 -72.5898 256 -103 320 -103 c 258
 330 -103 l 257
 330.115 -233.947 l 257
EndSplineSet
Refer: 138 -1 N 1 0 0 1 0 0 2
Ligature2: "si_abvs_4 subtable" si_GhRa si_MatraIi
EndChar

StartChar: si_GhRa
Encoding: 127 -1 142
GlifName: si_G_hR_a
Width: 687
VWidth: 0
GlyphClass: 3
Flags: W
LayerCount: 2
Back
Fore
SplineSet
385 -103 m 257
 386 -103 l 258
 534 -103 535.25 0 510 0 c 257
 643 89 l 257
 714.992 -37.9238 624 -234 414 -234 c 258
 385.115 -233.947 l 257
 385 -103 l 257
330.115 -233.947 m 257
 312 -234 l 258
 187 -234 62.833 -165.25 62.833 -37.0908 c 257
 203.833 -37.0908 l 257
 203.833 -72.5898 256 -103 320 -103 c 258
 330 -103 l 257
 330.115 -233.947 l 257
EndSplineSet
Refer: 145 3485 N 1 0 0 1 0 0 2
Ligature2: "si_rakaar subtable" si_Gha si_Halant si_Ra
EndChar

StartChar: si_GhU
Encoding: 121 -1 143
GlifName: si_G_hU_
Width: 687
VWidth: 0
GlyphClass: 3
Flags: W
LayerCount: 2
Back
Fore
SplineSet
508 131 m 257
 648 131 l 257
 648 -205 l 257
 508 -205 l 257
 508 131 l 257
388 -65 m 257
 518 -65 l 257
 518 -205 l 257
 388 -205 l 257
 388 -65 l 257
90 -65 m 257
 332 -65 l 257
 332 -205 l 257
 90 -205 l 257
 90 -65 l 257
EndSplineSet
Refer: 145 3485 N 1 0 0 1 0 0 2
Ligature2: "si_blws_1 subtable" si_Gha si_MatraU
EndChar

StartChar: si_GhUu
Encoding: 122 -1 144
GlifName: si_G_hU_u
Width: 687
VWidth: 0
GlyphClass: 3
Flags: W
LayerCount: 2
Back
Fore
SplineSet
80 -34 m 257
 120.479 -59.333 156.005 -67.7773 188.741 -67.7773 c 256
 240.051 -67.7773 282.616 -34 330 -34 c 257
 330 -174 l 257
 282.616 -174 240.051 -204.777 188.741 -204.777 c 256
 156.005 -204.777 120.479 -197.083 80 -174 c 257
 80 -34 l 257
508 131 m 257
 648 131 l 257
 648 -205 l 257
 508 -205 l 257
 508 131 l 257
388 -34 m 257
 417.143 -34 468.826 -39.9221 508 -61 c 257
 508 -205 l 257
 463.611 -180.252 424 -174 388 -174 c 257
 388 -34 l 257
EndSplineSet
Refer: 145 3485 N 1 0 0 1 0 0 2
Ligature2: "si_blws_3 subtable" si_Gha si_MatraUu
EndChar

StartChar: si_Gha
Encoding: 24 3485 145
GlifName: si_G_ha
Width: 687
VWidth: 0
GlyphClass: 2
Flags: W
HStem: -11 143<230 260 230 267.65 464 494> 101 103 251 151<67 206 67 67 206 206 518 534.18 30 657 518 518 518 518> 283 119<30 503 30 71 229.5 246 246 481> 378 24<298 426 298 298> 451 124
VStem: 67 139<160 166 166 199 160 199 160 251> 283 158<159.438 173.334> 298 128<378 397 378 420.082> 518 139<166 199 106 199 251 258.5 106 251>
LayerCount: 2
Back
Fore
SplineSet
230 -11 m 256
 133.026 -11 67 55 67 157 c 258
 67 199 l 257
 206 199 l 257
 206 166 l 258
 206 154 215 132 245 132 c 256
 275 132 283 152.875 283 166 c 257
 283 180.669 290.158 204 317 204 c 258
 407 204 l 258
 433.842 204 441 180.669 441 166 c 257
 441 152.875 449 132 479 132 c 256
 509 132 518 154 518 166 c 258
 518 199 l 257
 657 199 l 257
 657 157 l 258
 657 55 590.974 -11 494 -11 c 256
 418.7 -11 387 21.4156 387 68 c 256
 387 89.8078 374.492 100.723 361.987 100.723 c 256
 349.492 100.723 337 89.8224 337 68 c 256
 337 21.4156 305.3 -11 230 -11 c 256
78 460 m 257
 102.046 536.591 169.808 574.548 241.252 574.548 c 256
 282.892 574.548 325.784 561.654 362 536 c 257
 398.253 561.68 441.124 574.564 482.73 574.564 c 256
 554.221 574.564 621.975 536.524 646 460 c 257
 528 421 l 257
 523.584 436 508.783 451 481 451 c 256
 465.669 451 426 443.165 426 397 c 257
 426 378 l 257
 298 378 l 257
 298 397 l 257
 298 443.165 258.331 451 243 451 c 256
 215.217 451 200.416 436 196 421 c 257
 78 460 l 257
30 283 m 257
 30 402 l 257
 503 402 l 258
 565.36 402 657 391.937 657 279 c 258
 657 251 l 257
 518 251 l 257
 518 251 518 251 518 251 c 256
 518 266 509 283 481 283 c 258
 246 283 l 258
 213 283 206 263 206 251 c 256
 206 251 206 251 206 251 c 257
 67 251 l 257
 67.1724 254.17 67.5094 264.734 68.4362 272.892 c 256
 69.0206 278.038 69.8397 282.226 71 283 c 257
 30 283 l 257
EndSplineSet
PickledDataWithLists: "(dp1
S'com.fontlab.hintData'
p2
(dp3
S'vhints'
p4
(lp5
(dp6
S'position'
p7
I67
sS'width'
p8
I139
sa(dp9
g7
I283
sg8
I158
sa(dp10
g7
I298
sg8
I128
sa(dp11
g7
I518
sg8
I139
sasS'hhints'
p12
(lp13
(dp14
g7
I-11
sg8
I143
sa(dp15
g7
I101
sg8
I103
sa(dp16
g7
I251
sg8
I151
sa(dp17
g7
I283
sg8
I119
sa(dp18
g7
I378
sg8
I24
sa(dp19
g7
I451
sg8
I124
sass."
EndChar

StartChar: si_HR.halant
Encoding: 432 -1 151
GlifName: si_H_R_.halant
Width: 716
VWidth: 0
GlyphClass: 2
Flags: W
LayerCount: 2
Back
Fore
SplineSet
388 -103 m 257
 397 -103 l 258
 545 -103 546.25 0 521 0 c 257
 654 89 l 257
 725.992 -37.9238 635 -234 425 -234 c 258
 388.115 -233.947 l 257
 388 -103 l 257
333.115 -233.947 m 257
 305 -234 l 258
 180 -234 55.833 -165.25 55.833 -37.0908 c 257
 196.833 -37.0908 l 257
 196.833 -72.5898 249 -103 313 -103 c 258
 333 -103 l 257
 333.115 -233.947 l 257
EndSplineSet
Refer: 148 -1 N 1 0 0 1 0 0 2
EndChar

StartChar: si_HRI
Encoding: 434 -1 152
GlifName: si_H_R_I_
Width: 716
VWidth: 0
GlyphClass: 2
Flags: W
LayerCount: 2
Back
Fore
SplineSet
388 -103 m 257
 397 -103 l 258
 545 -103 546.25 0 521 0 c 257
 654 89 l 257
 725.992 -37.9238 635 -234 425 -234 c 258
 388.115 -233.947 l 257
 388 -103 l 257
333.115 -233.947 m 257
 305 -234 l 258
 180 -234 55.833 -165.25 55.833 -37.0908 c 257
 196.833 -37.0908 l 257
 196.833 -72.5898 249 -103 313 -103 c 258
 333 -103 l 257
 333.115 -233.947 l 257
EndSplineSet
Refer: 149 -1 N 1 0 0 1 0 0 2
EndChar

StartChar: si_HRIi
Encoding: 435 -1 153
GlifName: si_H_R_I_i
Width: 716
VWidth: 0
GlyphClass: 3
Flags: W
LayerCount: 2
Back
Fore
SplineSet
388 -103 m 257
 397 -103 l 258
 545 -103 546.25 0 521 0 c 257
 654 89 l 257
 725.992 -37.9238 635 -234 425 -234 c 258
 388.115 -233.947 l 257
 388 -103 l 257
333.115 -233.947 m 257
 305 -234 l 258
 180 -234 55.833 -165.25 55.833 -37.0908 c 257
 196.833 -37.0908 l 257
 196.833 -72.5898 249 -103 313 -103 c 258
 333 -103 l 257
 333.115 -233.947 l 257
EndSplineSet
Refer: 150 -1 N 1 0 0 1 0 0 2
Ligature2: "si_abvs_4 subtable" si_HRa si_MatraIi
EndChar

StartChar: si_HRa
Encoding: 433 -1 154
GlifName: si_H_R_a
Width: 716
VWidth: 0
GlyphClass: 3
Flags: W
LayerCount: 2
Back
Fore
SplineSet
388 -103 m 257
 397 -103 l 258
 545 -103 546.25 0 521 0 c 257
 654 89 l 257
 725.992 -37.9238 635 -234 425 -234 c 258
 388.115 -233.947 l 257
 388 -103 l 257
333.115 -233.947 m 257
 305 -234 l 258
 180 -234 55.833 -165.25 55.833 -37.0908 c 257
 196.833 -37.0908 l 257
 196.833 -72.5898 249 -103 313 -103 c 258
 333 -103 l 257
 333.115 -233.947 l 257
EndSplineSet
Refer: 157 3524 N 1 0 0 1 0 0 2
Ligature2: "si_rakaar subtable" si_Ha si_Halant si_Ra
EndChar

StartChar: si_HU
Encoding: 429 -1 155
GlifName: si_H_U_
Width: 716
VWidth: 0
GlyphClass: 3
Flags: W
LayerCount: 2
Back
Fore
SplineSet
538 131 m 257
 678 131 l 257
 678 -205 l 257
 538 -205 l 257
 538 131 l 257
418 -65 m 257
 548 -65 l 257
 548 -205 l 257
 418 -205 l 257
 418 -65 l 257
120 -65 m 257
 362 -65 l 257
 362 -205 l 257
 120 -205 l 257
 120 -65 l 257
EndSplineSet
Refer: 157 3524 N 1 0 0 1 0 0 2
Ligature2: "si_blws_1 subtable" si_Ha si_MatraU
EndChar

StartChar: si_HUu
Encoding: 430 -1 156
GlifName: si_H_U_u
Width: 716
VWidth: 0
GlyphClass: 3
Flags: W
LayerCount: 2
Back
Fore
SplineSet
110 -34 m 257
 150.479 -59.333 186.005 -67.7773 218.741 -67.7773 c 256
 270.051 -67.7773 312.616 -34 360 -34 c 257
 360 -174 l 257
 312.616 -174 270.051 -204.777 218.741 -204.777 c 256
 186.005 -204.777 150.479 -197.083 110 -174 c 257
 110 -34 l 257
538 131 m 257
 678 131 l 257
 678 -205 l 257
 538 -205 l 257
 538 131 l 257
416 -34 m 257
 445.143 -34 498.826 -39.9221 538 -61 c 257
 538 -205 l 257
 493.611 -180.252 452 -174 416 -174 c 257
 416 -34 l 257
EndSplineSet
Refer: 157 3524 N 1 0 0 1 0 0 2
Ligature2: "si_blws_3 subtable" si_Ha si_MatraUu
EndChar

StartChar: si_Ha
Encoding: 59 3524 157
GlifName: si_H_a
Width: 716
VWidth: 0
GlyphClass: 2
Flags: W
HStem: -8 143<200.944 227 200.944 227 282 308.264 200.944 340.345 489 515.056> 400 24 421 143<412.018 433 489 515.056> 462 102
VStem: 38 141 261 14 344 124 553 141
LayerCount: 2
Back
Fore
SplineSet
391.844 344.25 m 257
 424.504 338.728 459.972 304.768 459.85 216 c 258
 460 166 l 258
 460 45.3369 398.689 -8 282 -8 c 257
 282 135 l 257
 334.527 135 336 170.963 336 188 c 256
 336 204.457 334.626 238.572 287.191 240.877 c 258
 253 241 l 257
 253 350 l 258
 253 468.007 289.062 564 433 564 c 257
 433 421 l 257
 391.035 421 391.359 381.885 391.763 352.649 c 256
 391.803 349.735 391.844 346.919 391.844 344.25 c 257
489 -8 m 257
 489 135 l 257
 541.112 135 545 173.959 545 198 c 258
 545 348 l 258
 545 375.857 541.112 421 489 421 c 257
 489 564 l 257
 628.296 564 685.58 474.263 685.921 358 c 258
 685.921 198 l 258
 685.58 81.7373 628.296 -8 489 -8 c 257
227 -8 m 257
 87.7041 -8 30.0791 81.7373 30.0791 198 c 258
 30.0791 238 l 258
 30.0791 339.386 83.8538 418.432 213 423.718 c 256
 213 423.718 213 423.718 213 423.718 c 257
 213 449.08 200.563 461.951 170.15 461.951 c 256
 152.244 461.951 134.712 454.054 131 437.352 c 257
 32 463.352 l 257
 54.7783 532.349 114.161 563.617 172.772 563.617 c 256
 244.971 563.617 316 516.172 316 433.352 c 258
 316 281 l 257
 227 281 l 258
 174.888 281 171 248.226 171 228 c 258
 171 198 l 258
 171 173.959 174.888 135 227 135 c 257
 227 -8 l 257
EndSplineSet
PickledDataWithLists: "(dp1
S'com.fontlab.hintData'
p2
(dp3
S'vhints'
p4
(lp5
(dp6
S'position'
p7
I38
sS'width'
p8
I141
sa(dp9
g7
I261
sg8
I14
sa(dp10
g7
I344
sg8
I124
sa(dp11
g7
I553
sg8
I141
sasS'hhints'
p12
(lp13
(dp14
g7
I-8
sg8
I143
sa(dp15
g7
I400
sg8
I24
sa(dp16
g7
I421
sg8
I143
sa(dp17
g7
I462
sg8
I102
sass."
EndChar

StartChar: si_Halant
Encoding: 62 3530 160
GlifName: si_H_alant
Width: 196
VWidth: 0
GlyphClass: 2
Flags: W
HStem: 619 200<30.001 166.001 30.001 166.001>
VStem: 30 136
LayerCount: 2
Back
Fore
SplineSet
30.001 619 m 257
 30.001 819 l 257
 166.001 819 l 257
 166.001 619 l 257
 30.001 619 l 257
EndSplineSet
PickledDataWithLists: "(dp1
S'com.fontlab.hintData'
p2
(dp3
S'vhints'
p4
(lp5
(dp6
S'position'
p7
I30
sS'width'
p8
I136
sasS'hhints'
p9
(lp10
(dp11
g7
I619
sg8
I200
sass."
EndChar

StartChar: si_I
Encoding: 7 3465 161
GlifName: si_I_
Width: 569
VWidth: 0
GlyphClass: 2
Flags: W
HStem: -204 126<237.656 262.356 237.656 307.5> 0 128<196 225 196 225 225 278.1 196 287> 176 140<183.089 208.839 183.089 263.701> 428 141
VStem: 30 138<363.5 363.5 363.5 381 363.5 438.563> 224 130<347 365 253.058 365> 402 137<278 336 336 371.944>
LayerCount: 2
Back
Fore
SplineSet
196 0 m 257
 196 128 l 257
 205.667 128 215.333 128 225 128 c 256
 331.2 128 402 171.955 402 278 c 258
 402 336 l 258
 402 407.888 366 428.479 312 428.479 c 256
 312 569 l 256
 328 569 l 257
 431.754 569 539 496.126 539 380 c 258
 539 249 l 258
 539 85.834 411.519 0 287 0 c 258
 196 0 l 257
65 -81 m 257
 198 -47 l 257
 203.173 -67.3711 227.311 -78 248 -78 c 256
 276.711 -78 297 -61.1494 297 -45 c 257
 434 -45 l 257
 434 -136.261 367.001 -204 248 -204 c 256
 142.498 -204 86.8809 -148.451 65 -81 c 257
30 317.5 m 258
 30 381 l 258
 30 496.126 137.246 569 241 569 c 257
 257 569 l 256
 257 428.479 l 257
 241 428.479 l 257
 199.286 428.479 168.156 405.334 168 363.5 c 258
 167.903 346.122 l 258
 167.903 333.348 170.178 316 196 316 c 256
 221.678 316 224 332.729 224 347 c 258
 224 365 l 257
 354 365 l 257
 354 355.55 354 277 354 277 c 258
 354 229.115 331.402 176 196 176 c 256
 73.9854 176 30 250.131 30 317.5 c 258
EndSplineSet
PickledDataWithLists: "(dp1
S'com.fontlab.hintData'
p2
(dp3
S'vhints'
p4
(lp5
(dp6
S'position'
p7
I30
sS'width'
p8
I138
sa(dp9
g7
I224
sg8
I130
sa(dp10
g7
I402
sg8
I137
sasS'hhints'
p11
(lp12
(dp13
g7
I-204
sg8
I126
sa(dp14
g7
I0
sg8
I128
sa(dp15
g7
I176
sg8
I140
sa(dp16
g7
I428
sg8
I141
sass."
EndChar

StartChar: si_Ii
Encoding: 8 3466 162
GlifName: si_I_i
Width: 609
VWidth: 0
GlyphClass: 2
Flags: W
HStem: -6 145 587 145<516 556> 697 145
VStem: 30 140 50 146<749.502 789.002> 375 140 463 146<639.5 679>
LayerCount: 2
Back
Fore
SplineSet
463 659 m 256
 463 699 496 732 536 732 c 256
 576 732 609 699 609 659 c 256
 609 620 576 587 536 587 c 256
 496 587 463 620 463 659 c 256
50 769.002 m 256
 50 809.002 83 842.002 123 842.002 c 256
 163 842.002 196 809.002 196 769.002 c 256
 196 730.002 163 697.002 123 697.002 c 256
 83 697.002 50 730.002 50 769.002 c 256
EndSplineSet
Refer: 407 3515 N 1 0 0 1 0 0 2
PickledDataWithLists: "(dp1
S'com.fontlab.hintData'
p2
(dp3
S'vhints'
p4
(lp5
(dp6
S'position'
p7
I30
sS'width'
p8
I140
sa(dp9
g7
I50
sg8
I146
sa(dp10
g7
I375
sg8
I140
sa(dp11
g7
I463
sg8
I146
sasS'hhints'
p12
(lp13
(dp14
g7
I-6
sg8
I145
sa(dp15
g7
I587
sg8
I145
sa(dp16
g7
I697
sg8
I145
sass."
EndChar

StartChar: si_J.halant
Encoding: 151 -1 163
GlifName: si_J_.halant
Width: 653
VWidth: 0
GlyphClass: 3
Flags: W
HStem: 619 200
VStem: 32 136
LayerCount: 2
Back
Fore
SplineSet
316.001 529 m 257
 316.001 819 l 257
 447.001 819 l 257
 447.001 696 l 257
 323.685 529 l 257
 316.001 529 l 257
EndSplineSet
Refer: 172 3490 N 1 0 0 1 0 0 2
PickledDataWithLists: "(dp1
S'com.fontlab.hintData'
p2
(dp3
S'vhints'
p4
(lp5
(dp6
S'position'
p7
I32
sS'width'
p8
I136
sasS'hhints'
p9
(lp10
(dp11
g7
I619
sg8
I200
sass."
Ligature2: "si_halant_1 subtable" si_Ja si_Halant
EndChar

StartChar: si_JI
Encoding: 152 -1 164
GlifName: si_J_I_
Width: 653
VWidth: 0
GlyphClass: 3
Flags: W
LayerCount: 2
Back
Fore
SplineSet
298.107 580.1 m 257
 281.463 592.903 l 257
 225.765 635.396 222.041 711.235 267.435 770.239 c 257
 289 799 l 257
 334.394 858.003 408.65 873.851 464.005 830.908 c 257
 480.648 818.104 l 257
 421.197 740.826 l 257
 390.22 764.657 371.838 745.545 358.961 730.037 c 257
 352.029 720.301 l 257
 340.342 703.877 326.581 681.208 357.559 657.377 c 257
 298.107 580.1 l 257
EndSplineSet
Refer: 172 3490 N 1 0 0 1 -2 0 2
Ligature2: "si_abvs_1 subtable" si_Ja si_MatraI
EndChar

StartChar: si_JIi
Encoding: 153 -1 165
GlifName: si_J_I_i
Width: 653
VWidth: 0
GlyphClass: 3
Flags: W
LayerCount: 2
Back
Fore
SplineSet
310.498 590.985 m 257
 299.247 599.581 l 258
 243.578 642.112 227.363 703.3 272 762 c 258
 344.44 856.128 l 258
 373.679 894.119 429.193 902.885 468.447 873.064 c 256
 504.731 846.447 512.465 796.127 485.849 759.843 c 256
 464.682 730.988 415.897 725.909 392.688 742.935 c 256
 390.074 744.853 387.786 747.05 385.896 749.524 c 257
 369.036 727.402 l 258
 357.431 712.175 338.355 692.265 369.478 668.623 c 257
 310.498 590.985 l 257
EndSplineSet
Refer: 172 3490 N 1 0 0 1 0 0 2
Ligature2: "si_abvs_2 subtable" si_Ja si_MatraIi
EndChar

StartChar: si_JR.halant
Encoding: 157 -1 166
GlifName: si_J_R_.halant
Width: 653
VWidth: 0
GlyphClass: 2
Flags: W
LayerCount: 2
Back
Fore
SplineSet
341 -103 m 257
 493.188 -103 460.877 0 435 0 c 257
 568 89 l 257
 650.554 -56.5439 573 -234 341.115 -233.947 c 257
 341 -103 l 257
286.115 -233.947 m 257
 152 -234 37.833 -167.027 37.833 -37.0908 c 257
 178.833 -37.0908 l 257
 178.833 -72.625 217.901 -103 286 -103 c 257
 286.115 -233.947 l 257
EndSplineSet
Refer: 163 -1 N 1 0 0 1 0 0 2
EndChar

StartChar: si_JRI
Encoding: 159 -1 167
GlifName: si_J_R_I_
Width: 653
VWidth: 0
GlyphClass: 3
Flags: W
LayerCount: 2
Back
Fore
SplineSet
341 -103 m 257
 493.188 -103 460.877 0 435 0 c 257
 568 89 l 257
 650.554 -56.5439 573 -234 341.115 -233.947 c 257
 341 -103 l 257
286.115 -233.947 m 257
 152 -234 37.833 -167.027 37.833 -37.0908 c 257
 178.833 -37.0908 l 257
 178.833 -72.625 217.901 -103 286 -103 c 257
 286.115 -233.947 l 257
EndSplineSet
Refer: 164 -1 N 1 0 0 1 0 0 2
Ligature2: "si_abvs_3 subtable" si_JRa si_MatraI
EndChar

StartChar: si_JRIi
Encoding: 160 -1 168
GlifName: si_J_R_I_i
Width: 653
VWidth: 0
GlyphClass: 3
Flags: W
LayerCount: 2
Back
Fore
SplineSet
341 -103 m 257
 493.188 -103 460.877 0 435 0 c 257
 568 89 l 257
 650.554 -56.5439 573 -234 341.115 -233.947 c 257
 341 -103 l 257
286.115 -233.947 m 257
 152 -234 37.833 -167.027 37.833 -37.0908 c 257
 178.833 -37.0908 l 257
 178.833 -72.625 217.901 -103 286 -103 c 257
 286.115 -233.947 l 257
EndSplineSet
Refer: 165 -1 N 1 0 0 1 0 0 2
Ligature2: "si_abvs_4 subtable" si_JRa si_MatraIi
EndChar

StartChar: si_JRa
Encoding: 158 -1 169
GlifName: si_J_R_a
Width: 653
VWidth: 0
GlyphClass: 3
Flags: W
LayerCount: 2
Back
Fore
SplineSet
341 -103 m 257
 493.188 -103 460.877 0 435 0 c 257
 568 89 l 257
 650.554 -56.5439 573 -234 341.115 -233.947 c 257
 341 -103 l 257
286.115 -233.947 m 257
 152 -234 37.833 -167.027 37.833 -37.0908 c 257
 178.833 -37.0908 l 257
 178.833 -72.625 217.901 -103 286 -103 c 257
 286.115 -233.947 l 257
EndSplineSet
Refer: 172 3490 N 1 0 0 1 0 0 2
Ligature2: "si_rakaar subtable" si_Ja si_Halant si_Ra
EndChar

StartChar: si_JU
Encoding: 154 -1 170
GlifName: si_J_U_
Width: 653
VWidth: 0
GlyphClass: 3
Flags: W
LayerCount: 2
Back
Fore
SplineSet
50 -65 m 257
 286 -65 l 257
 286 -205 l 257
 50 -205 l 257
 50 -65 l 257
342 -65 m 257
 448 -65 l 257
 448 -205 l 257
 342 -205 l 257
 342 -65 l 257
438 131 m 257
 578 131 l 257
 578 -205 l 257
 438 -205 l 257
 438 131 l 257
EndSplineSet
Refer: 172 3490 N 1 0 0 1 0 0 2
Ligature2: "si_blws_1 subtable" si_Ja si_MatraU
EndChar

StartChar: si_JUu
Encoding: 155 -1 171
GlifName: si_J_U_u
Width: 653
VWidth: 0
GlyphClass: 3
Flags: W
LayerCount: 2
Back
Fore
SplineSet
50 -34 m 257
 90.4791 -59.333 126.005 -67.7773 158.741 -67.7773 c 256
 204.603 -67.7773 242.648 -34 285 -34 c 257
 285 -174 l 257
 242.648 -174 204.603 -204.777 158.741 -204.777 c 256
 126.005 -204.777 90.4791 -197.083 50 -174 c 257
 50 -34 l 257
343 -34 m 257
 366.071 -34 406.987 -39.9221 438 -61 c 257
 438 -205 l 257
 402.858 -180.252 371.5 -174 343 -174 c 257
 343 -34 l 257
438 131 m 257
 578 131 l 257
 578 -205 l 257
 438 -205 l 257
 438 131 l 257
EndSplineSet
Refer: 172 3490 N 1 0 0 1 0 0 2
Ligature2: "si_blws_3 subtable" si_Ja si_MatraUu
EndChar

StartChar: si_Ja
Encoding: 29 3490 172
GlifName: si_J_a
Width: 653
VWidth: 0
GlyphClass: 2
Flags: W
HStem: -12 135<278 289 289 342> 378 24<250 378 250 250> 451 124
VStem: 34 140<175.4 202 175.4 202> 250 128<378 397 378 420.082> 454 140<176.5 202>
LayerCount: 2
Back
Fore
SplineSet
30 460 m 257
 54.0459 536.591 121.808 574.548 193.252 574.548 c 256
 234.893 574.548 277.783 561.654 314 536 c 257
 350.253 561.681 393.124 574.564 434.729 574.564 c 256
 506.221 574.564 573.975 536.524 598 460 c 257
 480 421 l 257
 475.584 436 460.783 451 433 451 c 256
 417.669 451 378 443.165 378 397 c 257
 378 378 l 257
 250 378 l 257
 250 397 l 257
 250 443.165 210.331 451 195 451 c 256
 167.217 451 152.416 436 148 421 c 257
 30 460 l 257
289 -12 m 258
 112 -12 34 59.2461 34 202 c 257
 174 202 l 257
 174 148.801 215 123 278 123 c 258
 350 123 l 258
 415 123 454 151 454 202 c 257
 594 202 l 257
 594 64 511 -12 342 -12 c 258
 289 -12 l 258
35 251 m 257
 35 373 101 402 198 402 c 258
 423 402 l 258
 531 402 594 377 594 251 c 257
 455 251 l 257
 455 263 455 283 426 283 c 258
 209 283 l 258
 175.738 283 174.001 262.104 174 251 c 257
 35 251 l 257
302 522 m 257
 507.721 793 l 257
 653 755 l 257
 436 470 l 257
 302 522 l 257
EndSplineSet
PickledDataWithLists: "(dp1
S'com.fontlab.hintData'
p2
(dp3
S'vhints'
p4
(lp5
(dp6
S'position'
p7
I34
sS'width'
p8
I140
sa(dp9
g7
I250
sg8
I128
sa(dp10
g7
I454
sg8
I140
sasS'hhints'
p11
(lp12
(dp13
g7
I-12
sg8
I135
sa(dp14
g7
I378
sg8
I24
sa(dp15
g7
I451
sg8
I124
sass."
EndChar

StartChar: si_Ja.reph
Encoding: 156 -1 173
GlifName: si_J_a.reph
Width: 653
VWidth: 0
GlyphClass: 3
Flags: W
LayerCount: 2
Back
Fore
SplineSet
245.047 587.853 m 256
 166.138 587.853 129.232 644.237 129.232 701.31 c 256
 129.232 759.794 167.984 819 240 819 c 258
 341 819 l 258
 421.645 819 463 771.21 463 699.75 c 258
 463.047 617.75 l 257
 375.047 617.853 l 257
 375.047 678.853 l 257
 375.047 717.937 354.439 720.103 318.297 720.853 c 257
 243.047 720.853 l 258
 230.047 720.853 219.047 709.853 219.047 696.853 c 256
 219.047 683.853 230.047 672.853 243.047 672.853 c 256
 256.047 672.853 267.047 683.853 267.047 696.853 c 257
 348.047 696.853 l 257
 348.047 646.985 330.01 587.853 245.047 587.853 c 256
EndSplineSet
Refer: 172 3490 N 1 0 0 1 0 0 2
Ligature2: "si_abvs_7 subtable" si_Ja si_Reph
EndChar

StartChar: si_Jh.halant
Encoding: 161 -1 175
GlifName: si_J_h.halant
Width: 1138
VWidth: 0
GlyphClass: 3
Flags: W
HStem: -8 140<737 767 737 770.979 932.075 943> 200 2 336 138 616 138
VStem: 30 138 245 100 422 141
LayerCount: 2
Back
Fore
SplineSet
876.167 703 m 257
 876.167 819 l 257
 921.667 819 l 258
 1070.03 819 1095 756 1095 673 c 257
 959.667 673 l 257
 959.667 700 935 703 889.667 703 c 258
 876.167 703 l 257
967 202 m 257
 967 455 l 258
 967 514 926.403 522 876.667 522 c 257
 876.667 652 l 257
 1036.3 652 1108 590 1108 474 c 258
 1108 202 l 257
 967 202 l 257
30 439 m 257
 44 537 136.521 567 198 567 c 256
 270.695 567 320 533 337 502 c 257
 245 402 l 257
 245 437 214.169 446 198 446 c 256
 164.069 446 147 422.741 147 402 c 257
 30 439 l 257
30 160 m 257
 30 259 l 257
 335 509 l 257
 398.426 555.861 476.827 577.68 551.435 577.68 c 256
 685.875 577.68 808 508.833 808 336 c 257
 671 336 l 257
 671 420 606.732 442.604 548.153 442.604 c 256
 505.759 442.604 460.268 428.97 425 400 c 257
 155 181.392 l 257
 30 160 l 257
757 -8 m 256
 650.004 -8 575 58 575 160 c 258
 574.999 261.926 l 258
 574.999 322.761 583.119 399.396 668 434.645 c 257
 745.667 454 l 257
 808 336 l 257
 785.667 336 l 257
 745.667 336 713 322 713 262 c 258
 713 166 l 258
 713 154 722 132 752 132 c 256
 782 132 790 152.875 790 166 c 258
 790 202 l 257
 890 202 l 257
 890 166 l 258
 890 152.875 898 132 928 132 c 256
 958 132 967 154 967 166 c 258
 967 202 l 257
 1108 202 l 257
 1108 160 l 258
 1108 58 1041.38 -8 949 -8 c 256
 915.151 -8 873.925 3.4668 845 35 c 257
 821.108 3.4668 784.959 -8 757 -8 c 256
30 160 m 257
 147 255 l 257
 165.91 239.066 180.861 220.713 180.88 202 c 257
 181 160 l 258
 181.054 141.248 195.791 131.885 210.521 131.885 c 256
 225.264 131.885 240 141.265 240 160 c 258
 240 202 l 257
 339.88 202 l 257
 340 162 l 258
 340.061 141.747 355.048 131.634 370.026 131.634 c 256
 385.017 131.634 400 141.765 400 162 c 258
 400.004 202.128 l 258
 400.004 233.327 393.873 258.737 351 276 c 257
 448.224 354.096 l 257
 511.602 326.931 529 279.827 529 218 c 258
 529 136 l 258
 529 47.0805 455.346 -7.17 384.54 -7.17 c 256
 349.123 -7.17 314.418 6.40316 290 36 c 257
 269.556 6.1516 237.055 -6.59313 203.041 -6.59313 c 256
 136.876 -6.59313 64.988 41.6331 65 106 c 258
 65.0029 121.756 l 258
 65.0029 141.945 64.3154 161.906 41.2734 161.906 c 256
 37.9902 161.906 34.2529 161.3 30 160 c 257
594 522 m 257
 594 652 l 257
 644 652 l 258
 627.708 652 611.543 678.371 611.543 710.154 c 256
 611.543 758.353 648.718 819 779 819 c 258
 820.667 819 l 257
 820.667 703 l 257
 787.667 703 l 258
 758.729 703 752.409 688.847 752.409 676.362 c 256
 752.409 661.503 765.732 652 787.667 652 c 258
 819 652 l 257
 819 522 l 257
 594 522 l 257
EndSplineSet
PickledDataWithLists: "(dp1
S'com.fontlab.hintData'
p2
(dp3
S'vhints'
p4
(lp5
(dp6
S'position'
p7
I30
sS'width'
p8
I138
sa(dp9
g7
I245
sg8
I100
sa(dp10
g7
I422
sg8
I141
sasS'hhints'
p11
(lp12
(dp13
g7
I-8
sg8
I140
sa(dp14
g7
I200
sg8
I2
sa(dp15
g7
I336
sg8
I138
sa(dp16
g7
I616
sg8
I138
sass."
Ligature2: "si_halant_1 subtable" si_Jha si_Halant
EndChar

StartChar: si_JhI
Encoding: 162 -1 176
GlifName: si_J_hI_
Width: 1138
VWidth: 0
GlyphClass: 3
Flags: W
LayerCount: 2
Back
Fore
SplineSet
203.041 -6.59313 m 256
 136.875 -6.59313 64.9877 41.6331 65 106 c 258
 65.0029 121.756 l 258
 65.0029 141.945 64.3154 161.906 41.2734 161.906 c 256
 37.9902 161.906 34.2529 161.3 30 160 c 257
 147 255 l 257
 165.91 239.066 180.861 220.713 180.88 202 c 257
 181 160 l 258
 181.054 141.248 195.791 131.885 210.521 131.885 c 256
 225.264 131.885 240 141.265 240 160 c 258
 240 202 l 257
 339.88 202 l 257
 340 162 l 258
 340.061 141.747 355.048 131.634 370.026 131.634 c 256
 385.017 131.634 400 141.765 400 162 c 258
 400.004 202.128 l 258
 400.004 233.327 393.873 258.736 351 276 c 257
 448.224 354.096 l 257
 511.602 326.931 529 279.827 529 218 c 258
 529 136 l 258
 529 47.0805 455.346 -7.17 384.539 -7.17 c 256
 349.123 -7.17 314.418 6.40316 290 36 c 257
 269.556 6.1516 237.054 -6.59313 203.041 -6.59313 c 256
757 -8 m 256
 650.004 -8 575 58 575 160 c 258
 574.999 261.926 l 258
 574.999 322.761 583.119 399.396 668 434.645 c 257
 745.667 454 l 257
 808 336 l 257
 785.667 336 l 257
 745.667 336 713 322 713 262 c 258
 713 166 l 258
 713 154 722 132 752 132 c 256
 782 132 790 152.875 790 166 c 258
 790 202 l 257
 890 202 l 257
 890 166 l 258
 890 152.875 898 132 928 132 c 256
 958 132 967 154 967 166 c 258
 967 202 l 257
 1108 202 l 257
 1108 160 l 258
 1108 58 1041.38 -8 949 -8 c 256
 915.151 -8 873.925 3.4668 845 35 c 257
 821.108 3.4668 784.959 -8 757 -8 c 256
763 522 m 257
 644.875 522 585.625 576.407 585.625 670.735 c 256
 585.625 744.907 644.625 819 763 819 c 257
 816 819 l 257
 816 703 l 257
 742 703 l 257
 721.5 703 711.25 690.25 711.25 677.5 c 256
 711.25 664.75 721.5 652 742 652 c 257
 814 652 l 257
 814 522 l 257
 763 522 l 257
30 160 m 257
 30 259 l 257
 335 509 l 257
 398.426 555.861 476.827 577.68 551.435 577.68 c 256
 685.875 577.68 808 508.833 808 336 c 257
 671 336 l 257
 671 420 606.732 442.604 548.153 442.604 c 256
 505.759 442.604 460.268 428.97 425 400 c 257
 155 181.392 l 257
 30 160 l 257
147 402 m 257
 30 439 l 257
 44 537 136.521 567 198 567 c 256
 270.694 567 320 533 337 502 c 257
 245 402 l 257
 245 437 214.169 446 198 446 c 256
 164.069 446 147 422.741 147 402 c 257
967 202 m 257
 967 454 l 258
 967 514 925.736 522 872 522 c 257
 872 652 l 257
 1035.64 652 1108 590 1108 474 c 258
 1108 202 l 257
 967 202 l 257
959 673 m 257
 959 700 934.333 703 889 703 c 258
 871.5 703 l 257
 871.5 819 l 257
 921 819 l 258
 1049.36 819 1094.33 756 1094.33 673 c 257
 959 673 l 257
EndSplineSet
Ligature2: "si_abvs_1 subtable" si_Jha si_MatraI
EndChar

StartChar: si_JhIi
Encoding: 163 -1 177
GlifName: si_J_hI_i
Width: 1138
VWidth: 0
GlyphClass: 3
Flags: W
LayerCount: 2
Back
Fore
SplineSet
203.041 -6.59313 m 256
 136.875 -6.59313 64.9877 41.6331 65 106 c 258
 65.0029 121.756 l 258
 65.0029 141.945 64.3154 161.906 41.2734 161.906 c 256
 37.9902 161.906 34.2529 161.3 30 160 c 257
 147 255 l 257
 165.91 239.066 180.861 220.713 180.88 202 c 257
 181 160 l 258
 181.054 141.248 195.791 131.885 210.521 131.885 c 256
 225.264 131.885 240 141.265 240 160 c 258
 240 202 l 257
 339.88 202 l 257
 340 162 l 258
 340.061 141.747 355.048 131.634 370.026 131.634 c 256
 385.017 131.634 400 141.765 400 162 c 258
 400.004 202.128 l 258
 400.004 233.327 393.873 258.736 351 276 c 257
 448.224 354.096 l 257
 511.602 326.931 529 279.827 529 218 c 258
 529 136 l 258
 529 47.0805 455.346 -7.17 384.539 -7.17 c 256
 349.123 -7.17 314.418 6.40316 290 36 c 257
 269.556 6.1516 237.054 -6.59313 203.041 -6.59313 c 256
757 -8 m 256
 650.004 -8 575 58 575 160 c 258
 574.999 261.926 l 258
 574.999 322.761 583.119 399.396 668 434.645 c 257
 745.667 454 l 257
 808 336 l 257
 785.667 336 l 257
 745.667 336 713 322 713 262 c 258
 713 166 l 258
 713 154 722 132 752 132 c 256
 782 132 790 152.875 790 166 c 258
 790 202 l 257
 890 202 l 257
 890 166 l 258
 890 152.875 898 132 928 132 c 256
 958 132 967 154 967 166 c 258
 967 202 l 257
 1108 202 l 257
 1108 160 l 258
 1108 58 1041.38 -8 949 -8 c 256
 915.151 -8 873.925 3.4668 845 35 c 257
 821.108 3.4668 784.959 -8 757 -8 c 256
773 522 m 258
 654.849 522 595.625 596.374 595.625 670.686 c 256
 595.625 744.874 654.651 819 773 819 c 258
 820 819 l 257
 820 703 l 257
 762 703 l 258
 737.558 703 725.36 688.518 725.36 674.028 c 256
 725.36 659.518 737.589 645 762 645 c 258
 819.667 645 l 257
 819.667 522 l 257
 773 522 l 258
30 160 m 257
 30 259 l 257
 335 509 l 257
 398.426 555.861 476.827 577.68 551.435 577.68 c 256
 685.875 577.68 808 508.833 808 336 c 257
 671 336 l 257
 671 420 606.732 442.604 548.153 442.604 c 256
 505.759 442.604 460.268 428.97 425 400 c 257
 155 181.392 l 257
 30 160 l 257
1003 603 m 256
 955.286 603 911.352 651.443 911.352 689.821 c 256
 911.352 694.39 911.975 698.815 913.287 703 c 257
 903 703 l 257
 876 703 l 257
 876 819 l 257
 1003 819 l 258
 1063 819 1111 771 1111 711 c 256
 1111 651 1063 603 1003 603 c 256
147 402 m 257
 30 439 l 257
 44 537 136.521 567 198 567 c 256
 270.694 567 320 533 337 502 c 257
 245 402 l 257
 245 437 214.169 446 198 446 c 256
 164.069 446 147 422.741 147 402 c 257
967 202 m 257
 967 454 l 258
 967 513.999 925.736 522 876 522 c 257
 876 645 l 257
 888.014 645 909.265 644.92 920.549 644.92 c 256
 1053.44 644.933 1108 596.255 1108 474 c 258
 1108 202 l 257
 967 202 l 257
EndSplineSet
Ligature2: "si_abvs_2 subtable" si_Jha si_MatraIi
EndChar

StartChar: si_JhR.halant
Encoding: 169 -1 178
GlifName: si_J_hR_.halant
Width: 1138
VWidth: 0
GlyphClass: 2
Flags: W
LayerCount: 2
Back
Fore
SplineSet
876.115 -233.947 m 257
 876 -103 l 257
 945.996 -103 979.402 -69.8561 979.402 -41.5412 c 256
 979.402 -20.4281 960.828 -2 925 -2 c 257
 1069 69 l 257
 1107.42 37.1117 1125.72 -4.24493 1125.72 -46.0959 c 256
 1125.72 -138.809 1035.92 -233.947 876.115 -233.947 c 257
821.115 -233.947 m 257
 677 -234 583.833 -167.027 583.833 -37.0908 c 257
 724.833 -37.0908 l 257
 724.833 -72.625 746.901 -103 821 -103 c 257
 821.115 -233.947 l 257
EndSplineSet
Refer: 175 -1 N 1 0 0 1 0 0 2
EndChar

StartChar: si_JhRI
Encoding: 171 -1 179
GlifName: si_J_hR_I_
Width: 1138
VWidth: 0
GlyphClass: 3
Flags: W
LayerCount: 2
Back
Fore
SplineSet
876.115 -233.947 m 257
 876 -103 l 257
 945.996 -103 979.402 -69.8561 979.402 -41.5412 c 256
 979.402 -20.4281 960.828 -2 925 -2 c 257
 1069 69 l 257
 1107.42 37.1117 1125.72 -4.24493 1125.72 -46.0959 c 256
 1125.72 -138.809 1035.92 -233.947 876.115 -233.947 c 257
821.115 -233.947 m 257
 677 -234 583.833 -167.027 583.833 -37.0908 c 257
 724.833 -37.0908 l 257
 724.833 -72.625 746.901 -103 821 -103 c 257
 821.115 -233.947 l 257
EndSplineSet
Refer: 176 -1 N 1 0 0 1 0 0 2
Ligature2: "si_abvs_3 subtable" si_JhRa si_MatraI
EndChar

StartChar: si_JhRIi
Encoding: 172 -1 180
GlifName: si_J_hR_I_i
Width: 1138
VWidth: 0
GlyphClass: 3
Flags: W
LayerCount: 2
Back
Fore
SplineSet
876.115 -233.947 m 257
 876 -103 l 257
 945.996 -103 979.402 -69.8561 979.402 -41.5412 c 256
 979.402 -20.4281 960.828 -2 925 -2 c 257
 1069 69 l 257
 1107.42 37.1117 1125.72 -4.24493 1125.72 -46.0959 c 256
 1125.72 -138.809 1035.92 -233.947 876.115 -233.947 c 257
821.115 -233.947 m 257
 677 -234 583.833 -167.027 583.833 -37.0908 c 257
 724.833 -37.0908 l 257
 724.833 -72.625 746.901 -103 821 -103 c 257
 821.115 -233.947 l 257
EndSplineSet
Refer: 177 -1 N 1 0 0 1 0 0 2
Ligature2: "si_abvs_4 subtable" si_JhRa si_MatraIi
EndChar

StartChar: si_JhRa
Encoding: 170 -1 181
GlifName: si_J_hR_a
Width: 1138
VWidth: 0
GlyphClass: 3
Flags: W
LayerCount: 2
Back
Fore
SplineSet
876.115 -233.947 m 257
 876 -103 l 257
 945.996 -103 979.402 -69.8561 979.402 -41.5412 c 256
 979.402 -20.4281 960.828 -2 925 -2 c 257
 1069 69 l 257
 1107.42 37.1117 1125.72 -4.24493 1125.72 -46.0959 c 256
 1125.72 -138.809 1035.92 -233.947 876.115 -233.947 c 257
821.115 -233.947 m 257
 677 -234 583.833 -167.027 583.833 -37.0908 c 257
 724.833 -37.0908 l 257
 724.833 -72.625 746.901 -103 821 -103 c 257
 821.115 -233.947 l 257
EndSplineSet
Refer: 186 3491 N 1 0 0 1 0 0 2
Ligature2: "si_rakaar subtable" si_Jha si_Halant si_Ra
EndChar

StartChar: si_JhU
Encoding: 164 -1 182
GlifName: si_J_hU_
Width: 1138
VWidth: 0
GlyphClass: 3
Flags: W
LayerCount: 2
Back
Fore
SplineSet
952 123 m 257
 1092 123 l 257
 1092 -205 l 257
 952 -205 l 257
 952 123 l 257
864 -65 m 257
 962 -65 l 257
 962 -205 l 257
 864 -205 l 257
 864 -65 l 257
596 -65 m 257
 808 -65 l 257
 808 -205 l 257
 596 -205 l 257
 596 -65 l 257
EndSplineSet
Refer: 186 3491 N 1 0 0 1 0 0 2
Ligature2: "si_blws_1 subtable" si_Jha si_MatraU
EndChar

StartChar: si_JhUu
Encoding: 165 -1 184
GlifName: si_J_hU_u
Width: 1138
VWidth: 0
GlyphClass: 3
Flags: W
LayerCount: 2
Back
Fore
SplineSet
600 -39 m 257
 626.334 -58.333 679.444 -64.7773 700.741 -64.7773 c 256
 743.334 -64.7773 768.667 -42 808 -42 c 257
 808 -182 l 257
 768.667 -182 743.334 -204.777 700.741 -204.777 c 256
 679.444 -204.777 626.334 -198.333 600 -179 c 257
 600 -39 l 257
864 -42 m 257
 881 -42 929.148 -46.167 952 -61 c 257
 952 -205 l 257
 926.106 -186.639 885 -182 864 -182 c 257
 864 -42 l 257
952 123 m 257
 1092 123 l 257
 1092 -205 l 257
 952 -205 l 257
 952 123 l 257
EndSplineSet
Refer: 186 3491 N 1 0 0 1 0 0 2
Ligature2: "si_blws_3 subtable" si_Jha si_MatraUu
EndChar

StartChar: si_Jha
Encoding: 30 3491 186
GlifName: si_J_ha
Width: 1138
VWidth: 0
GlyphClass: 2
Flags: W
HStem: -8 140<737 767 737 770.979 932.075 943> 200 2 336 138 616 138
VStem: 30 138 245 100 422 141
LayerCount: 2
Back
Fore
SplineSet
30 160 m 257
 147 255 l 257
 165.91 239.066 180.861 220.713 180.88 202 c 257
 181 160 l 258
 181.054 141.248 195.791 131.885 210.521 131.885 c 256
 225.264 131.885 240 141.265 240 160 c 258
 240 202 l 257
 339.88 202 l 257
 340 162 l 258
 340.061 141.747 355.048 131.634 370.026 131.634 c 256
 385.017 131.634 400 141.765 400 162 c 258
 400.004 202.128 l 258
 400.004 233.327 393.873 258.737 351 276 c 257
 448.224 354.096 l 257
 511.602 326.931 529 279.827 529 218 c 258
 529 136 l 258
 529 47.0805 455.346 -7.17 384.54 -7.17 c 256
 349.123 -7.17 314.418 6.40316 290 36 c 257
 269.556 6.1516 237.055 -6.59313 203.041 -6.59313 c 256
 136.876 -6.59313 64.988 41.6331 65 106 c 258
 65.0029 121.756 l 258
 65.0029 141.945 64.3154 161.906 41.2734 161.906 c 256
 37.9902 161.906 34.2529 161.3 30 160 c 257
757 -8 m 256
 650.004 -8 575 58 575 160 c 258
 574.999 261.926 l 258
 574.999 322.761 583.119 399.396 668 434.645 c 257
 745.667 454 l 257
 808 336 l 257
 785.667 336 l 257
 745.667 336 713 322 713 262 c 258
 713 166 l 258
 713 154 722 132 752 132 c 256
 782 132 790 152.875 790 166 c 258
 790 202 l 257
 890 202 l 257
 890 166 l 258
 890 152.875 898 132 928 132 c 256
 958 132 967 154 967 166 c 258
 967 202 l 257
 1108 202 l 257
 1108 160 l 258
 1108 58 1041.38 -8 949 -8 c 256
 915.151 -8 873.925 3.4668 845 35 c 257
 821.108 3.4668 784.959 -8 757 -8 c 256
30 160 m 257
 30 259 l 257
 335 509 l 257
 398.426 555.861 476.827 577.68 551.435 577.68 c 256
 685.875 577.68 808 508.833 808 336 c 257
 671 336 l 257
 671 420 606.732 442.604 548.153 442.604 c 256
 505.759 442.604 460.268 428.97 425 400 c 257
 155 181.392 l 257
 30 160 l 257
967 202 m 257
 967 498 l 258
 967 583.359 947.933 616 864 616 c 257
 864 755 l 257
 1004.56 755 1108 705.515 1108 520 c 258
 1108 202 l 257
 967 202 l 257
30 439 m 257
 44 537 136.521 567 198 567 c 256
 270.695 567 320 533 337 502 c 257
 245 402 l 257
 245 437 214.169 446 198 446 c 256
 164.069 446 147 422.741 147 402 c 257
 30 439 l 257
597.939 636.534 m 257
 635.15 711.315 718.861 755 808 755 c 257
 808 616.5 l 257
 776.4 616.5 751.676 612.385 733.934 588.211 c 257
 597.939 636.534 l 257
EndSplineSet
PickledDataWithLists: "(dp1
S'com.fontlab.hintData'
p2
(dp3
S'vhints'
p4
(lp5
(dp6
S'position'
p7
I30
sS'width'
p8
I138
sa(dp9
g7
I245
sg8
I100
sa(dp10
g7
I422
sg8
I141
sasS'hhints'
p11
(lp12
(dp13
g7
I-8
sg8
I140
sa(dp14
g7
I200
sg8
I2
sa(dp15
g7
I336
sg8
I138
sa(dp16
g7
I616
sg8
I138
sass."
EndChar

StartChar: si_JnyRa
Encoding: 196 -1 195
GlifName: si_J_nyR_a
Width: 1083
VWidth: 0
GlyphClass: 3
Flags: W
LayerCount: 2
Back
Fore
SplineSet
711 564.392 m 257
 810.939 564.392 976 558.119 976 370 c 258
 976 234 l 257
 790 234 l 258
 741 234 719 221.19 719 182 c 256
 719 143 754 136 791 136 c 258
 808 136 l 258
 840.728 136 870 140 883 172 c 257
 1019 172 l 257
 991 62 910.826 0 818 0 c 258
 791 0 l 258
 671 0 579 30.3916 579 169 c 256
 579 305.29 649 369 783 369 c 258
 833 369 l 257
 833 432.006 745.462 420.396 711 420.396 c 257
 711 564.392 l 257
30 197 m 258
 30 287 l 258
 30 452 60.9932 564.245 265.051 564.245 c 256
 316.372 564.245 369.684 564.082 421 564 c 257
 421 421 l 257
 224 421 l 258
 174.46 421 166 376 166 287 c 258
 166 197 l 258
 166 116.436 176.558 75.5967 241 -1 c 257
 111.039 -41 l 257
 51.3975 36.1836 30 106.444 30 197 c 258
465 241 m 257
 465 347 l 257
 565 347 l 257
 601.086 347 655 304.407 654.85 195 c 258
 655 166 l 258
 655 45.3369 593.689 -8 477 -8 c 257
 477 135 l 256
 529.527 135 531 170.963 531 188 c 256
 531 205.037 529.527 241 477 241 c 258
 465 241 l 257
421 -8 m 257
 281.704 -8 224.42 81.7373 224.079 198 c 258
 224.079 358 l 258
 224.42 474.263 281.704 564 421 564 c 257
 421 421 l 257
 368.888 421 365 375.857 365 348 c 258
 365 198 l 258
 365 173.959 368.888 135 421 135 c 257
 421 -8 l 257
448 241 m 256
 448 350 l 258
 448 468.007 484.062 564 628 564 c 257
 656 564 l 257
 656 421 l 257
 628 421 l 257
 582.192 421 587.466 376.492 586.835 350 c 258
 587 240.5 l 257
 448 241 l 256
820 -101 m 257
 864.222 -101 881 -67.0566 881 -19 c 258
 881 55 l 257
 1019 172 l 257
 1019 2 l 258
 1019 -139.824 965.29 -234 820 -234 c 257
 820 -101 l 257
764.333 -234.038 m 257
 661.333 -234.091 562.333 -170.326 562.333 -75.0908 c 258
 562.333 -47.0908 l 257
 692.333 -47.0908 l 257
 692.333 -78.3965 723.333 -101.091 764.333 -101 c 257
 764.333 -234.038 l 257
EndSplineSet
Ligature2: "si_rakaar subtable" si_Jnya si_Halant si_Ra
EndChar

StartChar: si_JnyU
Encoding: 193 -1 196
GlifName: si_J_nyU_
Width: 1022
VWidth: 0
GlyphClass: 3
Flags: W
HStem: -197 140
VStem: 30 172
LayerCount: 2
Back
Fore
SplineSet
796 -29 m 257
 796 -29 796 -29 796 -29 c 256
 619.098 -29 563.961 72.8672 563.961 173.529 c 256
 563.961 271.839 621.812 369 783 369 c 258
 833 369 l 257
 833 436.459 724.14 420.396 711 420.396 c 256
 711 564.392 l 257
 798 564 976 565 976 369 c 258
 976 234 l 257
 789 234 l 258
 718.032 234 708.348 203.554 708.348 172.476 c 256
 708.348 140.081 719.08 107 796 107 c 256
 796 107 796 107 796 107 c 257
 796 -29 l 257
30 197 m 258
 30 287 l 258
 30 452 60.9932 564.245 265.051 564.245 c 256
 316.372 564.245 369.684 564.082 421 564 c 257
 421 421 l 257
 224 421 l 258
 174.46 421 166 376 166 287 c 258
 166 197 l 258
 166 116.436 176.558 75.5967 241 -1 c 257
 111.039 -41 l 257
 51.3975 36.1836 30 106.444 30 197 c 258
465 241 m 257
 465 347 l 257
 565 347 l 257
 601.086 347 655 304.407 654.85 195 c 258
 655 166 l 258
 655 45.3369 593.689 -8 477 -8 c 257
 477 135 l 256
 529.527 135 531 170.963 531 188 c 256
 531 205.037 529.527 241 477 241 c 258
 465 241 l 257
421 -8 m 257
 281.704 -8 224.42 81.7373 224.079 198 c 258
 224.079 358 l 258
 224.42 474.263 281.704 564 421 564 c 257
 421 421 l 257
 368.888 421 365 375.857 365 348 c 258
 365 198 l 258
 365 173.959 368.888 135 421 135 c 257
 421 -8 l 257
448 241 m 256
 448 350 l 258
 448 468.007 484.062 564 628 564 c 257
 656 564 l 257
 656 421 l 257
 628 421 l 257
 582.192 421 587.466 376.492 586.835 350 c 258
 587 240.5 l 257
 448 241 l 256
574 -234 m 257
 574 -94 l 257
 796 -94 l 257
 796 -234 l 257
 574 -234 l 257
852 -234 m 257
 852 107 l 257
 992 107 l 257
 992 -234 l 257
 852 -234 l 257
EndSplineSet
PickledDataWithLists: "(dp1
S'com.fontlab.hintData'
p2
(dp3
S'vhints'
p4
(lp5
(dp6
S'position'
p7
I30
sS'width'
p8
I172
sasS'hhints'
p9
(lp10
(dp11
g7
I-197
sg8
I140
sass."
Ligature2: "si_blws_1 subtable" si_Jnya si_MatraU
EndChar

StartChar: si_JnyUu
Encoding: 194 -1 197
GlifName: si_J_nyU_u
Width: 1083
VWidth: 0
GlyphClass: 3
Flags: W
HStem: -205 23 -65 23 0 136 263 139 457 121
VStem: 30 143 45 142 313 140
LayerCount: 2
Back
Fore
SplineSet
796 -29 m 257
 796 -29 796 -29 796 -29 c 256
 619.098 -29 563.961 72.8672 563.961 173.529 c 256
 563.961 271.839 621.812 369 783 369 c 258
 833 369 l 257
 833 436.459 724.14 420.396 711 420.396 c 256
 711 564.392 l 257
 798 564 976 565 976 369 c 258
 976 234 l 257
 789 234 l 258
 718.032 234 708.348 203.554 708.348 172.476 c 256
 708.348 140.081 719.08 107 796 107 c 256
 796 107 796 107 796 107 c 257
 796 -29 l 257
30 197 m 258
 30 287 l 258
 30 452 60.9932 564.245 265.051 564.245 c 256
 316.372 564.245 369.684 564.082 421 564 c 257
 421 421 l 257
 224 421 l 258
 174.46 421 166 376 166 287 c 258
 166 197 l 258
 166 116.436 176.558 75.5967 241 -1 c 257
 111.039 -41 l 257
 51.3975 36.1836 30 106.444 30 197 c 258
465 241 m 257
 465 347 l 257
 565 347 l 257
 601.086 347 655 304.407 654.85 195 c 258
 655 166 l 258
 655 45.3369 593.689 -8 477 -8 c 257
 477 135 l 256
 529.527 135 531 170.963 531 188 c 256
 531 205.037 529.527 241 477 241 c 258
 465 241 l 257
421 -8 m 257
 281.704 -8 224.42 81.7373 224.079 198 c 258
 224.079 358 l 258
 224.42 474.263 281.704 564 421 564 c 257
 421 421 l 257
 368.888 421 365 375.857 365 348 c 258
 365 198 l 258
 365 173.959 368.888 135 421 135 c 257
 421 -8 l 257
448 241 m 256
 448 350 l 258
 448 468.007 484.062 564 628 564 c 257
 656 564 l 257
 656 421 l 257
 628 421 l 257
 582.192 421 587.466 376.492 586.835 350 c 258
 587 240.5 l 257
 448 241 l 256
796 -234 m 257
 770.106 -215.639 756 -211 735 -211 c 256
 695.667 -211 687.334 -233.777 644.741 -233.777 c 256
 623.444 -233.777 600.334 -227.333 574 -208 c 257
 574 -68 l 257
 600.334 -87.333 623.444 -93.7773 644.741 -93.7773 c 256
 687.334 -93.7773 695.667 -71 735 -71 c 256
 752 -71 773.148 -75.167 796 -90 c 257
 796 -234 l 257
852 -234 m 257
 852 107 l 257
 992 107 l 257
 992 -234 l 257
 852 -234 l 257
EndSplineSet
PickledDataWithLists: "(dp1
S'com.fontlab.hintData'
p2
(dp3
S'vhints'
p4
(lp5
(dp6
S'position'
p7
I30
sS'width'
p8
I143
sa(dp9
g7
I45
sg8
I142
sa(dp10
g7
I313
sg8
I140
sasS'hhints'
p11
(lp12
(dp13
g7
I-205
sg8
I23
sa(dp14
g7
I-65
sg8
I23
sa(dp15
g7
I0
sg8
I136
sa(dp16
g7
I263
sg8
I139
sa(dp17
g7
I457
sg8
I121
sass."
Ligature2: "si_blws_3 subtable" si_Jnya si_MatraUu
EndChar

StartChar: si_Jnya
Encoding: 32 3493 198
GlifName: si_J_nya
Width: 1083
VWidth: 0
GlyphClass: 2
Flags: W
HStem: -8 143<394.944 421 394.944 421 477 503.264 394.944 535.344> 421 143<199.23 421 351.352 421 351.352 421 394.944 421 628 656>
VStem: 224 141 448 139<240.5 350 240.5 409.004> 531 124<105.668 196.519> 740 141
LayerCount: 2
Back
Fore
SplineSet
790 -8 m 258
 652.242 -8 583.006 88.2024 583.006 183.413 c 256
 583.006 276.682 649.447 369 783 369 c 258
 833 369 l 257
 833 436.459 724.14 420.396 711 420.396 c 256
 711 564.392 l 257
 798 564 976 565 976 369 c 258
 976 234 l 257
 789 234 l 258
 741.407 234 718.57 208.434 718.57 182.414 c 256
 718.57 155.451 743.091 128 790 128 c 256
 812.223 128 822.977 128 827 128 c 256
 859.728 128 889 132 902 164 c 257
 1030 130 l 257
 1005 44 919.826 -7.86816 827 -8 c 258
 790 -8 l 258
30 197 m 258
 30 287 l 258
 30 452 60.9932 564.245 265.051 564.245 c 256
 316.372 564.245 369.684 564.082 421 564 c 257
 421 421 l 257
 224 421 l 258
 174.46 421 166 376 166 287 c 258
 166 197 l 258
 166 116.436 176.558 75.5967 241 -1 c 257
 111.039 -41 l 257
 51.3975 36.1836 30 106.444 30 197 c 258
465 241 m 257
 465 347 l 257
 565 347 l 257
 601.086 347 655 304.407 654.85 195 c 258
 655 166 l 258
 655 45.3369 593.689 -8 477 -8 c 257
 477 135 l 256
 529.527 135 531 170.963 531 188 c 256
 531 205.037 529.527 241 477 241 c 258
 465 241 l 257
421 -8 m 257
 281.704 -8 224.42 81.7373 224.079 198 c 258
 224.079 358 l 258
 224.42 474.263 281.704 564 421 564 c 257
 421 421 l 257
 368.888 421 365 375.857 365 348 c 258
 365 198 l 258
 365 173.959 368.888 135 421 135 c 257
 421 -8 l 257
448 241 m 256
 448 350 l 258
 448 468.007 484.062 564 628 564 c 257
 656 564 l 257
 656 421 l 257
 628 421 l 257
 582.192 421 587.466 376.492 586.835 350 c 258
 587 240.5 l 257
 448 241 l 256
900 -212 m 256
 780.999 -212 714 -144.261 714 -53 c 257
 851 -53 l 257
 851 -69.1494 871.289 -86 900 -86 c 256
 920.689 -86 944.827 -75.3711 950 -55 c 257
 1083 -89 l 257
 1061.12 -156.451 1005.5 -212 900 -212 c 256
EndSplineSet
PickledDataWithLists: "(dp1
S'com.fontlab.hintData'
p2
(dp3
S'vhints'
p4
(lp5
(dp6
S'position'
p7
I224
sS'width'
p8
I141
sa(dp9
g7
I448
sg8
I139
sa(dp10
g7
I531
sg8
I124
sa(dp11
g7
I740
sg8
I141
sasS'hhints'
p12
(lp13
(dp14
g7
I-8
sg8
I143
sa(dp15
g7
I421
sg8
I143
sass."
EndChar

StartChar: si_KRI
Encoding: 97 -1 203
GlifName: si_K_R_I_
Width: 800
VWidth: 0
GlyphClass: 3
Flags: W
LayerCount: 2
Back
Fore
SplineSet
452 -103 m 257
 472 -103 l 258
 620 -103 621.25 0 596 0 c 257
 729 89 l 257
 800.992 -37.9239 710 -234 500 -234 c 258
 452.115 -233.947 l 257
 452 -103 l 257
397.115 -233.947 m 257
 350 -234 l 258
 225 -234 100.833 -165.25 100.833 -37.0908 c 257
 241.833 -37.0908 l 257
 241.833 -72.5899 294 -103 358 -103 c 258
 397 -103 l 257
 397.115 -233.947 l 257
EndSplineSet
Refer: 201 -1 N 1 0 0 1 0 0 2
Ligature2: "si_abvs_3 subtable" si_KRa si_MatraI
EndChar

StartChar: si_KRIi
Encoding: 98 -1 204
GlifName: si_K_R_I_i
Width: 800
VWidth: 0
GlyphClass: 3
Flags: W
LayerCount: 2
Back
Fore
SplineSet
452 -103 m 257
 472 -103 l 258
 620 -103 621.25 0 596 0 c 257
 729 89 l 257
 800.992 -37.9239 710 -234 500 -234 c 258
 452.115 -233.947 l 257
 452 -103 l 257
397.115 -233.947 m 257
 350 -234 l 258
 225 -234 100.833 -165.25 100.833 -37.0908 c 257
 241.833 -37.0908 l 257
 241.833 -72.5899 294 -103 358 -103 c 258
 397 -103 l 257
 397.115 -233.947 l 257
EndSplineSet
Refer: 202 -1 N 1 0 0 1 0 0 2
Ligature2: "si_abvs_4 subtable" si_KRa si_MatraIi
EndChar

StartChar: si_KRa
Encoding: 96 -1 205
GlifName: si_K_R_a
Width: 800
VWidth: 0
GlyphClass: 3
Flags: W
LayerCount: 2
Back
Fore
SplineSet
452 -103 m 257
 472 -103 l 258
 620 -103 621.25 0 596 0 c 257
 729 89 l 257
 800.992 -37.9239 710 -234 500 -234 c 258
 452.115 -233.947 l 257
 452 -103 l 257
397.115 -233.947 m 257
 350 -234 l 258
 225 -234 100.833 -165.25 100.833 -37.0908 c 257
 241.833 -37.0908 l 257
 241.833 -72.5899 294 -103 358 -103 c 258
 397 -103 l 257
 397.115 -233.947 l 257
EndSplineSet
Refer: 221 3482 N 1 0 0 1 0 0 2
Ligature2: "si_rakaar subtable" si_Ka si_Halant si_Ra
EndChar

StartChar: si_KSsU
Encoding: 465 -1 209
GlifName: si_K_S_sU_
Width: 1204
VWidth: 0
GlyphClass: 3
Flags: W
LayerCount: 2
Back
Fore
SplineSet
1018 131 m 257
 1158 131 l 257
 1158 -205 l 257
 1018 -205 l 257
 1018 131 l 257
892 -65 m 257
 1028 -65 l 257
 1028 -205 l 257
 892 -205 l 257
 892 -65 l 257
600 -65 m 257
 836 -65 l 257
 836 -205 l 257
 600 -205 l 257
 600 -65 l 257
EndSplineSet
Refer: 211 -1 N 1 0 0 1 0 0 2
Ligature2: "si_blws_2 subtable" si_KSsa si_MatraU
EndChar

StartChar: si_KSsUu
Encoding: 466 -1 210
GlifName: si_K_S_sU_u
Width: 1204
VWidth: 0
GlyphClass: 3
Flags: W
LayerCount: 2
Back
Fore
SplineSet
600 -34 m 257
 640.479 -59.333 676.005 -67.7773 708.741 -67.7773 c 256
 754.603 -67.7773 792.647 -34 835 -34 c 257
 835 -174 l 257
 792.647 -174 754.603 -204.777 708.741 -204.777 c 256
 676.005 -204.777 640.479 -197.083 600 -174 c 257
 600 -34 l 257
1018 131 m 257
 1158 131 l 257
 1158 -205 l 257
 1018 -205 l 257
 1018 131 l 257
893 -34 m 257
 916.071 -34 986.987 -39.9219 1018 -61 c 257
 1018 -205 l 257
 982.858 -180.253 921.5 -174 893 -174 c 257
 893 -34 l 257
EndSplineSet
Refer: 211 -1 N 1 0 0 1 0 0 2
Ligature2: "si_blws_4 subtable" si_KSsa si_MatraUu
EndChar

StartChar: si_KSsa
Encoding: 451 -1 211
GlifName: si_K_S_sa
Width: 1204
VWidth: 0
GlyphClass: 3
Flags: W
LayerCount: 2
Back
Fore
SplineSet
203.041 -6.59313 m 256
 136.876 -6.59313 64.988 41.6331 65 106 c 258
 65.0029 121.756 l 258
 65.0029 141.945 64.3154 161.906 41.2734 161.906 c 256
 37.9902 161.906 34.2529 161.3 30 160 c 257
 147 255 l 257
 165.91 239.066 180.861 220.713 180.88 202 c 257
 181 160 l 258
 181.054 141.248 195.791 131.885 210.521 131.885 c 256
 225.264 131.885 240 141.265 240 160 c 258
 240 202 l 257
 339.88 202 l 257
 340 162 l 258
 340.061 141.747 355.048 131.634 370.026 131.634 c 256
 385.017 131.634 400 141.765 400 162 c 258
 400.004 202.128 l 258
 400.004 233.327 393.873 258.737 351 276 c 257
 448.224 354.096 l 257
 511.602 326.931 529 279.827 529 218 c 258
 529 136 l 258
 529 47.0805 455.346 -7.17 384.54 -7.17 c 256
 349.123 -7.17 314.418 6.40316 290 36 c 257
 269.556 6.1516 237.055 -6.59313 203.041 -6.59313 c 256
30 160 m 257
 30 259 l 257
 306 485 l 258
 404.461 565.624 526.529 598.363 636.193 598.363 c 256
 760.65 598.363 869.131 556.196 909 494 c 257
 812 405 l 257
 786.219 436.569 720.174 465.462 638.24 465.462 c 256
 564.447 465.462 477.765 442.026 396 376 c 258
 155 181.392 l 257
 30 160 l 257
829 -12 m 258
 652 -12 574 59.2461 574 202 c 257
 714 202 l 257
 714 148.801 755 123 818 123 c 258
 930 123 l 258
 995 123 1034 151 1034 202 c 257
 1174 202 l 257
 1174 64 1091 -12 922 -12 c 258
 829 -12 l 258
575 251 m 257
 575 377.04 641 407 738 407 c 258
 1003 407 l 258
 1111 407 1174 381.172 1174 251 c 257
 1035 251 l 257
 1035 264.875 1035 288 1006 288 c 258
 749 288 l 258
 715.738 288 714.001 263.84 714 251 c 257
 575 251 l 257
812 378 m 257
 812 397 l 257
 812 568 955.124 574.564 996.729 574.564 c 256
 1068.22 574.564 1135.97 536.524 1160 460 c 257
 1042 421 l 257
 1037.58 436 1022.78 451 995 451 c 256
 979.669 451 940 443.165 940 397 c 257
 940 378 l 257
 812 378 l 257
147 402 m 257
 30 439 l 257
 44 537 136.521 567 198 567 c 256
 270.695 567 320 533 337 502 c 257
 245 402 l 257
 245 437 214.169 446 198 446 c 256
 164.069 446 147 422.741 147 402 c 257
788 168 m 257
 788 276.977 874 345 936 367 c 257
 1102 367 l 257
 1027 342 922 259.976 922 170 c 257
 788 168 l 257
EndSplineSet
Ligature2: "si_akhands subtable" si_Ka si_Halant si_Ssa
EndChar

StartChar: si_KU
Encoding: 92 -1 212
GlifName: si_K_U_
Width: 800
VWidth: 0
GlyphClass: 3
Flags: W
LayerCount: 2
Back
Fore
SplineSet
30 160 m 257
 147 255 l 257
 165.91 239.066 180.861 220.713 180.88 202 c 257
 181 160 l 258
 181.054 141.248 196.04 131.885 211.02 131.885 c 256
 226.014 131.885 241 141.265 241 160 c 258
 241 202 l 257
 340.88 202 l 257
 341 162 l 258
 341.061 141.566 355.711 131.452 370.396 131.452 c 256
 385.18 131.452 400 141.705 400 162 c 258
 400.004 202.128 l 258
 400.004 233.327 393.873 258.737 351 276 c 257
 448.224 354.096 l 257
 511.602 326.931 529 279.827 529 218 c 258
 529 136 l 258
 529 47.0805 455.654 -7.17 385.144 -7.17 c 256
 349.875 -7.17 315.316 6.40316 291 36 c 257
 270.465 6.1516 237.819 -6.59313 203.654 -6.59313 c 256
 137.195 -6.59313 64.988 41.6331 65 106 c 258
 65.0029 121.756 l 258
 65.0029 141.945 64.3154 161.906 41.2734 161.906 c 256
 37.9902 161.906 34.2529 161.3 30 160 c 257
748.19 -205.003 m 256
 641.365 -205.003 552.854 -155.936 553 -29 c 258
 553 19 l 258
 552.854 147.379 641.365 197.003 748.19 197.003 c 256
 755.23 197.003 762.533 197.002 770 197 c 257
 770 54 l 257
 765.681 54 757.854 54 749 54 c 256
 725.14 54 694.857 44.0756 694.018 -2.98413 c 258
 694.022 -7.23579 l 258
 694.951 -54.1065 725.178 -64 749 -64 c 256
 757.854 -64 765.681 -64 770 -64 c 257
 770 -205 l 257
 762.533 -205.002 755.23 -205.003 748.19 -205.003 c 256
630 145 m 256
 630 307 l 258
 630 382.237 572.398 433.629 509.089 433.629 c 256
 480.642 433.629 451.043 423.253 425 400 c 257
 155 181.392 l 257
 30 160 l 257
 30 259 l 257
 301 480 l 257
 360.89 541.665 444.691 573.854 524.916 573.854 c 256
 651.939 573.854 770 493.158 770 321 c 258
 770 145 l 256
 630 145 l 256
30 439 m 257
 44 537 136.521 567 198 567 c 256
 270.695 567 320 533 337 502 c 257
 245 402 l 257
 245 437 214.169 446 198 446 c 256
 164.069 446 147 422.741 147 402 c 257
 30 439 l 257
EndSplineSet
Ligature2: "si_blws_1 subtable" si_Ka si_MatraU
EndChar

StartChar: si_KUu
Encoding: 93 -1 214
GlifName: si_K_U_u
Width: 808
VWidth: 0
GlyphClass: 3
Flags: W
LayerCount: 2
Back
Fore
SplineSet
30 259 m 257
 301 480 l 257
 360.89 541.665 444.691 573.854 524.916 573.854 c 256
 651.939 573.854 770 493.158 770 321 c 258
 770 250 l 258
 770.021 237.393 769.555 214 760 202 c 257
 571 202 l 257
 611.584 202 629.883 221.196 630 249.375 c 258
 630 307 l 258
 630 382.237 572.398 433.629 509.089 433.629 c 256
 480.642 433.629 451.043 423.253 425 400 c 258
 155 181.392 l 257
 30 160 l 257
 30 259 l 257
30 439 m 257
 44 537 136.521 567 198 567 c 256
 270.695 567 320 533 337 502 c 257
 245 402 l 257
 245 437 214.169 446 198 446 c 256
 164.069 446 147 422.741 147 402 c 257
 30 439 l 257
30 160 m 257
 147 255 l 257
 165.91 239.066 180.861 220.713 180.88 202 c 257
 181 160 l 258
 181.055 141.248 195.792 131.885 210.521 131.885 c 256
 225.264 131.885 240 141.265 240 160 c 258
 240 202 l 257
 339.88 202 l 257
 340 162 l 258
 340.06 141.747 355.047 131.634 370.025 131.634 c 256
 385.017 131.634 400 141.765 400 162 c 258
 400.004 202.128 l 258
 400.004 233.327 393.873 258.737 351 276 c 257
 448.224 354.096 l 257
 511.602 326.931 529 279.827 529 218 c 258
 529 136 l 258
 529 47.0805 455.346 -7.17 384.54 -7.17 c 256
 349.123 -7.17 314.418 6.40316 290 36 c 257
 269.556 6.1516 237.055 -6.59313 203.041 -6.59313 c 256
 136.876 -6.59313 64.988 41.6331 65 106 c 258
 65.0029 121.756 l 258
 65.0029 141.945 64.3154 161.906 41.2734 161.906 c 256
 37.9902 161.906 34.2529 161.3 30 160 c 257
571 202 m 257
 808 202 l 257
 808 132 l 257
 741 90 l 257
 808 90 l 257
 808 20 l 257
 763 20 l 258
 743.469 20 734 11.3271 734 -18 c 258
 734 -47 l 258
 734.12 -66.833 744.776 -75 767 -75 c 258
 798 -75 l 257
 798 -205 l 257
 726.19 -205.003 l 258
 670.066 -205.003 594 -162.81 594 -75 c 258
 593.945 -31 l 258
 593.945 -1.08734 595.839 5 607 20 c 257
 571 20 l 257
 571 90 l 257
 638 132 l 257
 571 132 l 257
 571 202 l 257
EndSplineSet
Ligature2: "si_blws_3 subtable" si_Ka si_MatraUu
EndChar

StartChar: si_KV.halant
Encoding: 467 -1 215
GlifName: si_K_V_.halant
Width: 1108
VWidth: 0
GlyphClass: 2
Flags: W
LayerCount: 2
Back
Fore
SplineSet
30 160 m 257
 147 255 l 257
 165.91 239.066 180.861 220.713 180.88 202 c 257
 181 160 l 258
 181.054 141.248 195.791 131.885 210.521 131.885 c 256
 225.264 131.885 240 141.265 240 160 c 258
 240 202 l 257
 339.88 202 l 257
 340 162 l 258
 340.061 141.747 355.048 131.634 370.026 131.634 c 256
 385.017 131.634 400 141.765 400 162 c 258
 400.004 202.128 l 258
 400.004 233.327 393.873 258.736 351 276 c 257
 448.224 354.096 l 257
 511.602 326.931 529 279.827 529 218 c 258
 529 136 l 258
 529 47.0805 455.346 -7.17 384.539 -7.17 c 256
 349.123 -7.17 314.418 6.40316 290 36 c 257
 269.556 6.1516 237.054 -6.59313 203.041 -6.59313 c 256
 136.875 -6.59313 64.9877 41.6331 65 106 c 258
 65.0029 121.756 l 258
 65.0029 141.945 64.3154 161.906 41.2734 161.906 c 256
 37.9902 161.906 34.2529 161.3 30 160 c 257
787 -5 m 257
 659.558 -5 573 87.2324 573 192 c 256
 573 235.053 581.611 275.32 603.666 306.816 c 256
 625.721 338.312 661.221 361.036 715 369 c 257
 707.84 418.524 644.072 452.739 571.069 452.739 c 256
 521.722 452.739 468.156 437.106 425 400 c 257
 155 181.392 l 257
 30 160 l 257
 30 259 l 257
 335 509 l 257
 395.88 558.871 475.743 581.892 554.539 581.892 c 256
 700.582 581.892 842.958 502.807 854 369 c 257
 854 252 l 257
 770 252 l 258
 740 252 711 242 711 195 c 256
 711 165.781 733.503 135 787 135 c 257
 787 -5 l 257
564 522 m 257
 564 652 l 257
 614 652 l 258
 597.708 652 581.543 678.371 581.543 710.154 c 256
 581.543 758.353 618.718 819 749 819 c 258
 790.667 819 l 257
 790.667 703 l 257
 757.667 703 l 258
 728.729 703 722.409 688.847 722.409 676.362 c 256
 722.409 661.503 735.732 652 757.667 652 c 258
 757.667 652 789 652 789 652 c 257
 789 522 l 257
 564 522 l 257
843 -5 m 257
 843 135 l 257
 885.411 135 937 149 937 250 c 258
 937 455 l 258
 937 514 896.403 522 846.667 522 c 257
 846.667 652 l 257
 1006.3 652 1078 590 1078 474 c 258
 1078 250 l 258
 1078 78 997.968 -4.83398 843 -5 c 257
30 439 m 257
 44 537 136.521 567 198 567 c 256
 270.694 567 320 533 337 502 c 257
 245 402 l 257
 245 437 214.169 446 198 446 c 256
 164.069 446 147 422.741 147 402 c 257
 30 439 l 257
846.167 703 m 257
 846.167 819 l 257
 891.667 819 l 258
 1040.03 819 1065 756 1065 673 c 257
 929.667 673 l 257
 929.667 700 905 703 859.667 703 c 258
 846.167 703 l 257
EndSplineSet
EndChar

StartChar: si_KVI
Encoding: 468 -1 216
GlifName: si_K_V_I_
Width: 1108
VWidth: 0
GlyphClass: 3
Flags: W
LayerCount: 2
Back
Fore
SplineSet
30 160 m 257
 147 255 l 257
 165.91 239.066 180.861 220.713 180.88 202 c 257
 181 160 l 258
 181.054 141.248 195.791 131.885 210.521 131.885 c 256
 225.264 131.885 240 141.265 240 160 c 258
 240 202 l 257
 339.88 202 l 257
 340 162 l 258
 340.061 141.747 355.048 131.634 370.026 131.634 c 256
 385.017 131.634 400 141.765 400 162 c 258
 400.004 202.128 l 258
 400.004 233.327 393.873 258.736 351 276 c 257
 448.224 354.096 l 257
 511.602 326.931 529 279.827 529 218 c 258
 529 136 l 258
 529 47.0805 455.346 -7.17 384.539 -7.17 c 256
 349.123 -7.17 314.418 6.40316 290 36 c 257
 269.556 6.1516 237.054 -6.59313 203.041 -6.59313 c 256
 136.875 -6.59313 64.9877 41.6331 65 106 c 258
 65.0029 121.756 l 258
 65.0029 141.945 64.3154 161.906 41.2734 161.906 c 256
 37.9902 161.906 34.2529 161.3 30 160 c 257
787 -5 m 257
 659.558 -5 573 87.2324 573 192 c 256
 573 235.053 581.611 275.32 603.666 306.816 c 256
 625.721 338.312 661.221 361.036 715 369 c 257
 707.84 418.524 644.072 452.739 571.069 452.739 c 256
 521.722 452.739 468.156 437.106 425 400 c 257
 155 181.392 l 257
 30 160 l 257
 30 259 l 257
 335 509 l 257
 395.88 558.871 475.743 581.892 554.539 581.892 c 256
 700.582 581.892 842.958 502.807 854 369 c 257
 854 252 l 257
 770 252 l 258
 740 252 711 242 711 195 c 256
 711 165.781 733.503 135 787 135 c 257
 787 -5 l 257
738 522 m 257
 619.875 522 560.625 576.407 560.625 670.735 c 256
 560.625 744.907 619.625 819 738 819 c 257
 791 819 l 257
 791 703 l 257
 717 703 l 257
 696.5 703 686.25 690.25 686.25 677.5 c 256
 686.25 664.75 696.5 652 717 652 c 257
 789 652 l 257
 789 522 l 257
 738 522 l 257
843 -5 m 257
 843 135 l 257
 885.411 135 937 149 937 250 c 258
 937 455 l 258
 937 514 896.403 522 846.667 522 c 257
 846.667 652 l 257
 1006.3 652 1078 590 1078 474 c 258
 1078 250 l 258
 1078 78 997.968 -4.83398 843 -5 c 257
30 439 m 257
 44 537 136.521 567 198 567 c 256
 270.694 567 320 533 337 502 c 257
 245 402 l 257
 245 437 214.169 446 198 446 c 256
 164.069 446 147 422.741 147 402 c 257
 30 439 l 257
846.5 703 m 257
 846.5 819 l 257
 896 819 l 258
 1024.36 819 1069.33 756 1069.33 673 c 257
 934 673 l 257
 934 700 909.333 703 864 703 c 258
 846.5 703 l 257
EndSplineSet
Ligature2: "si_abvs_5 subtable" si_KVa si_MatraI
EndChar

StartChar: si_KVIi
Encoding: 469 -1 217
GlifName: si_K_V_I_i
Width: 1108
VWidth: 0
GlyphClass: 3
Flags: W
LayerCount: 2
Back
Fore
SplineSet
203.041 -6.59313 m 256
 136.875 -6.59313 64.9877 41.6331 65 106 c 258
 65.0029 121.756 l 258
 65.0029 141.945 64.3154 161.906 41.2734 161.906 c 256
 37.9902 161.906 34.2529 161.3 30 160 c 257
 147 255 l 257
 165.91 239.066 180.861 220.713 180.88 202 c 257
 181 160 l 258
 181.054 141.248 195.791 131.885 210.521 131.885 c 256
 225.264 131.885 240 141.265 240 160 c 258
 240 202 l 257
 339.88 202 l 257
 340 162 l 258
 340.061 141.747 355.048 131.634 370.026 131.634 c 256
 385.017 131.634 400 141.765 400 162 c 258
 400.004 202.128 l 258
 400.004 233.327 393.873 258.736 351 276 c 257
 448.224 354.096 l 257
 511.602 326.931 529 279.827 529 218 c 258
 529 136 l 258
 529 47.0805 455.346 -7.17 384.539 -7.17 c 256
 349.123 -7.17 314.418 6.40316 290 36 c 257
 269.556 6.1516 237.054 -6.59313 203.041 -6.59313 c 256
787 -5 m 257
 659.558 -5 573 87.2324 573 192 c 256
 573 235.053 581.611 275.32 603.666 306.816 c 256
 625.721 338.312 661.221 361.036 715 369 c 257
 707.84 418.524 644.072 452.739 571.069 452.739 c 256
 521.722 452.739 468.156 437.106 425 400 c 257
 155 181.392 l 257
 30 160 l 257
 30 259 l 257
 335 509 l 257
 395.88 558.871 475.743 581.892 554.539 581.892 c 256
 700.582 581.892 842.958 502.807 854 369 c 257
 854 252 l 257
 770 252 l 258
 740 252 711 242 711 195 c 256
 711 165.781 733.503 135 787 135 c 257
 787 -5 l 257
743 522 m 258
 624.849 522 565.625 596.374 565.625 670.686 c 256
 565.625 744.874 624.651 819 743 819 c 258
 790 819 l 257
 790 703 l 257
 732 703 l 258
 707.558 703 695.36 688.518 695.36 674.028 c 256
 695.36 659.518 707.589 645 732 645 c 258
 789.667 645 l 257
 789.667 522 l 257
 743 522 l 258
843 -5 m 257
 843 135 l 257
 885.411 135 937 149 937 250 c 258
 937 454 l 258
 937 514 895.736 522 846 522 c 257
 846 645 l 257
 858.033 645 879.331 644.92 890.602 644.92 c 256
 1023.46 644.931 1078 596.229 1078 474 c 258
 1078 250 l 258
 1078 78 997.968 -4.83398 843 -5 c 257
973 603 m 256
 925.286 603 881.352 651.443 881.352 689.821 c 256
 881.352 694.39 881.975 698.815 883.287 703 c 257
 873 703 l 257
 846 703 l 257
 846 819 l 257
 973 819 l 258
 1033 819 1081 771 1081 711 c 256
 1081 651 1033 603 973 603 c 256
147 402 m 257
 30 439 l 257
 44 537 136.521 567 198 567 c 256
 270.694 567 320 533 337 502 c 257
 245 402 l 257
 245 437 214.169 446 198 446 c 256
 164.069 446 147 422.741 147 402 c 257
EndSplineSet
Ligature2: "si_abvs_6 subtable" si_KVa si_MatraIi
EndChar

StartChar: si_KVa
Encoding: 452 -1 220
GlifName: si_K_V_a
Width: 1108
VWidth: 0
GlyphClass: 3
Flags: W
HStem: -5 140<760.252 787 760.252 787 760.252 843> 399 102 616 138
VStem: 33 138 398 140
LayerCount: 2
Back
Fore
SplineSet
594.838 650.188 m 257
 633.224 712.855 711.024 755 787 755 c 257
 787 616.5 l 257
 769.84 616.5 752.888 612.755 739.061 603.413 c 257
 594.838 650.188 l 257
843 -5 m 257
 843 135 l 257
 885.411 135 938 149.137 938 250 c 258
 938 498 l 258
 938 577 921.252 616 843 616 c 257
 843 755 l 257
 977.272 755 1078 699.969 1078 520 c 258
 1078 250 l 258
 1078 78.4932 997.968 -4.83398 843 -5 c 257
30 439 m 257
 44 537 136.521 567 198 567 c 256
 270.695 567 320 533 337 502 c 257
 245 402 l 257
 245 437 214.169 446 198 446 c 256
 164.069 446 147 422.741 147 402 c 257
 30 439 l 257
30 160 m 257
 147 255 l 257
 165.91 239.066 180.861 220.713 180.88 202 c 257
 181 160 l 258
 181.054 141.248 195.791 131.885 210.521 131.885 c 256
 225.264 131.885 240 141.265 240 160 c 258
 240 202 l 257
 339.88 202 l 257
 340 162 l 258
 340.061 141.747 355.048 131.634 370.026 131.634 c 256
 385.017 131.634 400 141.765 400 162 c 258
 400.004 202.128 l 258
 400.004 233.327 393.873 258.737 351 276 c 257
 448.224 354.096 l 257
 511.602 326.931 529 279.827 529 218 c 258
 529 136 l 258
 529 47.0805 455.346 -7.17 384.54 -7.17 c 256
 349.123 -7.17 314.418 6.40316 290 36 c 257
 269.556 6.1516 237.055 -6.59313 203.041 -6.59313 c 256
 136.876 -6.59313 64.988 41.6331 65 106 c 258
 65.0029 121.756 l 258
 65.0029 141.945 64.3154 161.906 41.2734 161.906 c 256
 37.9902 161.906 34.2529 161.3 30 160 c 257
30 259 m 257
 335 509 l 257
 400.463 562.625 487.876 589.467 572.309 589.467 c 256
 711.932 589.467 843.406 516.066 854 369 c 257
 854 252 l 257
 770 252 l 258
 740 252 711 242 711 195 c 256
 711 165.781 733.503 135 787 135 c 257
 787 -5 l 257
 659.558 -5 573 87.2324 573 192 c 256
 573 235.053 581.611 275.32 603.667 306.816 c 256
 625.722 338.312 661.222 361.036 715 369 c 257
 699.27 416.191 635.587 451.303 564.037 451.303 c 256
 517.327 451.303 467.263 436.338 425 400 c 257
 155 181.392 l 257
 30 160 l 257
 30 259 l 257
EndSplineSet
PickledDataWithLists: "(dp1
S'com.fontlab.hintData'
p2
(dp3
S'vhints'
p4
(lp5
(dp6
S'position'
p7
I33
sS'width'
p8
I138
sa(dp9
g7
I398
sg8
I140
sasS'hhints'
p10
(lp11
(dp12
g7
I-5
sg8
I140
sa(dp13
g7
I399
sg8
I102
sa(dp14
g7
I616
sg8
I138
sass."
Ligature2: "si_akhands subtable" si_Ka si_Halant si_Va
EndChar

StartChar: si_Ka
Encoding: 21 3482 221
GlifName: si_K_a
Width: 800
VWidth: 0
GlyphClass: 2
Flags: W
LayerCount: 2
Back
Fore
SplineSet
30 439 m 257
 44 537 136.521 567 198 567 c 256
 270.695 567 320 533 337 502 c 257
 245 402 l 257
 245 437 214.169 446 198 446 c 256
 164.069 446 147 422.741 147 402 c 257
 30 439 l 257
30 160 m 257
 147 255 l 257
 165.91 239.066 180.861 220.713 180.88 202 c 257
 181 160 l 258
 181.054 141.248 195.791 131.885 210.521 131.885 c 256
 225.264 131.885 240 141.265 240 160 c 258
 240 202 l 257
 339.88 202 l 257
 340 162 l 258
 340.061 141.747 355.048 131.634 370.026 131.634 c 256
 385.017 131.634 400 141.765 400 162 c 258
 400.004 202.128 l 258
 400.004 233.327 393.873 258.737 351 276 c 257
 448.224 354.096 l 257
 511.602 326.931 529 279.827 529 218 c 258
 529 136 l 258
 529 47.0805 455.346 -7.17 384.54 -7.17 c 256
 349.123 -7.17 314.418 6.40316 290 36 c 257
 269.556 6.1516 237.055 -6.59313 203.041 -6.59313 c 256
 136.876 -6.59313 64.988 41.6331 65 106 c 258
 65.0029 121.756 l 258
 65.0029 141.945 64.3154 161.906 41.2734 161.906 c 256
 37.9902 161.906 34.2529 161.3 30 160 c 257
30 160 m 257
 30 259 l 257
 301 480 l 257
 360.89 541.665 444.691 573.854 524.916 573.854 c 256
 651.939 573.854 770 493.158 770 321 c 258
 770 205 l 258
 769.58 88.7373 713.296 -1 574 -1 c 257
 574 142 l 257
 626.112 142 630 180.959 630 205 c 258
 630 307 l 258
 630 382.237 572.398 433.629 509.089 433.629 c 256
 480.642 433.629 451.043 423.253 425 400 c 257
 155 181.392 l 257
 30 160 l 257
EndSplineSet
EndChar

StartChar: si_Kh.halant
Encoding: 99 -1 224
GlifName: si_K_h.halant
Width: 622
VWidth: 0
GlyphClass: 3
Flags: W
LayerCount: 2
Back
Fore
SplineSet
211 140 m 257
 210 0 l 257
 58 0 30 92 30 189 c 258
 30 273 l 258
 30.0156 396.719 112.911 452 229 452 c 256
 293 452 392 423 392 290 c 258
 392 -65 l 257
 257 -65 l 257
 257 251 l 258
 257.03 280.509 256 314 210 314 c 256
 169 314 162 291 162 251 c 258
 162 202 l 258
 162 166 166.264 140 211 140 c 257
51 512 m 257
 51 652 l 257
 92 652 l 257
 75.708 652 65.543 678.371 65.543 710.154 c 256
 65.543 758.353 102.718 819 233 819 c 258
 295.667 819 l 257
 295.667 703 l 257
 241.667 703 l 258
 212.729 703 206.409 688.847 206.409 676.362 c 256
 206.409 661.503 219.732 652 241.667 652 c 258
 360.667 652 l 257
 360.667 512 l 257
 51 512 l 257
360.667 652 m 257
 520.305 652 592 590 592 474 c 258
 592 199 l 258
 592 47.6328 516.098 -6.72461 436.553 -6.72461 c 256
 298.984 -6.72461 257 59.1514 257 134 c 258
 257 222 l 257
 392 222 l 257
 392 176 l 258
 392 155.161 406.836 144.909 421.754 144.909 c 256
 436.836 144.909 452 155.388 452 176 c 258
 452 445 l 258
 452 504 410.403 512 360.667 512 c 257
 360.667 652 l 257
443.667 673 m 257
 443.667 700 419 703 373.667 703 c 258
 351.167 703 l 257
 351.167 819 l 257
 405.667 819 l 258
 554.026 819 579 756 579 673 c 257
 443.667 673 l 257
EndSplineSet
Ligature2: "si_halant_1 subtable" si_Kha si_Halant
EndChar

StartChar: si_KhI
Encoding: 100 -1 225
GlifName: si_K_hI_
Width: 625
VWidth: 0
GlyphClass: 3
Flags: W
HStem: 0 21<138 214> 616 138
VStem: 32 135 262 135 457 140
LayerCount: 2
Back
Fore
SplineSet
260 -65 m 257
 260 43.667 260 152.333 260 261 c 256
 260 295.946 236.643 312.998 213.092 312.998 c 256
 189.146 312.998 165 295.37 165 261 c 258
 165 202 l 258
 165 166 169.264 140 214 140 c 257
 214 0 l 257
 62 0 30 92 30 189 c 258
 30 273 l 258
 30 394.719 125.151 452.114 218.289 452.114 c 256
 307.569 452.114 395 399.376 395 300 c 258
 395 -65 l 257
 260 -65 l 257
439.553 -6.72461 m 256
 291.984 -6.72461 260 59.1514 260 134 c 258
 260 222 l 257
 395 222 l 257
 395 176 l 258
 395 155.161 409.836 144.909 424.754 144.909 c 256
 439.836 144.909 455 155.388 455 176 c 258
 455 445 l 258
 455 504 413.403 512 363.667 512 c 257
 363.667 652 l 257
 523.305 652 595 590 595 474 c 258
 595 199 l 258
 595 47.6328 519.098 -6.72461 439.553 -6.72461 c 256
210.667 512 m 258
 92.542 512 33.292 570.065 33.292 670.735 c 256
 33.292 744.907 92.292 819 210.667 819 c 257
 295.667 819 l 257
 295.667 703 l 257
 189.667 703 l 257
 169.167 703 158.917 690.25 158.917 677.5 c 256
 158.917 664.75 169.167 652 189.667 652 c 258
 363.667 652 l 257
 363.667 512 l 257
 210.667 512 l 258
351.167 703 m 257
 351.167 819 l 257
 408.667 819 l 258
 537.026 819 582 756 582 673 c 257
 446.667 673 l 257
 446.667 700 422 703 376.667 703 c 258
 351.167 703 l 257
EndSplineSet
PickledDataWithLists: "(dp1
S'com.fontlab.hintData'
p2
(dp3
S'vhints'
p4
(lp5
(dp6
S'position'
p7
I32
sS'width'
p8
I135
sa(dp9
g7
I262
sg8
I135
sa(dp10
g7
I457
sg8
I140
sasS'hhints'
p11
(lp12
(dp13
g7
I0
sg8
I21
sa(dp14
g7
I616
sg8
I138
sass."
Ligature2: "si_abvs_1 subtable" si_Kha si_MatraI
EndChar

StartChar: si_KhIi
Encoding: 101 -1 226
GlifName: si_K_hI_i
Width: 625
VWidth: 0
GlyphClass: 3
Flags: W
HStem: 0 21<138 214> 616 138
VStem: 32 135 262 135 457 140
LayerCount: 2
Back
Fore
SplineSet
439.553 -6.72461 m 256
 311.984 -6.72461 260 59.1514 260 134 c 258
 260 222 l 257
 395 222 l 257
 395 176 l 258
 395 155.161 409.836 144.909 424.754 144.909 c 256
 439.836 144.909 455 155.388 455 176 c 258
 455 445 l 258
 455 504 413.403 512 363.667 512 c 257
 363.667 652 l 257
 375.681 652 396.932 651.92 408.216 651.92 c 256
 541.109 651.933 595 603.258 595 481 c 258
 595 199 l 258
 595 47.6328 519.098 -6.72461 439.553 -6.72461 c 256
260 -65 m 257
 260 261 l 258
 260 295.946 236.643 312.998 213.092 312.998 c 256
 189.146 312.998 165 295.37 165 261 c 258
 165 202 l 258
 165 166 169.264 140 214 140 c 257
 214 0 l 257
 62 0 30 92 30 189 c 258
 30 273 l 258
 30 394.719 125.151 452.114 218.289 452.114 c 256
 307.569 452.114 395 399.376 395 300 c 258
 395 -65 l 257
 260 -65 l 257
218.667 512 m 258
 100.542 512 41.292 570.065 41.292 670.735 c 256
 41.292 744.907 100.292 819 218.667 819 c 257
 296 819 l 257
 296 703 l 257
 197.667 703 l 257
 177.167 703 166.917 690.25 166.917 677.5 c 256
 166.917 664.75 177.167 652 197.667 652 c 258
 363.667 652 l 257
 363.667 512 l 257
 218.667 512 l 258
483 603 m 256
 435.286 603 391.352 651.443 391.352 689.821 c 256
 391.352 694.39 391.975 698.815 393.287 703 c 257
 383 703 l 257
 351 703 l 257
 351 819 l 257
 483 819 l 258
 542.99 819 591 771 591 711 c 256
 591 651 543 603 483 603 c 256
EndSplineSet
PickledDataWithLists: "(dp1
S'com.fontlab.hintData'
p2
(dp3
S'vhints'
p4
(lp5
(dp6
S'position'
p7
I32
sS'width'
p8
I135
sa(dp9
g7
I262
sg8
I135
sa(dp10
g7
I457
sg8
I140
sasS'hhints'
p11
(lp12
(dp13
g7
I0
sg8
I21
sa(dp14
g7
I616
sg8
I138
sass."
Ligature2: "si_abvs_2 subtable" si_Kha si_MatraIi
EndChar

StartChar: si_KhR.halant
Encoding: 105 -1 227
GlifName: si_K_hR_.halant
Width: 622
VWidth: 0
GlyphClass: 2
Flags: W
LayerCount: 2
Back
Fore
SplineSet
351.115 -233.947 m 257
 351 -103 l 257
 439.74 -103 464.39 -67.9805 464.39 -38.7807 c 256
 464.39 -17.9028 451.788 -3.55271e-15 441 0 c 257
 574 89 l 257
 596.092 51.311 607.131 10.9717 607.131 -27.9808 c 256
 607.131 -136.329 521.723 -233.947 351.115 -233.947 c 257
296.115 -233.947 m 257
 162 -234 47.833 -167.027 47.833 -37.0908 c 257
 188.833 -37.0908 l 257
 188.833 -72.625 227.901 -103 296 -103 c 257
 296.115 -233.947 l 257
EndSplineSet
Refer: 224 -1 N 1 0 0 1 0 0 2
EndChar

StartChar: si_KhRI
Encoding: 106 -1 228
GlifName: si_K_hR_I_
Width: 625
VWidth: 0
GlyphClass: 3
Flags: W
LayerCount: 2
Back
Fore
SplineSet
351 -234 m 257
 351 -103 l 257
 439.739 -103 464.39 -67.9805 464.39 -38.7807 c 256
 464.39 -17.9028 451.788 -3.55271e-15 441 0 c 257
 574 89 l 257
 596.092 51.311 607.131 10.9717 607.131 -27.9808 c 256
 607.131 -136.329 521.607 -234 351 -234 c 257
296 -234 m 257
 161.885 -234.053 47.833 -167.027 47.833 -37.0908 c 257
 188.833 -37.0908 l 257
 188.833 -72.625 227.901 -103 296 -103 c 257
 296 -234 l 257
EndSplineSet
Refer: 225 -1 N 1 0 0 1 0 0 2
Ligature2: "si_abvs_3 subtable" si_KhRa si_MatraI
EndChar

StartChar: si_KhRIi
Encoding: 107 -1 229
GlifName: si_K_hR_I_i
Width: 625
VWidth: 0
GlyphClass: 3
Flags: W
LayerCount: 2
Back
Fore
SplineSet
351.115 -233.947 m 257
 351 -103 l 257
 439.74 -103 464.39 -67.9805 464.39 -38.7807 c 256
 464.39 -17.9028 451.788 -3.55271e-15 441 0 c 257
 574 89 l 257
 596.092 51.311 607.131 10.9717 607.131 -27.9808 c 256
 607.131 -136.329 521.723 -233.947 351.115 -233.947 c 257
296.115 -233.947 m 257
 162 -234 47.833 -167.027 47.833 -37.0908 c 257
 188.833 -37.0908 l 257
 188.833 -72.625 227.901 -103 296 -103 c 257
 296.115 -233.947 l 257
EndSplineSet
Refer: 226 -1 N 1 0 0 1 0 0 2
Ligature2: "si_abvs_4 subtable" si_KhRa si_MatraIi
EndChar

StartChar: si_KhRa
Encoding: 104 -1 230
GlifName: si_K_hR_a
Width: 625
VWidth: 0
GlyphClass: 3
Flags: W
LayerCount: 2
Back
Fore
SplineSet
351.115 -233.947 m 257
 351 -103 l 257
 439.74 -103 464.39 -67.9805 464.39 -38.7807 c 256
 464.39 -17.9028 451.788 -3.55271e-15 441 0 c 257
 574 89 l 257
 596.092 51.311 607.131 10.9717 607.131 -27.9808 c 256
 607.131 -136.329 521.723 -233.947 351.115 -233.947 c 257
296.115 -233.947 m 257
 162 -234 47.833 -167.027 47.833 -37.0908 c 257
 188.833 -37.0908 l 257
 188.833 -72.625 227.901 -103 296 -103 c 257
 296.115 -233.947 l 257
EndSplineSet
Refer: 233 3483 N 1 0 0 1 0 0 2
Ligature2: "si_rakaar subtable" si_Kha si_Halant si_Ra
EndChar

StartChar: si_KhU
Encoding: 102 -1 231
GlifName: si_K_hU_
Width: 635
VWidth: 0
GlyphClass: 3
Flags: W
HStem: -205 140<68 280 68 280 68 336 336 466 456 456 456 466> 0 21<138 214> 616 139<249.005 273 329 370 216.474 329>
VStem: 30 135<189 202 202 261 184 273 184 333.86> 68 212<-205 -65 -205 -65> 260 135<-30 261 134 222 222 222 261 278.473> 461 140 461 10 470 140
LayerCount: 2
Back
Fore
SplineSet
421.496 20.5406 m 256
 339.066 20.5406 260 65.6188 260 134 c 258
 260 222 l 257
 395 222 l 257
 395 206 l 258
 395 185.161 412.309 174.909 429.713 174.909 c 256
 447.308 174.909 465 185.388 465 206 c 258
 465 500 l 258
 465 579 448.252 616 370 616 c 257
 329 616 l 257
 329 755 l 257
 370 755 l 257
 504.272 755 605 699 605 500 c 258
 605 209 l 258
 605 73.9892 511.253 20.5406 421.496 20.5406 c 256
260 -30 m 257
 260 261 l 258
 260 295.946 236.643 312.998 213.092 312.998 c 256
 189.146 312.998 165 295.37 165 261 c 258
 165 202 l 258
 165 166 169.264 140 214 140 c 257
 214 0 l 257
 62 0 30 92 30 189 c 258
 30 273 l 258
 30 394.719 125.151 452.114 218.289 452.114 c 256
 307.569 452.114 395 399.376 395 300 c 258
 395 -30 l 257
 260 -30 l 257
68 -65 m 257
 280 -65 l 257
 280 -205 l 257
 68 -205 l 257
 68 -65 l 257
183 530 m 257
 46 566 l 257
 46 677.959 159.947 755 273 755 c 257
 273 616 l 257
 225.01 616 183 601.551 183 530 c 257
336 -65 m 257
 466 -65 l 257
 466 -205 l 257
 336 -205 l 257
 336 -65 l 257
456 173 m 257
 596 173 l 257
 596 -205 l 257
 456 -205 l 257
 456 173 l 257
EndSplineSet
PickledDataWithLists: "(dp1
S'com.fontlab.hintData'
p2
(dp3
S'vhints'
p4
(lp5
(dp6
S'position'
p7
I30
sS'width'
p8
I135
sa(dp9
g7
I68
sg8
I212
sa(dp10
g7
I260
sg8
I135
sa(dp11
g7
I461
sg8
I140
sa(dp12
g7
I461
sg8
I10
sa(dp13
g7
I470
sg8
I140
sasS'hhints'
p14
(lp15
(dp16
g7
I-205
sg8
I140
sa(dp17
g7
I0
sg8
I21
sa(dp18
g7
I616
sg8
I139
sass."
Ligature2: "si_blws_1 subtable" si_Kha si_MatraU
EndChar

StartChar: si_KhUu
Encoding: 103 -1 232
GlifName: si_K_hU_u
Width: 635
VWidth: 0
GlyphClass: 3
Flags: W
HStem: -205 140 -182 140<260.334 280 336 344.5 260.334 346.5> 0 21<138 214> 41 154 313 139 616 139<249.005 273 329 370 216.474 329>
VStem: 30 135<189 202 202 261 184 273 184 333.86> 68 212<-179 -42 -182 -39 -182 -39> 260 135<-16 261 154 242 242 242 261 278.473> 336 120<-182 -61 -61 -42 -42 -42> 456 140<-205 -61 -205 193 -205 193 -205 193> 465 140<226 229 229 500>
LayerCount: 2
Back
Fore
SplineSet
421.496 40.5406 m 256
 339.066 40.5406 260 85.6188 260 154 c 258
 260 242 l 257
 395 242 l 257
 395 226 l 258
 395 205.161 412.309 194.909 429.713 194.909 c 256
 447.308 194.909 465 205.388 465 226 c 258
 465 500 l 258
 465 579 448.252 616 370 616 c 257
 329 616 l 257
 329 755 l 257
 370 755 l 257
 504.272 755 605 699 605 500 c 258
 605 229 l 258
 605 93.9892 511.253 40.5406 421.496 40.5406 c 256
260 -16 m 257
 260 261 l 258
 260 295.946 236.643 312.998 213.092 312.998 c 256
 189.146 312.998 165 295.37 165 261 c 258
 165 202 l 258
 165 166 169.264 140 214 140 c 257
 214 0 l 257
 62 0 30 92 30 189 c 258
 30 273 l 258
 30 394.719 125.151 452.114 218.289 452.114 c 256
 307.569 452.114 395 399.376 395 300 c 258
 395 -16 l 257
 260 -16 l 257
68 -39 m 257
 94.334 -58.333 141.444 -64.7773 162.741 -64.7773 c 256
 205.334 -64.7773 240.667 -42 280 -42 c 257
 280 -182 l 257
 240.667 -182 205.334 -204.777 162.741 -204.777 c 256
 141.444 -204.777 94.334 -198.333 68 -179 c 257
 68 -39 l 257
183 530 m 257
 46 566 l 257
 46 677.959 159.948 755 273 755 c 257
 273 616 l 257
 225.01 616 183 601.551 183 530 c 257
336 -42 m 257
 353 -42 433.148 -46.167 456 -61 c 257
 456 -205 l 257
 430.106 -186.639 357 -182 336 -182 c 257
 336 -42 l 257
456 193 m 257
 596 193 l 257
 596 -205 l 257
 456 -205 l 257
 456 193 l 257
EndSplineSet
PickledDataWithLists: "(dp1
S'com.fontlab.hintData'
p2
(dp3
S'vhints'
p4
(lp5
(dp6
S'position'
p7
I30
sS'width'
p8
I135
sa(dp9
g7
I68
sg8
I212
sa(dp10
g7
I260
sg8
I135
sa(dp11
g7
I336
sg8
I120
sa(dp12
g7
I456
sg8
I140
sa(dp13
g7
I465
sg8
I140
sasS'hhints'
p14
(lp15
(dp16
g7
I-205
sg8
I140
sa(dp17
g7
I-182
sg8
I140
sa(dp18
g7
I0
sg8
I21
sa(dp19
g7
I41
sg8
I154
sa(dp20
g7
I313
sg8
I139
sa(dp21
g7
I616
sg8
I139
sass."
Ligature2: "si_blws_3 subtable" si_Kha si_MatraUu
EndChar

StartChar: si_Kha
Encoding: 22 3483 233
GlifName: si_K_ha
Width: 625
VWidth: 0
GlyphClass: 2
Flags: W
HStem: 0 21<138 214> 616 138
VStem: 32 135 262 135 457 140
LayerCount: 2
Back
Fore
SplineSet
439.553 -6.72454 m 256
 351.984 -6.72454 260 59.1509 260 134 c 258
 260 222 l 257
 395 222 l 257
 395 176 l 258
 395 155.161 409.836 144.909 424.754 144.909 c 256
 439.836 144.909 455 155.388 455 176 c 258
 455 500 l 258
 455 579 438.252 616 360 616 c 257
 329 616 l 257
 329 755 l 257
 360 755 l 257
 494.272 755 595 699 595 500 c 258
 595 199 l 258
 595 47.6332 519.098 -6.72454 439.553 -6.72454 c 256
260 -65 m 257
 260 261 l 258
 260 295.946 236.643 312.998 213.092 312.998 c 256
 189.146 312.998 165 295.37 165 261 c 258
 165 202 l 258
 165 166 169.264 140 214 140 c 257
 214 0 l 257
 62 0 30 92 30 189 c 258
 30 273 l 258
 30 394.719 125.151 452.114 218.289 452.114 c 256
 307.569 452.114 395 399.376 395 300 c 258
 395 -65 l 257
 260 -65 l 257
183 530 m 257
 46 566 l 257
 46 677.959 159.947 755 273 755 c 257
 273 616 l 257
 225.01 616 183 601.551 183 530 c 257
EndSplineSet
PickledDataWithLists: "(dp1
S'com.fontlab.hintData'
p2
(dp3
S'vhints'
p4
(lp5
(dp6
S'position'
p7
I32
sS'width'
p8
I135
sa(dp9
g7
I262
sg8
I135
sa(dp10
g7
I457
sg8
I140
sasS'hhints'
p11
(lp12
(dp13
g7
I0
sg8
I21
sa(dp14
g7
I616
sg8
I138
sass."
EndChar

StartChar: si_LI
Encoding: 382 -1 236
GlifName: si_L_I_
Width: 626
VWidth: 0
GlyphClass: 3
Flags: W
LayerCount: 2
Back
Fore
SplineSet
281 426 m 257
 281 566 l 257
 348 566 l 257
 348 426 l 257
 281 426 l 257
EndSplineSet
Refer: 269 3538 N 1 0 0 1 22 0 2
Refer: 240 3517 N 1 0 0 1 0 0 2
Ligature2: "si_abvs_1 subtable" si_La si_MatraI
EndChar

StartChar: si_LIi
Encoding: 383 -1 237
GlifName: si_L_I_i
Width: 626
VWidth: 0
GlyphClass: 3
Flags: W
LayerCount: 2
Back
Fore
SplineSet
281 426 m 257
 281 566 l 257
 348 566 l 257
 348 426 l 257
 281 426 l 257
EndSplineSet
Refer: 270 3539 N 1 0 0 1 2 0 2
Refer: 240 3517 N 1 0 0 1 0 0 2
Ligature2: "si_abvs_2 subtable" si_La si_MatraIi
EndChar

StartChar: si_LU
Encoding: 384 -1 238
GlifName: si_L_U_
Width: 651
VWidth: 0
GlyphClass: 3
Flags: W
HStem: -204 139 -30 112 114 100 251 114 251 72 434 140
VStem: 30 146 86 217<-205 -66 -205 -66> 258 128<285 333 330.423 333> 364 230<-205 -66 -66 -66 -31 92 -205 92> 465 129<-205 92 -205 92> 465 4<-205 -66 -205 92> 478 143<262.69 271>
LayerCount: 2
Back
Fore
SplineSet
258 285 m 256
 258 289.832 258 327.846 258 333 c 257
 386 333 l 257
 386 265 l 258
 386 246.127 394.178 224 432 224 c 256
 473.721 224 478 254.381 478 271 c 258
 478.195 342 l 258
 478 410.087 429.198 430.203 364 434.5 c 257
 364 574.5 l 257
 480.616 574.5 621 518.818 621 332 c 258
 621 307 l 258
 621 191.127 549.107 124 430 124 c 256
 283.067 124 258 208.669 258 285 c 256
303 -30 m 257
 163.864 -30 30.333 47.3266 30.333 214 c 258
 30.333 294 l 258
 30.333 393.227 65.6476 574.5 303 574.5 c 257
 303 434.5 l 257
 183 425.383 176 370.638 176 294 c 258
 176 214 l 258
 176 110.802 272.624 94.4822 303 92 c 257
 303 -30 l 257
86 -66 m 257
 303 -66 l 257
 303 -205 l 257
 86 -205 l 257
 86 -66 l 257
222 261 m 257
 222 375 l 257
 434 375 l 257
 434 261 l 257
 222 261 l 257
364 -66 m 257
 469 -66 l 257
 469 -205 l 257
 364 -205 l 257
 364 -66 l 257
364 -31 m 257
 364 92 l 257
 594 92 l 257
 594 -31 l 257
 364 -31 l 257
465 92 m 257
 594 92 l 257
 594 -205 l 257
 465 -205 l 257
 465 92 l 257
EndSplineSet
PickledDataWithLists: "(dp1
S'com.fontlab.hintData'
p2
(dp3
S'vhints'
p4
(lp5
(dp6
S'position'
p7
I30
sS'width'
p8
I146
sa(dp9
g7
I86
sg8
I217
sa(dp10
g7
I258
sg8
I128
sa(dp11
g7
I364
sg8
I230
sa(dp12
g7
I465
sg8
I129
sa(dp13
g7
I465
sg8
I4
sa(dp14
g7
I478
sg8
I143
sasS'hhints'
p15
(lp16
(dp17
g7
I-204
sg8
I139
sa(dp18
g7
I-30
sg8
I112
sa(dp19
g7
I114
sg8
I100
sa(dp20
g7
I251
sg8
I114
sa(dp21
g7
I251
sg8
I72
sa(dp22
g7
I434
sg8
I140
sass."
Ligature2: "si_blws_1 subtable" si_La si_MatraU
EndChar

StartChar: si_LUu
Encoding: 385 -1 239
GlifName: si_L_U_u
Width: 651
VWidth: 0
GlyphClass: 3
Flags: W
HStem: -245 129 -217 124 -61 133 114 100 251 114 251 72 426 140
VStem: 30 146 258 128<285 333 330.423 333> 303 61<-177 -54 -177 -53 -177 -54 -30 -30 -30 92 434.5 574.5> 364 230<-177 -54 -54 -54 -31 92 -205 92> 465 129<-205 92 -205 92 -205 -73 -205 92> 478 143<262.69 271>
LayerCount: 2
Back
Fore
SplineSet
430 124 m 256
 283.067 124 258 208.669 258 285 c 256
 258 289.832 258 327.846 258 333 c 257
 386 333 l 257
 386 265 l 258
 386 246.127 394.178 224 432 224 c 256
 473.721 224 478 254.381 478 271 c 258
 478.195 342 l 258
 478 410.087 429.198 430.203 364 434.5 c 257
 364 574.5 l 257
 480.616 574.5 621 518.818 621 332 c 258
 621 307 l 258
 621 191.127 549.107 124 430 124 c 256
303 -30 m 257
 163.864 -30 30.333 47.3266 30.333 214 c 258
 30.333 294 l 258
 30.333 393.227 65.6476 574.5 303 574.5 c 257
 303 434.5 l 257
 183 425.383 176 370.638 176 294 c 258
 176 214 l 258
 176 110.802 272.624 94.4822 303 92 c 257
 303 -30 l 257
185.741 -204.777 m 256
 155.714 -204.777 123.129 -198.333 86 -179 c 257
 86 -51 l 257
 125.66 -69.678 159.997 -75.8262 190.939 -75.8262 c 256
 234.084 -75.8262 268.108 -53 303 -53 c 257
 303 -177 l 257
 263.667 -177 228.334 -204.777 185.741 -204.777 c 256
465 -205 m 257
 427.639 -182.647 394.3 -177 364 -177 c 257
 364 -54 l 257
 388.529 -54 432.028 -58.1674 465 -73 c 257
 465 -205 l 257
222 261 m 257
 222 375 l 257
 434 375 l 257
 434 261 l 257
 222 261 l 257
364 -31 m 257
 364 92 l 257
 594 92 l 257
 594 -31 l 257
 364 -31 l 257
465 -205 m 257
 465 92 l 257
 594 92 l 257
 594 -205 l 257
 465 -205 l 257
EndSplineSet
PickledDataWithLists: "(dp1
S'com.fontlab.hintData'
p2
(dp3
S'vhints'
p4
(lp5
(dp6
S'position'
p7
I30
sS'width'
p8
I146
sa(dp9
g7
I258
sg8
I128
sa(dp10
g7
I303
sg8
I61
sa(dp11
g7
I364
sg8
I230
sa(dp12
g7
I465
sg8
I129
sa(dp13
g7
I478
sg8
I143
sasS'hhints'
p14
(lp15
(dp16
g7
I-245
sg8
I129
sa(dp17
g7
I-217
sg8
I124
sa(dp18
g7
I-61
sg8
I133
sa(dp19
g7
I114
sg8
I100
sa(dp20
g7
I251
sg8
I114
sa(dp21
g7
I251
sg8
I72
sa(dp22
g7
I426
sg8
I140
sass."
Ligature2: "si_blws_3 subtable" si_La si_MatraUu
EndChar

StartChar: si_La
Encoding: 54 3517 240
GlifName: si_L_a
Width: 626
VWidth: 0
GlyphClass: 2
Flags: W
HStem: -173 140<344 371.079 344 393.528> 54 140 250 114 250 72 426 140<250.334 283 344 376.667>
VStem: 30 138 248 128<225.064 234.5 234.5 322.5 316.702 322.5> 458 138<231.19 239.5>
LayerCount: 2
Back
Fore
SplineSet
248 214.5 m 258
 248 214.5 248 310.903 248 322.5 c 257
 376 322.5 l 257
 376 234.5 l 258
 376 215.627 382.848 193.5 417.333 193.5 c 256
 453.69 193.5 458 222.881 458 239.5 c 258
 458.195 321.5 l 258
 458 396.948 409.333 426 344 426 c 257
 344 566 l 257
 458.348 566 596 522.216 596 321.5 c 258
 596 239.5 l 258
 596 122.36 529.553 53.5 417.333 53.5 c 256
 276.721 53.5 248 138.169 248 214.5 c 258
283 -170.5 m 257
 172.948 -170.5 30.333 -122.855 30.333 73.5 c 258
 30 321.5 l 258
 30 522.216 168.199 566 283 566 c 257
 283 426 l 257
 217.667 426 169 396.948 168.805 321.5 c 258
 168.805 73.5 l 258
 169 -1.94813 217.667 -30.5 283 -30.5 c 257
 283 -170.5 l 257
206 250.5 m 257
 206 364.5 l 257
 418 364.5 l 257
 418 250.5 l 257
 206 250.5 l 257
344 -33 m 257
 344 -173 l 257
 443.056 -173 559.601 -140.143 589 -0.875 c 257
 454 36.7705 l 257
 440.864 -13.0365 398.158 -33 344 -33 c 257
EndSplineSet
PickledDataWithLists: "(dp1
S'com.fontlab.hintData'
p2
(dp3
S'vhints'
p4
(lp5
(dp6
S'position'
p7
I30
sS'width'
p8
I138
sa(dp9
g7
I248
sg8
I128
sa(dp10
g7
I458
sg8
I138
sasS'hhints'
p11
(lp12
(dp13
g7
I-173
sg8
I140
sa(dp14
g7
I54
sg8
I140
sa(dp15
g7
I250
sg8
I114
sa(dp16
g7
I250
sg8
I72
sa(dp17
g7
I426
sg8
I140
sass."
EndChar

StartChar: si_LlI
Encoding: 437 -1 243
GlifName: si_L_lI_
Width: 609
VWidth: 0
GlyphClass: 3
Flags: W
LayerCount: 2
Back
Fore
SplineSet
120 602 m 257
 120 630 l 257
 119.623 723.409 186.741 789 286 789 c 257
 374 789 l 257
 473.259 789 540.377 723.409 540 630 c 257
 540 602 l 257
 410 602 l 257
 410 654.112 384.857 658 358 659 c 257
 302 659 l 257
 275.143 658 250 654.112 250 602 c 257
 120 602 l 257
EndSplineSet
Refer: 247 3525 N 1 0 0 1 0 0 2
Ligature2: "si_abvs_1 subtable" si_Lla si_MatraI
EndChar

StartChar: si_LlIi
Encoding: 438 -1 244
GlifName: si_L_lI_i
Width: 609
VWidth: 0
GlyphClass: 3
Flags: W
HStem: 462 119 659 130<286.572 300 300 371>
VStem: 472 118
LayerCount: 2
Back
Fore
SplineSet
449 553 m 256
 384 553 331 606 331 671 c 256
 331 736 384 789 449 789 c 256
 514 789 567 736 567 671 c 256
 567 606 514 553 449 553 c 256
118 602 m 257
 118 630 l 258
 118 723.409 184.747 789 284 789 c 258
 449 789 l 258
 512.976 789 567 736.729 567 671 c 257
 413 622 l 257
 413 657.112 397.857 659 371 659 c 258
 300 659 l 258
 273.143 659 248 654.112 248 602 c 257
 118 602 l 257
EndSplineSet
Refer: 247 3525 N 1 0 0 1 0 0 2
PickledDataWithLists: "(dp1
S'com.fontlab.hintData'
p2
(dp3
S'vhints'
p4
(lp5
(dp6
S'position'
p7
I472
sS'width'
p8
I118
sasS'hhints'
p9
(lp10
(dp11
g7
I462
sg8
I119
sa(dp12
g7
I659
sg8
I130
sass."
Ligature2: "si_abvs_2 subtable" si_Lla si_MatraIi
EndChar

StartChar: si_LlU
Encoding: 439 -1 245
GlifName: si_L_lU_
Width: 758
VWidth: 0
GlyphClass: 3
Flags: W
LayerCount: 2
Back
Fore
SplineSet
93.0391 -28 m 257
 44.3975 41.1836 30 78.4443 30 169 c 258
 30 289 l 258
 30 422.903 108.927 495.749 214.144 495.749 c 256
 247.06 495.749 282.549 488.62 319 474 c 257
 319 375 l 257
 267.888 388.814 254.696 390.472 242.748 390.472 c 256
 194.831 390.472 166 360.238 166 289 c 258
 166 169 l 258
 166 88.4355 179.558 66.5967 223 12 c 257
 93.0391 -28 l 257
EndSplineSet
Refer: 397 3509 N 1 0 0 1 190 0 2
Ligature2: "si_blws_1 subtable" si_Lla si_MatraU
EndChar

StartChar: si_LlUu
Encoding: 440 -1 246
GlifName: si_L_lU_u
Width: 1025
VWidth: 0
GlyphClass: 3
Flags: W
LayerCount: 2
Back
Fore
SplineSet
93.0391 -28 m 257
 44.3975 41.1836 30 78.4443 30 169 c 258
 30 289 l 258
 30 422.903 108.927 495.749 214.144 495.749 c 256
 247.06 495.749 282.549 488.62 319 474 c 257
 319 375 l 257
 267.888 388.814 254.696 390.472 242.748 390.472 c 256
 194.831 390.472 166 360.238 166 289 c 258
 166 169 l 258
 166 88.4355 179.558 66.5967 223 12 c 257
 93.0391 -28 l 257
EndSplineSet
Refer: 263 3537 N 1 0 0 1 748 0 2
Refer: 397 3509 N 1 0 0 1 190 0 2
Ligature2: "si_blws_3 subtable" si_Lla si_MatraUu
EndChar

StartChar: si_Lla
Encoding: 60 3525 247
GlifName: si_L_la
Width: 609
VWidth: 0
GlyphClass: 2
Flags: W
LayerCount: 2
Back
Fore
SplineSet
115.025 421.275 m 257
 115.025 445.525 l 257
 115.025 524.575 169.425 574.725 253.575 574.725 c 256
 284.871 574.725 311.298 565.375 330.075 548.375 c 257
 349.943 569.625 378.784 574.725 400.575 574.725 c 256
 489.825 574.725 539.975 517.445 539.975 436.525 c 257
 424.375 436.525 l 257
 424.375 453.878 412.949 464 397 464 c 256
 378.515 464 370.925 450.263 370.925 436.525 c 257
 286.075 436.525 l 257
 285.398 450.763 280.572 465 259 465 c 256
 236.84 465 230.625 448.961 230.625 434.525 c 257
 115.025 421.275 l 257
30 77 m 258
 30 194 l 258
 30 322.197 132.979 386.745 216 387 c 258
 541 388 l 257
 541 256 l 257
 248 256 l 258
 203.378 256 169.002 227.882 168.996 146 c 258
 169 75 l 258
 169 3.43101 210.412 -30 283 -30 c 256
 283 -170 l 256
 131.835 -170 30.1154 -89.9693 30 77 c 258
144 216 m 257
 235 301 l 257
 235 195.928 309.198 185 334 185 c 258
 354 185 l 258
 390.105 185 419.389 200.704 429 222 c 257
 542 193 l 257
 499 82 406.733 66.9766 358 66.8896 c 258
 325 67 l 258
 217.263 67 144 142 144 216 c 257
344 -30 m 257
 344 -170 l 257
 443.057 -170 559.601 -137.144 589 2.125 c 257
 454 39.7705 l 257
 440.864 -10.0361 398.158 -30 344 -30 c 257
EndSplineSet
EndChar

StartChar: si_M.halant
Encoding: 346 -1 249
GlifName: si_M_.halant
Width: 600
VWidth: 0
GlyphClass: 3
Flags: W
LayerCount: 2
Back
Fore
SplineSet
30 252 m 258
 30 299 l 258
 30 416.254 102.653 470.796 168.343 470.796 c 256
 222.542 470.796 272 433.667 272 364 c 258
 272 348 l 258
 272 336.714 279.716 331.107 287.45 331.107 c 256
 295.216 331.107 303 336.763 303 348 c 258
 303 469 l 257
 395 469 l 257
 395 340 l 258
 395 263.042 342.455 228.663 290.44 228.663 c 256
 239.466 228.663 189 261.682 189 320 c 258
 189 328 l 258
 189 341.305 181.157 348.08 173.361 348.08 c 256
 165.658 348.08 158 341 158 328 c 258
 158 252 l 258
 158 153.848 200.99 135 260.667 135 c 257
 260.667 -5 l 257
 64.9492 -5 30 143 30 252 c 258
41 512 m 257
 41 652 l 257
 82 652 l 257
 65.708 652 55.543 678.371 55.543 710.154 c 256
 55.543 758.353 92.7178 819 223 819 c 258
 261.667 819 l 257
 261.667 703 l 257
 231.667 703 l 258
 202.729 703 196.409 688.847 196.409 676.362 c 256
 196.409 661.503 209.732 652 231.667 652 c 258
 337.667 652 l 257
 337.667 512 l 257
 41 512 l 257
317 -5 m 257
 317 135 l 257
 385.414 135 430 147 430 252 c 258
 430 444 l 258
 430 504 387.403 512 337.667 512 c 257
 337.667 652 l 257
 497.305 652 570 590 570 473 c 258
 570 252 l 258
 570 127 527.505 -5 317 -5 c 257
420.667 673 m 257
 420.667 700 396 703 350.667 703 c 258
 317.167 703 l 257
 317.167 819 l 257
 382.667 819 l 258
 531.026 819 556 756 556 673 c 257
 420.667 673 l 257
EndSplineSet
Ligature2: "si_halant_1 subtable" si_Ma si_Halant
EndChar

StartChar: si_MI
Encoding: 347 -1 250
GlifName: si_M_I_
Width: 600
VWidth: 0
GlyphClass: 3
Flags: W
LayerCount: 2
Back
Fore
SplineSet
30 252 m 258
 30 299 l 258
 30 416.254 102.653 470.796 168.343 470.796 c 256
 222.542 470.796 272 433.667 272 364 c 258
 272 348 l 258
 272 336.714 279.716 331.107 287.45 331.107 c 256
 295.216 331.107 303 336.763 303 348 c 258
 303 469 l 257
 395 469 l 257
 395 340 l 258
 395 263.042 342.455 228.663 290.44 228.663 c 256
 239.466 228.663 189 261.682 189 320 c 258
 189 328 l 258
 189 341.305 181.157 348.08 173.361 348.08 c 256
 165.658 348.08 158 341 158 328 c 258
 158 252 l 258
 158 153.848 200.99 135 260.667 135 c 257
 260.667 -5 l 257
 64.9492 -5 30 143 30 252 c 258
217.667 512 m 258
 99.542 512 40.292 570.065 40.292 670.735 c 256
 40.292 744.907 99.292 819 217.667 819 c 257
 260.667 819 l 257
 260.667 703 l 257
 196.667 703 l 257
 176.167 703 165.917 690.25 165.917 677.5 c 256
 165.917 664.75 176.167 652 196.667 652 c 258
 337.667 652 l 257
 337.667 512 l 257
 217.667 512 l 258
317 -5 m 257
 317 135 l 257
 385.414 135 430 147 430 252 c 258
 430 446 l 258
 430 504 387.403 512 337.667 512 c 257
 337.667 652 l 257
 497.305 652 570 590 570 473 c 258
 570 252 l 258
 570 127 527.505 -5 317 -5 c 257
420.667 673 m 257
 420.667 700 396 703 350.667 703 c 258
 317.167 703 l 257
 317.167 819 l 257
 382.667 819 l 258
 511.026 819 556 756 556 673 c 257
 420.667 673 l 257
EndSplineSet
Ligature2: "si_abvs_1 subtable" si_Ma si_MatraI
EndChar

StartChar: si_MIi
Encoding: 348 -1 251
GlifName: si_M_I_i
Width: 600
VWidth: 0
GlyphClass: 3
Flags: W
LayerCount: 2
Back
Fore
SplineSet
456.5 603 m 256
 408.786 603 364.852 651.443 364.852 689.821 c 256
 364.852 694.39 365.475 698.815 366.787 703 c 257
 356.5 703 l 257
 317.167 703 l 257
 317.167 819 l 257
 456.5 819 l 258
 516.5 819 564.5 771 564.5 711 c 256
 564.5 651 516.5 603 456.5 603 c 256
217.667 512 m 258
 99.542 512 40.292 570.065 40.292 670.735 c 256
 40.292 744.907 99.292 819 217.667 819 c 257
 260.667 819 l 257
 260.667 703 l 257
 196.667 703 l 257
 176.167 703 165.917 690.25 165.917 677.5 c 256
 165.917 664.75 176.167 652 196.667 652 c 258
 337.667 652 l 257
 337.667 512 l 257
 217.667 512 l 258
317 -5 m 257
 317 135 l 257
 385.414 135 430 147 430 252 c 258
 430 446 l 258
 430 504 387.403 512 337.667 512 c 257
 337.667 652 l 257
 497.305 652 570 590 570 473 c 258
 570 252 l 258
 570 127 527.505 -5 317 -5 c 257
30 252 m 258
 30 299 l 258
 30 416.254 102.653 470.796 168.343 470.796 c 256
 222.542 470.796 272 433.667 272 364 c 258
 272 348 l 258
 272 336.714 279.716 331.107 287.45 331.107 c 256
 295.216 331.107 303 336.763 303 348 c 258
 303 469 l 257
 395 469 l 257
 395 340 l 258
 395 263.042 342.455 228.663 290.44 228.663 c 256
 239.466 228.663 189 261.682 189 320 c 258
 189 328 l 258
 189 341.305 181.157 348.08 173.361 348.08 c 256
 165.658 348.08 158 341 158 328 c 258
 158 252 l 258
 158 153.848 200.99 135 260.667 135 c 257
 260.667 -5 l 257
 64.9492 -5 30 143 30 252 c 258
EndSplineSet
Ligature2: "si_abvs_2 subtable" si_Ma si_MatraIi
EndChar

StartChar: si_MR.halant
Encoding: 352 -1 252
GlifName: si_M_R_.halant
Width: 600
VWidth: 0
GlyphClass: 2
Flags: W
LayerCount: 2
Back
Fore
SplineSet
317.115 -233.947 m 257
 317 -103 l 257
 439.188 -103 449.877 -2 366 -2 c 257
 510 69 l 257
 633.554 -33.5439 549 -234 317.115 -233.947 c 257
262.115 -233.947 m 257
 118 -234 24.833 -167.027 24.833 -37.0908 c 257
 165.833 -37.0908 l 257
 165.833 -72.625 187.901 -103 262 -103 c 257
 262.115 -233.947 l 257
EndSplineSet
Refer: 249 -1 N 1 0 0 1 0 0 2
EndChar

StartChar: si_MRI
Encoding: 354 -1 253
GlifName: si_M_R_I_
Width: 600
VWidth: 0
GlyphClass: 3
Flags: W
LayerCount: 2
Back
Fore
SplineSet
317.115 -233.947 m 257
 317 -103 l 257
 439.188 -103 449.877 -2 366 -2 c 257
 510 69 l 257
 633.554 -33.5439 549 -234 317.115 -233.947 c 257
262.115 -233.947 m 257
 118 -234 24.833 -167.027 24.833 -37.0908 c 257
 165.833 -37.0908 l 257
 165.833 -72.625 187.901 -103 262 -103 c 257
 262.115 -233.947 l 257
EndSplineSet
Refer: 250 -1 N 1 0 0 1 0 0 2
Ligature2: "si_abvs_3 subtable" si_MRa si_MatraI
EndChar

StartChar: si_MRIi
Encoding: 355 -1 254
GlifName: si_M_R_I_i
Width: 600
VWidth: 0
GlyphClass: 3
Flags: W
LayerCount: 2
Back
Fore
SplineSet
317.115 -233.947 m 257
 317 -103 l 257
 439.188 -103 449.877 -2 366 -2 c 257
 510 69 l 257
 633.554 -33.5439 549 -234 317.115 -233.947 c 257
262.115 -233.947 m 257
 118 -234 24.833 -167.027 24.833 -37.0908 c 257
 165.833 -37.0908 l 257
 165.833 -72.625 187.901 -103 262 -103 c 257
 262.115 -233.947 l 257
EndSplineSet
Refer: 251 -1 N 1 0 0 1 0 0 2
Ligature2: "si_abvs_4 subtable" si_MRa si_MatraIi
EndChar

StartChar: si_MRa
Encoding: 353 -1 255
GlifName: si_M_R_a
Width: 600
VWidth: 0
GlyphClass: 3
Flags: W
LayerCount: 2
Back
Fore
SplineSet
317.115 -233.947 m 257
 317 -103 l 257
 439.188 -103 449.877 -2 366 -2 c 257
 510 69 l 257
 633.554 -33.5439 549 -234 317.115 -233.947 c 257
262.115 -233.947 m 257
 118 -234 24.833 -167.027 24.833 -37.0908 c 257
 165.833 -37.0908 l 257
 165.833 -72.625 187.901 -103 262 -103 c 257
 262.115 -233.947 l 257
EndSplineSet
Refer: 258 3512 N 1 0 0 1 0 0 2
Ligature2: "si_rakaar subtable" si_Ma si_Halant si_Ra
EndChar

StartChar: si_MU
Encoding: 349 -1 256
GlifName: si_M_U_
Width: 600
VWidth: 0
GlyphClass: 3
Flags: W
LayerCount: 2
Back
Fore
SplineSet
49 -65 m 257
 261 -65 l 257
 261 -205 l 257
 49 -205 l 257
 49 -65 l 257
317 -65 m 257
 432 -65 l 257
 432 -205 l 257
 317 -205 l 257
 317 -65 l 257
416 163 m 257
 556 163 l 257
 556 -205 l 257
 416 -205 l 257
 416 163 l 257
EndSplineSet
Refer: 258 3512 N 1 0 0 1 0 0 2
Ligature2: "si_blws_1 subtable" si_Ma si_MatraU
EndChar

StartChar: si_MUu
Encoding: 350 -1 257
GlifName: si_M_U_u
Width: 600
VWidth: 0
GlyphClass: 3
Flags: W
LayerCount: 2
Back
Fore
SplineSet
48 -39 m 257
 74.334 -58.333 121.444 -64.7773 142.741 -64.7773 c 256
 185.334 -64.7773 220.667 -42 260 -42 c 257
 260 -182 l 257
 220.667 -182 185.334 -204.777 142.741 -204.777 c 256
 121.444 -204.777 74.334 -198.333 48 -179 c 257
 48 -39 l 257
317 -42 m 257
 334 -42 394.148 -46.167 417 -61 c 257
 417 -205 l 257
 391.106 -186.639 338 -182 317 -182 c 257
 317 -42 l 257
417 163 m 257
 557 163 l 257
 557 -205 l 257
 417 -205 l 257
 417 163 l 257
EndSplineSet
Refer: 258 3512 N 1 0 0 1 0 0 2
Ligature2: "si_blws_3 subtable" si_Ma si_MatraUu
EndChar

StartChar: si_Ma
Encoding: 50 3512 258
GlifName: si_M_a
Width: 600
VWidth: 0
GlyphClass: 2
Flags: W
LayerCount: 2
Back
Fore
SplineSet
30 252 m 258
 30 299 l 258
 30 416.254 102.653 470.796 168.343 470.796 c 256
 222.542 470.796 272 433.667 272 364 c 258
 272 348 l 258
 272 336.714 279.716 331.107 287.45 331.107 c 256
 295.216 331.107 303 336.763 303 348 c 258
 303 469 l 257
 395 469 l 257
 395 340 l 258
 395 263.042 342.455 228.663 290.44 228.663 c 256
 239.466 228.663 189 261.682 189 320 c 258
 189 328 l 258
 189 341.305 181.157 348.08 173.361 348.08 c 256
 165.658 348.08 158 341 158 328 c 258
 158 252 l 258
 158 153.848 200.99 135 260.667 135 c 257
 260.667 -5 l 257
 64.9495 -5 30 143 30 252 c 258
317 -5 m 257
 317 135 l 257
 385.414 135 430 147 430 252 c 258
 430 498 l 258
 430 603 385.414 615 317 615 c 257
 317 754 l 257
 527.505 754 570 621.855 570 498 c 258
 570 252 l 258
 570 127 527.505 -5 317 -5 c 257
34 565 m 257
 34 676.959 147.947 754 261 754 c 257
 261 615.5 l 257
 213.009 615.5 171 600.551 171 529 c 257
 34 565 l 257
EndSplineSet
EndChar

StartChar: si_MatraAa
Encoding: 63 3535 261
GlifName: si_M_atraA_a
Width: 277
VWidth: 0
GlyphClass: 2
Flags: W
VStem: 106 141
LayerCount: 2
Back
Fore
SplineSet
30 0 m 257
 30 143 l 257
 50 143 l 257
 102.112 143 106 181.959 106 206 c 258
 106 358 l 258
 106 385.857 102.112 431 50 431 c 257
 30 431 l 257
 30 574 l 257
 50 574 l 257
 189.296 574 246.58 484.263 246.921 368 c 258
 246.921 206 l 258
 246.58 89.7373 189.296 0 50 0 c 257
 30 0 l 257
EndSplineSet
PickledDataWithLists: "(dp1
S'com.fontlab.hintData'
p2
(dp3
S'vhints'
p4
(lp5
(dp6
S'position'
p7
I106
sS'width'
p8
I141
sass."
EndChar

StartChar: si_MatraAae
Encoding: 65 3537 263
GlifName: si_M_atraA_ae
Width: 277
VWidth: 0
GlyphClass: 2
Flags: W
HStem: 0 143<226 247> 302 110<30 30 30 247 74 247> 464 110<30 247 30 247 87 247 30 247>
VStem: 30 217<0 178 302 412 464 574> 30 141<178 178 177.5 412>
LayerCount: 2
Back
Fore
SplineSet
29.9893 216.358 m 258
 29.9893 249.529 30 262 74 302 c 257
 247 302 l 257
 179 250 171 251.229 171 216 c 258
 171 202 l 258
 171 153 201.803 143 226 143 c 256
 234.854 143 242.681 143 247 143 c 257
 247 0 l 257
 239.533 -0.00195312 232.23 -0.00292969 225.19 -0.00292969 c 256
 118.365 -0.00292969 29.8538 49.6214 30 178 c 258
 29.9893 216.358 l 258
30 412 m 257
 87 464 l 257
 247 464 l 257
 188 412 l 257
 30 412 l 257
30 464 m 257
 30 574 l 257
 247 574 l 257
 247 464 l 257
 30 464 l 257
30 302 m 257
 30 412 l 257
 247 412 l 257
 247 302 l 257
 30 302 l 257
EndSplineSet
PickledDataWithLists: "(dp1
S'com.fontlab.hintData'
p2
(dp3
S'vhints'
p4
(lp5
(dp6
S'position'
p7
I30
sS'width'
p8
I217
sa(dp9
g7
I30
sg8
I141
sasS'hhints'
p10
(lp11
(dp12
g7
I0
sg8
I143
sa(dp13
g7
I302
sg8
I110
sa(dp14
g7
I464
sg8
I110
sass."
EndChar

StartChar: si_MatraAe
Encoding: 64 3536 264
GlifName: si_M_atraA_e
Width: 277
VWidth: 0
GlyphClass: 2
Flags: W
HStem: 0 143<226 247>
VStem: 30 217<0 260 0 294.29 442 574> 30 141<177.603 260 177.603 294.29>
LayerCount: 2
Back
Fore
SplineSet
225.19 -0.00292969 m 256
 118.365 -0.00292969 29.8538 57.9849 30 208 c 258
 30 260 l 258
 30 328.58 37.4571 343.178 90 436 c 257
 30 436 l 257
 30 574 l 257
 247 574 l 257
 247 442 l 257
 179.741 318.241 171.059 314.551 171.177 248 c 258
 171 202 l 258
 171 153.207 201.803 143 226 143 c 256
 234.854 143 242.681 143 247 143 c 257
 247 0 l 257
 239.533 -0.00195312 232.23 -0.00292969 225.19 -0.00292969 c 256
EndSplineSet
PickledDataWithLists: "(dp1
S'com.fontlab.hintData'
p2
(dp3
S'vhints'
p4
(lp5
(dp6
S'position'
p7
I30
sS'width'
p8
I217
sa(dp9
g7
I30
sg8
I141
sasS'hhints'
p10
(lp11
(dp12
g7
I0
sg8
I143
sass."
EndChar

StartChar: si_MatraE
Encoding: 71 3545 267
GlifName: si_M_atraE_
Width: 457
VWidth: 0
GlyphClass: 2
Flags: W
HStem: -5 130<115.632 209.334 189.556 209.334 189.556 209.334 257.334 269.283 189.556 288.405 189.556 257.334> 434 130<208.263 219.334 219.334 249.334 249.334 263.672>
VStem: 40 125 297 125
LayerCount: 2
Back
Fore
SplineSet
249.334 434 m 257
 249.334 564 l 257
 270.405 564 l 258
 367.099 564 416.702 487.265 423.658 430.848 c 257
 301.959 399.762 l 257
 298.408 421.596 278.01 434 249.334 434 c 257
233 224 m 257
 233 354.2 l 257
 320.071 354.2 l 258
 379 354.2 427 335 427 255 c 258
 427 157 l 258
 427 69.7471 373.668 -5 288.405 -5 c 258
 257.334 -5 l 257
 257.334 125 l 257
 281.232 125 292 140 292 164 c 258
 292.013 197.271 l 258
 292.013 223.258 275.32 224 248 224 c 258
 233 224 l 257
30 198 m 258
 30 371 l 258
 30 449.253 63 564 208.263 564 c 258
 249.334 564 l 257
 249.334 434 l 257
 219.334 434 l 257
 189.779 434 165 410.398 165 371 c 258
 165 198 l 258
 165 158.602 169.779 125 209.334 125 c 257
 209.334 -5 l 257
 188.263 -5 l 258
 43 -5 30 139.747 30 198 c 258
EndSplineSet
PickledDataWithLists: "(dp1
S'com.fontlab.hintData'
p2
(dp3
S'vhints'
p4
(lp5
(dp6
S'position'
p7
I40
sS'width'
p8
I125
sa(dp9
g7
I297
sg8
I125
sasS'hhints'
p10
(lp11
(dp12
g7
I-5
sg8
I130
sa(dp13
g7
I434
sg8
I130
sass."
EndChar

StartChar: si_MatraI
Encoding: 66 3538 269
GlifName: si_M_atraI_i
Width: 583
VWidth: 0
GlyphClass: 2
Flags: W
LayerCount: 2
Back
Fore
SplineSet
30 602 m 257
 30 630 l 257
 29.623 723.409 106.741 789 206 789 c 257
 377 789 l 257
 476.259 789 553.377 723.409 553 630 c 257
 553 602 l 257
 423 602 l 257
 423 654.112 387.857 658 361 659 c 257
 222 659 l 257
 195.143 658 160 654.112 160 602 c 257
 30 602 l 257
EndSplineSet
PickledDataWithLists: "(dp1
."
EndChar

StartChar: si_MatraIi
Encoding: 67 3539 270
GlifName: si_M_atraI_i000000000000001
Width: 619
VWidth: 0
GlyphClass: 2
Flags: W
HStem: 462 119 659 130<208.572 222 222 393>
VStem: 472 118
LayerCount: 2
Back
Fore
SplineSet
471 553 m 256
 406 553 353 606 353 671 c 256
 353 736 406 789 471 789 c 256
 536 789 589 736 589 671 c 256
 589 606 536 553 471 553 c 256
30 602 m 257
 30 630 l 258
 30 723.409 106.747 789 206 789 c 258
 471 789 l 258
 534.976 789 589 736.729 589 671 c 257
 435 622 l 257
 435 657.112 419.857 659 393 659 c 258
 222 659 l 258
 195.143 659 160 654.112 160 602 c 257
 30 602 l 257
EndSplineSet
PickledDataWithLists: "(dp1
S'com.fontlab.hintData'
p2
(dp3
S'vhints'
p4
(lp5
(dp6
S'position'
p7
I472
sS'width'
p8
I118
sasS'hhints'
p9
(lp10
(dp11
g7
I462
sg8
I119
sa(dp12
g7
I659
sg8
I130
sass."
EndChar

StartChar: si_MatraLs
Encoding: 77 3551 272
GlifName: si_M_atraL_s
Width: 610
VWidth: 0
GlyphClass: 2
Flags: W
VStem: 116 141
LayerCount: 2
Back
Fore
SplineSet
188.387 -7.95992 m 256
 98.6073 -7.95992 10 48.5515 10 166 c 258
 10 202 l 257
 137 202 l 257
 137 166 l 258
 137 130.447 165.963 111.111 194.165 111.111 c 256
 220.925 111.111 247 128.519 247 166 c 258
 247 423 l 258
 247 436 239.342 443.08 231.639 443.08 c 256
 223.843 443.08 216 436.306 216 423 c 258
 216 375 l 258
 216 318.872 169.254 288.449 120.298 288.449 c 256
 66.4842 288.449 10 325.21 10 405 c 258
 10 564 l 257
 102 564 l 257
 102 443 l 258
 102 431.763 109.784 426.107 117.55 426.107 c 256
 125.284 426.107 133 431.714 133 443 c 258
 133 462 l 258
 133 535.112 189.604 571.401 249.265 571.401 c 256
 309.902 571.401 371.783 525.674 374 437 c 258
 374 166 l 258
 374 51.6238 280.575 -7.95992 188.387 -7.95992 c 256
EndSplineSet
PickledDataWithLists: "(dp1
S'com.fontlab.hintData'
p2
(dp3
S'vhints'
p4
(lp5
(dp6
S'position'
p7
I116
sS'width'
p8
I141
sass."
EndChar

StartChar: si_MatraR
Encoding: 70 3544 275
GlifName: si_M_atraR_
Width: 375
VWidth: 0
GlyphClass: 2
Flags: W
LayerCount: 2
Back
Fore
SplineSet
188 -0.179688 m 256
 107.722 -0.179688 30 54.417 30 157 c 256
 30 236.469 74.1611 310.377 188 310.377 c 256
 188 310.377 188 310.377 188 310.377 c 257
 188 196.377 l 257
 188 196.377 188 196.377 188 196.377 c 256
 163.608 196.377 147 182.938 147 157 c 256
 147 137 163.642 118.377 188 118.377 c 256
 207.706 118.377 225 133 225 157 c 258
 225 382.377 l 257
 224 409.234 220.112 444.377 168 444.377 c 257
 78 444.377 l 257
 78 574.377 l 257
 186 574.377 l 257
 276 574 345 497.636 345 398.377 c 257
 345 157 l 258
 345 50.2568 265.16 -0.179688 188 -0.179688 c 256
EndSplineSet
EndChar

StartChar: si_MatraU
Encoding: 68 3540 277
GlifName: si_M_atraU_
Width: 508
VWidth: 0
GlyphClass: 2
Flags: W
HStem: -197 140
VStem: 30 172
LayerCount: 2
Back
Fore
SplineSet
338 123 m 257
 478 123 l 257
 478 -205 l 257
 338 -205 l 257
 338 123 l 257
268 -65 m 257
 348 -65 l 257
 348 -205 l 257
 268 -205 l 257
 268 -65 l 257
30 -65 m 257
 212 -65 l 257
 212 -205 l 257
 30 -205 l 257
 30 -65 l 257
EndSplineSet
PickledDataWithLists: "(dp1
S'com.fontlab.hintData'
p2
(dp3
S'vhints'
p4
(lp5
(dp6
S'position'
p7
I30
sS'width'
p8
I172
sasS'hhints'
p9
(lp10
(dp11
g7
I-197
sg8
I140
sass."
EndChar

StartChar: si_MatraU.alt
Encoding: 85 -1 278
GlifName: si_M_atraU_.alt
Width: 277
VWidth: 0
GlyphClass: 2
Flags: W
LayerCount: 2
Back
Fore
SplineSet
225.19 -205.003 m 256
 118.365 -205.003 29.8535 -155.937 30 -29 c 258
 30 19 l 258
 29.8535 147.379 118.365 197.003 225.19 197.003 c 256
 232.229 197.003 239.533 197.002 247 197 c 257
 247 54 l 257
 242.681 54 234.854 54 226 54 c 256
 202.141 54 171.857 44.0752 171.018 -2.98418 c 258
 171.022 -7.23574 l 258
 171.951 -54.1062 202.178 -64 226 -64 c 256
 234.854 -64 242.681 -64 247 -64 c 257
 247 -205 l 257
 239.533 -205.002 232.229 -205.003 225.19 -205.003 c 256
EndSplineSet
EndChar

StartChar: si_MatraUu
Encoding: 69 3542 279
GlifName: si_M_atraU_u
Width: 514
VWidth: 0
GlyphClass: 2
Flags: W
HStem: -205 140 -182 140<198.334 218 274 282.5 198.334 284.5>
VStem: 30 188<-179 -42 -182 -39 -182 -39>
LayerCount: 2
Back
Fore
SplineSet
30 -39 m 257
 56.334 -58.333 79.4443 -64.7773 100.741 -64.7773 c 256
 143.334 -64.7773 178.667 -42 218 -42 c 257
 218 -182 l 257
 178.667 -182 143.334 -204.777 100.741 -204.777 c 256
 79.4443 -204.777 56.334 -198.333 30 -179 c 257
 30 -39 l 257
344 -205 m 257
 344 123 l 257
 484 123 l 257
 484 -205 l 257
 344 -205 l 257
274 -42 m 257
 291 -42 321.148 -46.167 344 -61 c 257
 344 -205 l 257
 318.106 -186.639 295 -182 274 -182 c 257
 274 -42 l 257
EndSplineSet
PickledDataWithLists: "(dp1
S'com.fontlab.hintData'
p2
(dp3
S'vhints'
p4
(lp5
(dp6
S'position'
p7
I30
sS'width'
p8
I188
sasS'hhints'
p9
(lp10
(dp11
g7
I-205
sg8
I140
sa(dp12
g7
I-182
sg8
I140
sass."
EndChar

StartChar: si_MatraUu.alt
Encoding: 86 -1 280
GlifName: si_M_atraU_u.alt
Width: 297
VWidth: 0
GlyphClass: 2
Flags: W
LayerCount: 2
Back
Fore
SplineSet
52.9453 -31 m 258
 52.9081 -1.08693 54.8389 5 66 20 c 256
 243 20 l 257
 235.74 20 228.654 20 222 20 c 256
 202.47 20 193 11.3271 193 -18 c 258
 192.844 -47 l 258
 192.964 -66.833 203.775 -75 226 -75 c 256
 239.071 -75 250.624 -75 257 -75 c 257
 257 -205 l 257
 185.19 -205.003 l 258
 129.065 -205.003 53 -162.81 53 -75 c 258
 52.9453 -31 l 258
30 20 m 257
 30 90 l 257
 267 90 l 257
 267 20 l 257
 30 20 l 257
30 90 m 257
 97 132 l 257
 267 132 l 257
 200 90 l 257
 30 90 l 257
30 132 m 257
 30 202 l 257
 267 202 l 257
 267 132 l 257
 30 132 l 257
EndSplineSet
EndChar

StartChar: si_Mb.halant
Encoding: 356 -1 281
GlifName: si_M_b.halant
Width: 607
VWidth: 0
GlyphClass: 3
Flags: W
LayerCount: 2
Back
Fore
SplineSet
58.333 522 m 257
 58.333 652 l 257
 93.4238 652 l 257
 72.7832 668.999 63.9863 689.806 63.9863 710.889 c 256
 63.9863 764.067 119.96 819 183 819 c 258
 274 819 l 257
 274 703 l 257
 229 703 l 258
 200.062 703 193.742 688.847 193.742 676.362 c 256
 193.742 661.503 207.065 652 229 652 c 258
 346 652 l 257
 346 522 l 257
 58.333 522 l 257
429 673 m 257
 429 700 404.333 703 359 703 c 258
 330.5 703 l 257
 330.5 819 l 257
 391 819 l 258
 539.359 819 564.333 756 564.333 673 c 257
 429 673 l 257
190 -11 m 256
 94.8105 -11 30 55 30 157 c 258
 30 339 l 258
 30 428.355 98.7227 473.401 163.735 473.401 c 256
 223.396 473.401 280 437.112 280 364 c 258
 280 348 l 258
 280 336.714 287.716 331.107 295.45 331.107 c 256
 303.216 331.107 311 336.763 311 348 c 258
 311 469 l 257
 403 469 l 257
 403 340 l 258
 403 263.042 350.455 228.664 298.44 228.664 c 256
 247.465 228.664 197 261.682 197 320 c 258
 197 328 l 258
 197 341.305 189.157 348.08 181.361 348.08 c 256
 173.658 348.08 166 341.465 166 328 c 258
 166 166 l 258
 166 145.36 180.444 134.824 194.791 134.824 c 256
 208.943 134.824 223 145.077 223 166 c 256
 223 180.669 230.158 204 257 204 c 258
 346 204 l 258
 372.842 204 380 180.669 380 166 c 256
 380 145.077 394.057 134.824 408.209 134.824 c 256
 422.556 134.824 437 145 437 167 c 258
 437 455 l 258
 437 513.936 395.736 522 346 522 c 257
 346 652 l 257
 505.638 652 577 589.89 577 474 c 258
 577 157 l 258
 577 55 510.975 -11 414 -11 c 256
 383.387 -11 361.637 -2.89648 347.54 10.9062 c 256
 333.443 24.708 327 44.208 327 67 c 256
 327 88.8076 314.492 99.7227 301.988 99.7227 c 256
 289.492 99.7227 277 88.8223 277 67 c 256
 277 44.208 270.557 24.708 256.46 10.9062 c 256
 242.363 -2.89648 220.613 -11 190 -11 c 256
EndSplineSet
Ligature2: "si_halant_1 subtable" si_Mba si_Halant
EndChar

